<svg width="542" height="41" viewBox="0 0 542 41" fill="none" xmlns="http://www.w3.org/2000/svg">
<path d="M0.09375 21.8665V16.8665L20.0938 8.05966V13.8125L6.40057 19.3097L6.58523 19.0114V19.7216L6.40057 19.4233L20.0938 24.9205V30.6733L0.09375 21.8665ZM517.835 0.545453L508.46 35.375H503.247L512.622 0.545453H517.835ZM541.93 21.8665L521.93 30.6733V24.9205L535.623 19.4233L535.438 19.7216V19.0114L535.623 19.3097L521.93 13.8125V8.05966L541.93 16.8665V21.8665Z" fill="url(#paint0_linear_9_350)"/>
<path d="M41.6243 1.90909V31H35.4737V1.90909H41.6243ZM52.6222 18.3864V31H46.571V9.18182H52.3381V13.0312H52.5938C53.0767 11.7623 53.8864 10.7585 55.0227 10.0199C56.1591 9.27178 57.5369 8.89773 59.1562 8.89773C60.6714 8.89773 61.9924 9.22917 63.1193 9.89205C64.2462 10.5549 65.1222 11.5019 65.7472 12.733C66.3722 13.9545 66.6847 15.4129 66.6847 17.108V31H60.6335V18.1875C60.643 16.8523 60.3021 15.8106 59.6108 15.0625C58.9195 14.3049 57.9678 13.9261 56.7557 13.9261C55.9413 13.9261 55.2216 14.1013 54.5966 14.4517C53.9811 14.8021 53.4981 15.3134 53.1477 15.9858C52.8068 16.6487 52.6316 17.4489 52.6222 18.3864ZM83.1868 9.18182V13.7273H69.7209V9.18182H83.1868ZM72.8033 31V7.60511C72.8033 6.02367 73.111 4.71212 73.7266 3.67045C74.3516 2.62879 75.2038 1.84754 76.2834 1.3267C77.3629 0.805869 78.5893 0.545453 79.9624 0.545453C80.8904 0.545453 81.7379 0.616476 82.505 0.758523C83.2815 0.900568 83.8591 1.02841 84.2379 1.14205L83.1584 5.6875C82.9216 5.61174 82.6281 5.54072 82.2777 5.47443C81.9368 5.40814 81.5864 5.375 81.2266 5.375C80.3364 5.375 79.7161 5.58333 79.3658 6C79.0154 6.4072 78.8402 6.98011 78.8402 7.71875V31H72.8033ZM95.9602 31.4261C93.7538 31.4261 91.8456 30.9574 90.2358 30.0199C88.6354 29.0729 87.3996 27.7566 86.5284 26.071C85.6572 24.3759 85.2216 22.411 85.2216 20.1761C85.2216 17.9223 85.6572 15.9527 86.5284 14.267C87.3996 12.572 88.6354 11.2557 90.2358 10.3182C91.8456 9.37121 93.7538 8.89773 95.9602 8.89773C98.1667 8.89773 100.07 9.37121 101.67 10.3182C103.28 11.2557 104.521 12.572 105.392 14.267C106.263 15.9527 106.699 17.9223 106.699 20.1761C106.699 22.411 106.263 24.3759 105.392 26.071C104.521 27.7566 103.28 29.0729 101.67 30.0199C100.07 30.9574 98.1667 31.4261 95.9602 31.4261ZM95.9886 26.7386C96.9924 26.7386 97.8305 26.4545 98.5028 25.8864C99.1752 25.3087 99.6818 24.5227 100.023 23.5284C100.373 22.5341 100.548 21.4025 100.548 20.1335C100.548 18.8646 100.373 17.733 100.023 16.7386C99.6818 15.7443 99.1752 14.9583 98.5028 14.3807C97.8305 13.803 96.9924 13.5142 95.9886 13.5142C94.9754 13.5142 94.1231 13.803 93.4318 14.3807C92.75 14.9583 92.2339 15.7443 91.8835 16.7386C91.5426 17.733 91.3722 18.8646 91.3722 20.1335C91.3722 21.4025 91.5426 22.5341 91.8835 23.5284C92.2339 24.5227 92.75 25.3087 93.4318 25.8864C94.1231 26.4545 94.9754 26.7386 95.9886 26.7386ZM110.634 31V9.18182H116.5V12.9886H116.727C117.125 11.6345 117.793 10.6117 118.73 9.92045C119.668 9.2197 120.747 8.86932 121.969 8.86932C122.272 8.86932 122.598 8.88826 122.949 8.92614C123.299 8.96402 123.607 9.0161 123.872 9.08239V14.4517C123.588 14.3665 123.195 14.2907 122.693 14.2244C122.191 14.1581 121.732 14.125 121.315 14.125C120.425 14.125 119.63 14.3191 118.929 14.7074C118.238 15.0862 117.688 15.6165 117.281 16.2983C116.884 16.9801 116.685 17.7661 116.685 18.6562V31H110.634ZM127.001 31V9.18182H132.768V13.0312H133.023C133.478 11.7528 134.236 10.7443 135.296 10.0057C136.357 9.26705 137.626 8.89773 139.103 8.89773C140.599 8.89773 141.873 9.27178 142.924 10.0199C143.975 10.7585 144.676 11.7623 145.026 13.0312H145.254C145.699 11.7812 146.504 10.7822 147.668 10.0341C148.843 9.27652 150.23 8.89773 151.83 8.89773C153.866 8.89773 155.519 9.5464 156.788 10.8438C158.066 12.1316 158.705 13.9593 158.705 16.3267V31H152.668V17.5199C152.668 16.3078 152.346 15.3987 151.702 14.7926C151.058 14.1866 150.254 13.8835 149.288 13.8835C148.189 13.8835 147.332 14.2339 146.717 14.9347C146.101 15.6259 145.793 16.5398 145.793 17.6761V31H139.927V17.392C139.927 16.322 139.619 15.4697 139.004 14.8352C138.397 14.2008 137.597 13.8835 136.603 13.8835C135.931 13.8835 135.325 14.054 134.785 14.3949C134.254 14.7263 133.833 15.1951 133.521 15.8011C133.208 16.3977 133.052 17.0985 133.052 17.9034V31H127.001ZM169.707 31.4119C168.315 31.4119 167.074 31.1705 165.985 30.6875C164.896 30.1951 164.034 29.4706 163.4 28.5142C162.775 27.5483 162.462 26.3456 162.462 24.9062C162.462 23.6941 162.685 22.6761 163.13 21.8523C163.575 21.0284 164.181 20.3655 164.948 19.8636C165.715 19.3617 166.586 18.983 167.562 18.7273C168.547 18.4716 169.579 18.2917 170.658 18.1875C171.927 18.0549 172.95 17.9318 173.727 17.8182C174.503 17.6951 175.067 17.5152 175.417 17.2784C175.767 17.0417 175.942 16.6913 175.942 16.2273V16.142C175.942 15.2424 175.658 14.5464 175.09 14.054C174.531 13.5616 173.736 13.3153 172.704 13.3153C171.615 13.3153 170.748 13.5568 170.104 14.0398C169.46 14.5133 169.034 15.1098 168.826 15.8295L163.229 15.375C163.513 14.0492 164.072 12.9034 164.906 11.9375C165.739 10.9621 166.814 10.214 168.13 9.69318C169.456 9.16288 170.99 8.89773 172.732 8.89773C173.944 8.89773 175.104 9.03977 176.212 9.32386C177.33 9.60795 178.319 10.0483 179.181 10.6449C180.052 11.2415 180.739 12.0085 181.241 12.946C181.743 13.8741 181.994 14.9867 181.994 16.2841V31H176.255V27.9744H176.085C175.734 28.6562 175.265 29.2576 174.678 29.7784C174.091 30.2898 173.386 30.6922 172.562 30.9858C171.738 31.2699 170.786 31.4119 169.707 31.4119ZM171.44 27.2358C172.33 27.2358 173.116 27.0606 173.798 26.7102C174.479 26.3504 175.014 25.8674 175.403 25.2614C175.791 24.6553 175.985 23.9687 175.985 23.2017V20.8864C175.796 21.0095 175.535 21.1231 175.204 21.2273C174.882 21.322 174.517 21.4119 174.11 21.4972C173.703 21.5729 173.296 21.6439 172.888 21.7102C172.481 21.767 172.112 21.8191 171.781 21.8665C171.07 21.9706 170.45 22.1364 169.92 22.3636C169.389 22.5909 168.978 22.8987 168.684 23.2869C168.39 23.6657 168.244 24.1392 168.244 24.7074C168.244 25.5312 168.542 26.161 169.138 26.5966C169.745 27.0227 170.512 27.2358 171.44 27.2358ZM196.546 31.4261C194.311 31.4261 192.389 30.9527 190.779 30.0057C189.179 29.0492 187.948 27.7235 187.086 26.0284C186.234 24.3333 185.808 22.3826 185.808 20.1761C185.808 17.9413 186.238 15.9811 187.1 14.2955C187.971 12.6004 189.207 11.2794 190.808 10.3324C192.408 9.37595 194.311 8.89773 196.518 8.89773C198.421 8.89773 200.088 9.24337 201.518 9.93466C202.948 10.6259 204.079 11.5966 204.913 12.8466C205.746 14.0966 206.205 15.5644 206.29 17.25H200.58C200.419 16.161 199.993 15.285 199.302 14.6222C198.62 13.9498 197.725 13.6136 196.617 13.6136C195.68 13.6136 194.861 13.8693 194.16 14.3807C193.469 14.8826 192.929 15.6165 192.54 16.5824C192.152 17.5483 191.958 18.7178 191.958 20.0909C191.958 21.483 192.147 22.6667 192.526 23.642C192.915 24.6174 193.459 25.3608 194.16 25.8722C194.861 26.3835 195.68 26.6392 196.617 26.6392C197.308 26.6392 197.929 26.4972 198.478 26.2131C199.037 25.929 199.496 25.517 199.856 24.9773C200.225 24.428 200.467 23.7699 200.58 23.0028H206.29C206.196 24.6695 205.741 26.1373 204.927 27.4062C204.122 28.6657 203.009 29.6506 201.589 30.3608C200.168 31.071 198.487 31.4261 196.546 31.4261ZM195.126 30.8864H197.91L197.683 32.1222C198.658 32.2737 199.453 32.6383 200.069 33.2159C200.694 33.7936 201.011 34.5795 201.021 35.5739C201.03 36.9848 200.377 38.107 199.06 38.9403C197.744 39.7831 195.897 40.2045 193.521 40.2045L193.464 37.5057C194.657 37.5057 195.59 37.3589 196.262 37.0653C196.944 36.7813 197.299 36.3362 197.327 35.7301C197.346 35.1525 197.124 34.7121 196.66 34.4091C196.196 34.1061 195.471 33.893 194.487 33.7699L195.126 30.8864ZM220.023 31.4261C217.816 31.4261 215.908 30.9574 214.298 30.0199C212.698 29.0729 211.462 27.7566 210.591 26.071C209.72 24.3759 209.284 22.411 209.284 20.1761C209.284 17.9223 209.72 15.9527 210.591 14.267C211.462 12.572 212.698 11.2557 214.298 10.3182C215.908 9.37121 217.816 8.89773 220.023 8.89773C222.229 8.89773 224.133 9.37121 225.733 10.3182C227.343 11.2557 228.583 12.572 229.455 14.267C230.326 15.9527 230.761 17.9223 230.761 20.1761C230.761 22.411 230.326 24.3759 229.455 26.071C228.583 27.7566 227.343 29.0729 225.733 30.0199C224.133 30.9574 222.229 31.4261 220.023 31.4261ZM220.051 26.7386C221.055 26.7386 221.893 26.4545 222.565 25.8864C223.238 25.3087 223.744 24.5227 224.085 23.5284C224.436 22.5341 224.611 21.4025 224.611 20.1335C224.611 18.8646 224.436 17.733 224.085 16.7386C223.744 15.7443 223.238 14.9583 222.565 14.3807C221.893 13.803 221.055 13.5142 220.051 13.5142C219.038 13.5142 218.186 13.803 217.494 14.3807C216.813 14.9583 216.296 15.7443 215.946 16.7386C215.605 17.733 215.435 18.8646 215.435 20.1335C215.435 21.4025 215.605 22.5341 215.946 23.5284C216.296 24.5227 216.813 25.3087 217.494 25.8864C218.186 26.4545 219.038 26.7386 220.051 26.7386ZM215.96 6.49716L212.594 6.45455C212.594 4.64583 213.039 3.25852 213.929 2.29261C214.829 1.3267 215.922 0.839015 217.21 0.829545C217.873 0.829545 218.441 0.938447 218.915 1.15625C219.398 1.36458 219.829 1.6108 220.207 1.89489C220.596 2.17898 220.965 2.42992 221.315 2.64773C221.666 2.85606 222.045 2.96023 222.452 2.96023C223.001 2.95076 223.418 2.74716 223.702 2.34943C223.995 1.94223 224.142 1.41193 224.142 0.758523L227.452 0.857953C227.433 2.64773 226.978 4.0303 226.088 5.00568C225.198 5.97159 224.114 6.45928 222.835 6.46875C222.125 6.46875 221.528 6.36458 221.045 6.15625C220.572 5.93845 220.155 5.69223 219.795 5.41761C219.436 5.13352 219.085 4.88258 218.744 4.66477C218.403 4.44697 218.02 4.33807 217.594 4.33807C217.101 4.33807 216.704 4.5322 216.401 4.92045C216.107 5.30871 215.96 5.83428 215.96 6.49716ZM244.639 31.4261C242.395 31.4261 240.463 30.9716 238.844 30.0625C237.234 29.1439 235.993 27.8466 235.122 26.1705C234.251 24.4848 233.815 22.4915 233.815 20.1903C233.815 17.946 234.251 15.9763 235.122 14.2812C235.993 12.5862 237.22 11.2652 238.801 10.3182C240.392 9.37121 242.258 8.89773 244.398 8.89773C245.837 8.89773 247.177 9.12973 248.418 9.59375C249.668 10.0483 250.757 10.7348 251.685 11.6534C252.622 12.572 253.351 13.7273 253.872 15.1193C254.393 16.5019 254.653 18.1212 254.653 19.9773V21.6392H236.23V17.8892H248.957C248.957 17.018 248.768 16.2462 248.389 15.5739C248.01 14.9015 247.485 14.3759 246.812 13.9972C246.15 13.6089 245.378 13.4148 244.497 13.4148C243.579 13.4148 242.764 13.6278 242.054 14.054C241.353 14.4706 240.804 15.0341 240.406 15.7443C240.009 16.4451 239.805 17.2263 239.795 18.0881V21.6534C239.795 22.733 239.994 23.6657 240.392 24.4517C240.799 25.2377 241.372 25.8438 242.111 26.2699C242.849 26.696 243.725 26.9091 244.739 26.9091C245.411 26.9091 246.027 26.8144 246.585 26.625C247.144 26.4356 247.622 26.1515 248.02 25.7727C248.418 25.3939 248.721 24.9299 248.929 24.3807L254.526 24.75C254.241 26.0947 253.659 27.2689 252.778 28.2727C251.907 29.267 250.78 30.0436 249.398 30.6023C248.025 31.1515 246.438 31.4261 244.639 31.4261ZM276.756 15.4034L271.216 15.7443C271.121 15.2708 270.918 14.8447 270.605 14.4659C270.293 14.0777 269.881 13.7699 269.369 13.5426C268.867 13.3059 268.266 13.1875 267.565 13.1875C266.628 13.1875 265.837 13.3864 265.193 13.7841C264.549 14.1723 264.227 14.6932 264.227 15.3466C264.227 15.8674 264.436 16.3078 264.852 16.6676C265.269 17.0275 265.984 17.3163 266.997 17.5341L270.946 18.3295C273.067 18.7652 274.649 19.4659 275.69 20.4318C276.732 21.3977 277.253 22.6667 277.253 24.2386C277.253 25.6686 276.831 26.9233 275.989 28.0028C275.155 29.0824 274.009 29.9252 272.551 30.5312C271.102 31.1278 269.431 31.4261 267.537 31.4261C264.649 31.4261 262.348 30.8248 260.634 29.6222C258.929 28.41 257.93 26.7623 257.636 24.679L263.588 24.3665C263.768 25.2472 264.204 25.9195 264.895 26.3835C265.586 26.8381 266.472 27.0653 267.551 27.0653C268.612 27.0653 269.464 26.8617 270.108 26.4545C270.761 26.0379 271.093 25.5028 271.102 24.8494C271.093 24.3002 270.861 23.8504 270.406 23.5C269.952 23.1402 269.251 22.8655 268.304 22.6761L264.526 21.9233C262.395 21.4972 260.809 20.7585 259.767 19.7074C258.735 18.6562 258.219 17.3163 258.219 15.6875C258.219 14.286 258.598 13.0786 259.355 12.0653C260.122 11.0521 261.197 10.2708 262.58 9.72159C263.972 9.17235 265.6 8.89773 267.466 8.89773C270.222 8.89773 272.39 9.48011 273.972 10.6449C275.563 11.8097 276.491 13.3958 276.756 15.4034ZM295.449 31H288.858L298.901 1.90909H306.827L316.855 31H310.264L302.977 8.55682H302.75L295.449 31ZM295.037 19.5653H310.605V24.3665H295.037V19.5653ZM327.267 31.3551C325.61 31.3551 324.109 30.929 322.764 30.0767C321.429 29.215 320.368 27.9508 319.582 26.2841C318.806 24.608 318.418 22.553 318.418 20.1193C318.418 17.6193 318.82 15.5407 319.625 13.8835C320.43 12.2169 321.5 10.9716 322.835 10.1477C324.18 9.31439 325.652 8.89773 327.253 8.89773C328.474 8.89773 329.492 9.10606 330.307 9.52273C331.131 9.92992 331.794 10.4413 332.295 11.0568C332.807 11.6629 333.195 12.2595 333.46 12.8466H333.645V1.90909H339.682V31H333.716V27.5057H333.46C333.176 28.1117 332.774 28.7131 332.253 29.3097C331.741 29.8968 331.074 30.3845 330.25 30.7727C329.436 31.161 328.441 31.3551 327.267 31.3551ZM329.185 26.5398C330.16 26.5398 330.984 26.2746 331.656 25.7443C332.338 25.2045 332.859 24.4517 333.219 23.4858C333.588 22.5199 333.773 21.3883 333.773 20.0909C333.773 18.7936 333.593 17.6667 333.233 16.7102C332.873 15.7538 332.352 15.0152 331.67 14.4943C330.989 13.9735 330.16 13.7131 329.185 13.7131C328.19 13.7131 327.352 13.983 326.67 14.5227C325.989 15.0625 325.473 15.8106 325.122 16.767C324.772 17.7235 324.597 18.8314 324.597 20.0909C324.597 21.3598 324.772 22.482 325.122 23.4574C325.482 24.4233 325.998 25.1809 326.67 25.7301C327.352 26.2699 328.19 26.5398 329.185 26.5398ZM344.657 31V9.18182H350.708V31H344.657ZM347.697 6.36932C346.797 6.36932 346.025 6.07102 345.381 5.47443C344.747 4.86837 344.43 4.14394 344.43 3.30114C344.43 2.4678 344.747 1.75284 345.381 1.15625C346.025 0.550188 346.797 0.247158 347.697 0.247158C348.596 0.247158 349.363 0.550188 349.998 1.15625C350.642 1.75284 350.964 2.4678 350.964 3.30114C350.964 4.14394 350.642 4.86837 349.998 5.47443C349.363 6.07102 348.596 6.36932 347.697 6.36932ZM365.413 31.4261C363.179 31.4261 361.256 30.9527 359.646 30.0057C358.046 29.0492 356.815 27.7235 355.953 26.0284C355.101 24.3333 354.675 22.3826 354.675 20.1761C354.675 17.9413 355.106 15.9811 355.967 14.2955C356.839 12.6004 358.074 11.2794 359.675 10.3324C361.275 9.37595 363.179 8.89773 365.385 8.89773C367.288 8.89773 368.955 9.24337 370.385 9.93466C371.815 10.6259 372.946 11.5966 373.78 12.8466C374.613 14.0966 375.072 15.5644 375.158 17.25H369.447C369.286 16.161 368.86 15.285 368.169 14.6222C367.487 13.9498 366.592 13.6136 365.484 13.6136C364.547 13.6136 363.728 13.8693 363.027 14.3807C362.336 14.8826 361.796 15.6165 361.408 16.5824C361.019 17.5483 360.825 18.7178 360.825 20.0909C360.825 21.483 361.015 22.6667 361.393 23.642C361.782 24.6174 362.326 25.3608 363.027 25.8722C363.728 26.3835 364.547 26.6392 365.484 26.6392C366.176 26.6392 366.796 26.4972 367.345 26.2131C367.904 25.929 368.363 25.517 368.723 24.9773C369.092 24.428 369.334 23.7699 369.447 23.0028H375.158C375.063 24.6695 374.608 26.1373 373.794 27.4062C372.989 28.6657 371.876 29.6506 370.456 30.3608C369.036 31.071 367.355 31.4261 365.413 31.4261ZM379.032 31V9.18182H385.083V31H379.032ZM382.072 6.36932C381.172 6.36932 380.4 6.07102 379.756 5.47443C379.122 4.86837 378.805 4.14394 378.805 3.30114C378.805 2.4678 379.122 1.75284 379.756 1.15625C380.4 0.550188 381.172 0.247158 382.072 0.247158C382.971 0.247158 383.738 0.550188 384.373 1.15625C385.017 1.75284 385.339 2.4678 385.339 3.30114C385.339 4.14394 385.017 4.86837 384.373 5.47443C383.738 6.07102 382.971 6.36932 382.072 6.36932ZM399.788 31.4261C397.582 31.4261 395.674 30.9574 394.064 30.0199C392.464 29.0729 391.228 27.7566 390.357 26.071C389.485 24.3759 389.05 22.411 389.05 20.1761C389.05 17.9223 389.485 15.9527 390.357 14.267C391.228 12.572 392.464 11.2557 394.064 10.3182C395.674 9.37121 397.582 8.89773 399.788 8.89773C401.995 8.89773 403.898 9.37121 405.499 10.3182C407.108 11.2557 408.349 12.572 409.22 14.267C410.091 15.9527 410.527 17.9223 410.527 20.1761C410.527 22.411 410.091 24.3759 409.22 26.071C408.349 27.7566 407.108 29.0729 405.499 30.0199C403.898 30.9574 401.995 31.4261 399.788 31.4261ZM399.817 26.7386C400.821 26.7386 401.659 26.4545 402.331 25.8864C403.003 25.3087 403.51 24.5227 403.851 23.5284C404.201 22.5341 404.376 21.4025 404.376 20.1335C404.376 18.8646 404.201 17.733 403.851 16.7386C403.51 15.7443 403.003 14.9583 402.331 14.3807C401.659 13.803 400.821 13.5142 399.817 13.5142C398.804 13.5142 397.951 13.803 397.26 14.3807C396.578 14.9583 396.062 15.7443 395.712 16.7386C395.371 17.733 395.2 18.8646 395.2 20.1335C395.2 21.4025 395.371 22.5341 395.712 23.5284C396.062 24.5227 396.578 25.3087 397.26 25.8864C397.951 26.4545 398.804 26.7386 399.817 26.7386ZM420.513 18.3864V31H414.462V9.18182H420.229V13.0312H420.484C420.967 11.7623 421.777 10.7585 422.913 10.0199C424.05 9.27178 425.428 8.89773 427.047 8.89773C428.562 8.89773 429.883 9.22917 431.01 9.89205C432.137 10.5549 433.013 11.5019 433.638 12.733C434.263 13.9545 434.575 15.4129 434.575 17.108V31H428.524V18.1875C428.534 16.8523 428.193 15.8106 427.501 15.0625C426.81 14.3049 425.858 13.9261 424.646 13.9261C423.832 13.9261 423.112 14.1013 422.487 14.4517C421.872 14.8021 421.389 15.3134 421.038 15.9858C420.697 16.6487 420.522 17.4489 420.513 18.3864ZM445.566 31.4119C444.174 31.4119 442.933 31.1705 441.844 30.6875C440.755 30.1951 439.894 29.4706 439.259 28.5142C438.634 27.5483 438.322 26.3456 438.322 24.9062C438.322 23.6941 438.544 22.6761 438.989 21.8523C439.434 21.0284 440.04 20.3655 440.808 19.8636C441.575 19.3617 442.446 18.983 443.421 18.7273C444.406 18.4716 445.438 18.2917 446.518 18.1875C447.787 18.0549 448.809 17.9318 449.586 17.8182C450.362 17.6951 450.926 17.5152 451.276 17.2784C451.627 17.0417 451.802 16.6913 451.802 16.2273V16.142C451.802 15.2424 451.518 14.5464 450.95 14.054C450.391 13.5616 449.595 13.3153 448.563 13.3153C447.474 13.3153 446.608 13.5568 445.964 14.0398C445.32 14.5133 444.894 15.1098 444.685 15.8295L439.089 15.375C439.373 14.0492 439.932 12.9034 440.765 11.9375C441.598 10.9621 442.673 10.214 443.989 9.69318C445.315 9.16288 446.849 8.89773 448.592 8.89773C449.804 8.89773 450.964 9.03977 452.072 9.32386C453.189 9.60795 454.179 10.0483 455.04 10.6449C455.912 11.2415 456.598 12.0085 457.1 12.946C457.602 13.8741 457.853 14.9867 457.853 16.2841V31H452.114V27.9744H451.944C451.594 28.6562 451.125 29.2576 450.538 29.7784C449.951 30.2898 449.245 30.6922 448.421 30.9858C447.597 31.2699 446.646 31.4119 445.566 31.4119ZM447.299 27.2358C448.189 27.2358 448.975 27.0606 449.657 26.7102C450.339 26.3504 450.874 25.8674 451.262 25.2614C451.65 24.6553 451.844 23.9687 451.844 23.2017V20.8864C451.655 21.0095 451.395 21.1231 451.063 21.2273C450.741 21.322 450.377 21.4119 449.969 21.4972C449.562 21.5729 449.155 21.6439 448.748 21.7102C448.341 21.767 447.971 21.8191 447.64 21.8665C446.93 21.9706 446.309 22.1364 445.779 22.3636C445.249 22.5909 444.837 22.8987 444.543 23.2869C444.25 23.6657 444.103 24.1392 444.103 24.7074C444.103 25.5312 444.401 26.161 444.998 26.5966C445.604 27.0227 446.371 27.2358 447.299 27.2358ZM462.548 31V9.18182H468.599V31H462.548ZM465.587 6.36932C464.688 6.36932 463.916 6.07102 463.272 5.47443C462.638 4.86837 462.32 4.14394 462.32 3.30114C462.32 2.4678 462.638 1.75284 463.272 1.15625C463.916 0.550188 464.688 0.247158 465.587 0.247158C466.487 0.247158 467.254 0.550188 467.888 1.15625C468.532 1.75284 468.854 2.4678 468.854 3.30114C468.854 4.14394 468.532 4.86837 467.888 5.47443C467.254 6.07102 466.487 6.36932 465.587 6.36932ZM491.599 15.4034L486.06 15.7443C485.965 15.2708 485.761 14.8447 485.449 14.4659C485.136 14.0777 484.724 13.7699 484.213 13.5426C483.711 13.3059 483.11 13.1875 482.409 13.1875C481.472 13.1875 480.681 13.3864 480.037 13.7841C479.393 14.1723 479.071 14.6932 479.071 15.3466C479.071 15.8674 479.279 16.3078 479.696 16.6676C480.113 17.0275 480.828 17.3163 481.841 17.5341L485.79 18.3295C487.911 18.7652 489.492 19.4659 490.534 20.4318C491.576 21.3977 492.097 22.6667 492.097 24.2386C492.097 25.6686 491.675 26.9233 490.832 28.0028C489.999 29.0824 488.853 29.9252 487.395 30.5312C485.946 31.1278 484.275 31.4261 482.381 31.4261C479.492 31.4261 477.191 30.8248 475.477 29.6222C473.773 28.41 472.774 26.7623 472.48 24.679L478.432 24.3665C478.612 25.2472 479.047 25.9195 479.739 26.3835C480.43 26.8381 481.315 27.0653 482.395 27.0653C483.455 27.0653 484.308 26.8617 484.952 26.4545C485.605 26.0379 485.937 25.5028 485.946 24.8494C485.937 24.3002 485.705 23.8504 485.25 23.5C484.795 23.1402 484.095 22.8655 483.148 22.6761L479.369 21.9233C477.239 21.4972 475.652 20.7585 474.611 19.7074C473.579 18.6562 473.062 17.3163 473.062 15.6875C473.062 14.286 473.441 13.0786 474.199 12.0653C474.966 11.0521 476.041 10.2708 477.423 9.72159C478.815 9.17235 480.444 8.89773 482.31 8.89773C485.065 8.89773 487.234 9.48011 488.815 10.6449C490.406 11.8097 491.334 13.3958 491.599 15.4034Z" fill="white"/>
<defs>
<linearGradient id="paint0_linear_9_350" x1="57.1268" y1="4.29752" x2="331.631" y2="293.351" gradientUnits="userSpaceOnUse">
<stop stop-color="#FE2A2A"/>
<stop offset="1" stop-color="#F7931E"/>
</linearGradient>
</defs>
</svg>
