<svg width="326" height="30" viewBox="0 0 326 30" fill="none" xmlns="http://www.w3.org/2000/svg">
<path d="M0.301847 16.3729V13.3047L14.8757 6.57173V10.3537L4.5206 14.7962L4.63778 14.5938V15.0838L4.5206 14.8814L14.8757 19.3239V23.1058L0.301847 16.3729ZM308.124 0.659089L301.093 26.7812H297.716L304.747 0.659089H308.124ZM325.979 16.3729L311.405 23.1058V19.3239L321.76 14.8814L321.643 15.0838V14.5938L321.76 14.7962L311.405 10.3537V6.57173L325.979 13.3047V16.3729Z" fill="url(#paint0_linear_9_570)"/>
<path d="M30.0808 23.5H25.862L33.5431 1.68182H38.4224L46.1142 23.5H41.8954L36.068 6.15625H35.8976L30.0808 23.5ZM30.2193 14.9453H41.725V18.12H30.2193V14.9453ZM55.4359 29.9773C54.051 29.9773 52.8613 29.7891 51.867 29.4126C50.8727 29.0433 50.0737 28.5462 49.47 27.9212C48.8663 27.2962 48.4473 26.6037 48.2129 25.8438L51.6859 25.0021C51.8422 25.3217 52.0694 25.6378 52.3677 25.9503C52.666 26.2699 53.0673 26.5327 53.5716 26.7386C54.0829 26.9517 54.7257 27.0582 55.4998 27.0582C56.5936 27.0582 57.4991 26.7919 58.2164 26.2592C58.9338 25.7337 59.2924 24.8672 59.2924 23.6598V20.5597H59.1007C58.9018 20.9574 58.6106 21.3658 58.2271 21.7848C57.8507 22.2038 57.35 22.5554 56.725 22.8395C56.1071 23.1236 55.3294 23.2656 54.3919 23.2656C53.1348 23.2656 51.9949 22.9709 50.9721 22.3814C49.9565 21.7848 49.1468 20.897 48.5431 19.718C47.9466 18.532 47.6483 17.0476 47.6483 15.2649C47.6483 13.468 47.9466 11.9517 48.5431 10.7159C49.1468 9.47301 49.96 8.53196 50.9828 7.89276C52.0055 7.24645 53.1454 6.9233 54.4025 6.9233C55.3613 6.9233 56.1497 7.08665 56.7676 7.41335C57.3926 7.73295 57.8897 8.12003 58.2591 8.57457C58.6284 9.02202 58.9089 9.4446 59.1007 9.84233H59.3137V7.13636H63.117V23.7663C63.117 25.1655 62.7832 26.3232 62.1156 27.2393C61.448 28.1555 60.5353 28.8409 59.3777 29.2955C58.22 29.75 56.9061 29.9773 55.4359 29.9773ZM55.4679 20.2401C56.2846 20.2401 56.9806 20.0412 57.5559 19.6435C58.1312 19.2457 58.568 18.674 58.8663 17.9283C59.1646 17.1825 59.3137 16.2876 59.3137 15.2436C59.3137 14.2138 59.1646 13.3118 58.8663 12.5376C58.5751 11.7635 58.1419 11.1634 57.5666 10.7372C56.9984 10.304 56.2988 10.0874 55.4679 10.0874C54.6085 10.0874 53.8912 10.3111 53.3159 10.7585C52.7406 11.206 52.3074 11.8203 52.0162 12.6016C51.725 13.3757 51.5794 14.2564 51.5794 15.2436C51.5794 16.245 51.725 17.1222 52.0162 17.875C52.3145 18.6207 52.7512 19.2031 53.3265 19.6222C53.9089 20.0341 54.6227 20.2401 55.4679 20.2401ZM74.3137 23.8196C72.6731 23.8196 71.2562 23.4787 70.063 22.7969C68.877 22.108 67.9643 21.1349 67.3251 19.8778C66.6859 18.6136 66.3663 17.1257 66.3663 15.4141C66.3663 13.7308 66.6859 12.2536 67.3251 10.9822C67.9714 9.70383 68.8734 8.70952 70.0311 7.99929C71.1887 7.28196 72.5488 6.9233 74.1113 6.9233C75.1199 6.9233 76.0716 7.08665 76.9664 7.41335C77.8684 7.73295 78.6639 8.23011 79.3528 8.90483C80.0488 9.57955 80.5957 10.4389 80.9934 11.483C81.3912 12.5199 81.59 13.7557 81.59 15.1903V16.3729H68.1774V13.7734H77.8933C77.8862 13.0348 77.7264 12.3778 77.4139 11.8026C77.1014 11.2202 76.6646 10.7621 76.1035 10.4283C75.5495 10.0945 74.9032 9.92756 74.1646 9.92756C73.3762 9.92756 72.6838 10.1193 72.0872 10.5028C71.4906 10.8793 71.0254 11.3764 70.6916 11.9943C70.3649 12.6051 70.198 13.2763 70.1909 14.0078V16.277C70.1909 17.2287 70.3649 18.0455 70.7129 18.7273C71.0609 19.402 71.5474 19.9205 72.1724 20.2827C72.7974 20.6378 73.5289 20.8153 74.367 20.8153C74.9281 20.8153 75.4359 20.7372 75.8904 20.581C76.345 20.4176 76.7392 20.1797 77.073 19.8672C77.4068 19.5547 77.6589 19.1676 77.8294 18.706L81.4302 19.1108C81.2029 20.0625 80.7697 20.8935 80.1305 21.6037C79.4984 22.3068 78.6887 22.8537 77.7015 23.2443C76.7143 23.6278 75.585 23.8196 74.3137 23.8196ZM88.7092 13.9119V23.5H84.8526V7.13636H88.5387V9.9169H88.7305C89.1069 9.00071 89.707 8.27273 90.5309 7.73295C91.3619 7.19318 92.3881 6.9233 93.6097 6.9233C94.739 6.9233 95.7227 7.16477 96.5607 7.64773C97.4059 8.13068 98.0593 8.83026 98.521 9.74645C98.9897 10.6626 99.2205 11.7741 99.2134 13.081V23.5H95.3569V13.6776C95.3569 12.5838 95.0728 11.728 94.5046 11.1101C93.9435 10.4922 93.1658 10.1832 92.1715 10.1832C91.4968 10.1832 90.8967 10.3324 90.3711 10.6307C89.8526 10.9219 89.4442 11.3445 89.146 11.8984C88.8548 12.4524 88.7092 13.1236 88.7092 13.9119ZM109.206 23.7876C107.921 23.7876 106.77 23.4574 105.755 22.7969C104.739 22.1364 103.936 21.1776 103.347 19.9205C102.757 18.6634 102.463 17.1364 102.463 15.3395C102.463 13.5213 102.761 11.9872 103.358 10.7372C103.961 9.48011 104.775 8.53196 105.797 7.89276C106.82 7.24645 107.96 6.9233 109.217 6.9233C110.176 6.9233 110.964 7.08665 111.582 7.41335C112.2 7.73295 112.69 8.12003 113.052 8.57457C113.414 9.02202 113.695 9.4446 113.894 9.84233H114.054V1.68182H117.921V23.5H114.128V20.9219H113.894C113.695 21.3196 113.407 21.7422 113.031 22.1896C112.654 22.63 112.157 23.0064 111.539 23.3189C110.922 23.6314 110.144 23.7876 109.206 23.7876ZM110.282 20.6236C111.099 20.6236 111.795 20.4034 112.37 19.9631C112.946 19.5156 113.382 18.8942 113.681 18.0987C113.979 17.3033 114.128 16.3764 114.128 15.3182C114.128 14.2599 113.979 13.3402 113.681 12.5589C113.39 11.7777 112.956 11.1705 112.381 10.7372C111.813 10.304 111.113 10.0874 110.282 10.0874C109.423 10.0874 108.706 10.3111 108.13 10.7585C107.555 11.206 107.122 11.8239 106.831 12.6122C106.539 13.4006 106.394 14.3026 106.394 15.3182C106.394 16.3409 106.539 17.2536 106.831 18.0561C107.129 18.8516 107.566 19.4801 108.141 19.9418C108.723 20.3963 109.437 20.6236 110.282 20.6236ZM126.739 23.8303C125.702 23.8303 124.768 23.6456 123.937 23.2763C123.113 22.8999 122.46 22.3459 121.977 21.6143C121.501 20.8828 121.263 19.9808 121.263 18.9084C121.263 17.9851 121.434 17.2216 121.775 16.6179C122.116 16.0142 122.581 15.5312 123.17 15.169C123.76 14.8068 124.424 14.5334 125.162 14.3487C125.908 14.157 126.679 14.0185 127.474 13.9332C128.433 13.8338 129.211 13.745 129.807 13.6669C130.404 13.5817 130.837 13.4538 131.107 13.2834C131.384 13.1058 131.523 12.8324 131.523 12.4631V12.3991C131.523 11.5966 131.285 10.9751 130.809 10.5348C130.333 10.0945 129.648 9.87429 128.753 9.87429C127.808 9.87429 127.059 10.0803 126.505 10.4922C125.958 10.9041 125.589 11.3906 125.397 11.9517L121.796 11.4403C122.08 10.446 122.549 9.61506 123.202 8.94744C123.856 8.27273 124.655 7.76847 125.599 7.43466C126.544 7.09375 127.588 6.9233 128.731 6.9233C129.52 6.9233 130.305 7.01563 131.086 7.20028C131.867 7.38494 132.581 7.69034 133.227 8.11648C133.873 8.53551 134.392 9.10724 134.782 9.83168C135.18 10.5561 135.379 11.4616 135.379 12.5483V23.5H131.672V21.2521H131.544C131.309 21.7067 130.979 22.1328 130.553 22.5305C130.134 22.9212 129.605 23.2372 128.966 23.4787C128.334 23.7131 127.591 23.8303 126.739 23.8303ZM127.741 20.9964C128.515 20.9964 129.186 20.8437 129.754 20.5384C130.322 20.2259 130.759 19.8139 131.064 19.3026C131.377 18.7912 131.533 18.2337 131.533 17.63V15.7017C131.412 15.8011 131.206 15.8935 130.915 15.9787C130.631 16.0639 130.312 16.1385 129.956 16.2024C129.601 16.2663 129.25 16.3232 128.902 16.3729C128.554 16.4226 128.252 16.4652 127.996 16.5007C127.421 16.5788 126.906 16.7067 126.452 16.8842C125.997 17.0618 125.638 17.3104 125.376 17.63C125.113 17.9425 124.981 18.3473 124.981 18.8445C124.981 19.5547 125.241 20.0909 125.759 20.4531C126.278 20.8153 126.938 20.9964 127.741 20.9964ZM152.771 23.7876C151.485 23.7876 150.335 23.4574 149.319 22.7969C148.303 22.1364 147.501 21.1776 146.911 19.9205C146.322 18.6634 146.027 17.1364 146.027 15.3395C146.027 13.5213 146.325 11.9872 146.922 10.7372C147.526 9.48011 148.339 8.53196 149.362 7.89276C150.384 7.24645 151.524 6.9233 152.781 6.9233C153.74 6.9233 154.529 7.08665 155.146 7.41335C155.764 7.73295 156.254 8.12003 156.617 8.57457C156.979 9.02202 157.259 9.4446 157.458 9.84233H157.618V1.68182H161.485V23.5H157.693V20.9219H157.458C157.259 21.3196 156.972 21.7422 156.595 22.1896C156.219 22.63 155.722 23.0064 155.104 23.3189C154.486 23.6314 153.708 23.7876 152.771 23.7876ZM153.847 20.6236C154.664 20.6236 155.36 20.4034 155.935 19.9631C156.51 19.5156 156.947 18.8942 157.245 18.0987C157.544 17.3033 157.693 16.3764 157.693 15.3182C157.693 14.2599 157.544 13.3402 157.245 12.5589C156.954 11.7777 156.521 11.1705 155.945 10.7372C155.377 10.304 154.678 10.0874 153.847 10.0874C152.987 10.0874 152.27 10.3111 151.695 10.7585C151.119 11.206 150.686 11.8239 150.395 12.6122C150.104 13.4006 149.958 14.3026 149.958 15.3182C149.958 16.3409 150.104 17.2536 150.395 18.0561C150.693 18.8516 151.13 19.4801 151.705 19.9418C152.288 20.3963 153.002 20.6236 153.847 20.6236ZM172.733 23.8196C171.135 23.8196 169.75 23.468 168.578 22.7649C167.406 22.0618 166.497 21.0781 165.85 19.8139C165.211 18.5497 164.892 17.0724 164.892 15.3821C164.892 13.6918 165.211 12.2109 165.85 10.9396C166.497 9.66832 167.406 8.68111 168.578 7.97798C169.75 7.27486 171.135 6.9233 172.733 6.9233C174.331 6.9233 175.716 7.27486 176.887 7.97798C178.059 8.68111 178.965 9.66832 179.604 10.9396C180.25 12.2109 180.574 13.6918 180.574 15.3821C180.574 17.0724 180.25 18.5497 179.604 19.8139C178.965 21.0781 178.059 22.0618 176.887 22.7649C175.716 23.468 174.331 23.8196 172.733 23.8196ZM172.754 20.7301C173.62 20.7301 174.345 20.4922 174.927 20.0163C175.51 19.5334 175.943 18.8871 176.227 18.0774C176.518 17.2678 176.664 16.3658 176.664 15.3714C176.664 14.37 176.518 13.4645 176.227 12.6548C175.943 11.8381 175.51 11.1882 174.927 10.7053C174.345 10.2223 173.62 9.98082 172.754 9.98082C171.866 9.98082 171.127 10.2223 170.538 10.7053C169.956 11.1882 169.519 11.8381 169.228 12.6548C168.944 13.4645 168.801 14.37 168.801 15.3714C168.801 16.3658 168.944 17.2678 169.228 18.0774C169.519 18.8871 169.956 19.5334 170.538 20.0163C171.127 20.4922 171.866 20.7301 172.754 20.7301ZM191.459 23.5V1.68182H205.649V4.99503H195.411V10.9183H204.914V14.2315H195.411V20.1868H205.734V23.5H191.459ZM224.127 7.13636L218.3 23.5H214.039L208.211 7.13636H212.323L216.084 19.2919H216.254L220.026 7.13636H224.127ZM233.484 23.8196C231.843 23.8196 230.426 23.4787 229.233 22.7969C228.047 22.108 227.134 21.1349 226.495 19.8778C225.856 18.6136 225.536 17.1257 225.536 15.4141C225.536 13.7308 225.856 12.2536 226.495 10.9822C227.141 9.70383 228.043 8.70952 229.201 7.99929C230.359 7.28196 231.719 6.9233 233.281 6.9233C234.29 6.9233 235.241 7.08665 236.136 7.41335C237.038 7.73295 237.834 8.23011 238.523 8.90483C239.219 9.57955 239.766 10.4389 240.163 11.483C240.561 12.5199 240.76 13.7557 240.76 15.1903V16.3729H227.347V13.7734H237.063C237.056 13.0348 236.896 12.3778 236.584 11.8026C236.271 11.2202 235.835 10.7621 235.273 10.4283C234.719 10.0945 234.073 9.92756 233.335 9.92756C232.546 9.92756 231.854 10.1193 231.257 10.5028C230.661 10.8793 230.195 11.3764 229.862 11.9943C229.535 12.6051 229.368 13.2763 229.361 14.0078V16.277C229.361 17.2287 229.535 18.0455 229.883 18.7273C230.231 19.402 230.717 19.9205 231.342 20.2827C231.967 20.6378 232.699 20.8153 233.537 20.8153C234.098 20.8153 234.606 20.7372 235.06 20.581C235.515 20.4176 235.909 20.1797 236.243 19.8672C236.577 19.5547 236.829 19.1676 236.999 18.706L240.6 19.1108C240.373 20.0625 239.94 20.8935 239.3 21.6037C238.668 22.3068 237.859 22.8537 236.871 23.2443C235.884 23.6278 234.755 23.8196 233.484 23.8196ZM247.879 13.9119V23.5H244.023V7.13636H247.709V9.9169H247.9C248.277 9.00071 248.877 8.27273 249.701 7.73295C250.532 7.19318 251.558 6.9233 252.78 6.9233C253.909 6.9233 254.893 7.16477 255.731 7.64773C256.576 8.13068 257.229 8.83026 257.691 9.74645C258.16 10.6626 258.39 11.7741 258.383 13.081V23.5H254.527V13.6776C254.527 12.5838 254.243 11.728 253.675 11.1101C253.113 10.4922 252.336 10.1832 251.341 10.1832C250.667 10.1832 250.067 10.3324 249.541 10.6307C249.023 10.9219 248.614 11.3445 248.316 11.8984C248.025 12.4524 247.879 13.1236 247.879 13.9119ZM270.475 7.13636V10.1193H261.068V7.13636H270.475ZM263.39 3.21591H267.247V18.5781C267.247 19.0966 267.325 19.4943 267.481 19.7713C267.645 20.0412 267.858 20.2259 268.121 20.3253C268.383 20.4247 268.675 20.4744 268.994 20.4744C269.236 20.4744 269.456 20.4567 269.655 20.4212C269.861 20.3857 270.017 20.3537 270.123 20.3253L270.773 23.3402C270.567 23.4112 270.273 23.4893 269.889 23.5746C269.513 23.6598 269.051 23.7095 268.504 23.7237C267.538 23.7521 266.668 23.6065 265.894 23.2869C265.12 22.9602 264.506 22.456 264.051 21.7741C263.604 21.0923 263.383 20.2401 263.39 19.2173V3.21591ZM280.662 23.8196C279.064 23.8196 277.679 23.468 276.507 22.7649C275.336 22.0618 274.426 21.0781 273.78 19.8139C273.141 18.5497 272.821 17.0724 272.821 15.3821C272.821 13.6918 273.141 12.2109 273.78 10.9396C274.426 9.66832 275.336 8.68111 276.507 7.97798C277.679 7.27486 279.064 6.9233 280.662 6.9233C282.26 6.9233 283.645 7.27486 284.817 7.97798C285.989 8.68111 286.895 9.66832 287.534 10.9396C288.18 12.2109 288.503 13.6918 288.503 15.3821C288.503 17.0724 288.18 18.5497 287.534 19.8139C286.895 21.0781 285.989 22.0618 284.817 22.7649C283.645 23.468 282.26 23.8196 280.662 23.8196ZM280.684 20.7301C281.55 20.7301 282.275 20.4922 282.857 20.0163C283.439 19.5334 283.873 18.8871 284.157 18.0774C284.448 17.2678 284.593 16.3658 284.593 15.3714C284.593 14.37 284.448 13.4645 284.157 12.6548C283.873 11.8381 283.439 11.1882 282.857 10.7053C282.275 10.2223 281.55 9.98082 280.684 9.98082C279.796 9.98082 279.057 10.2223 278.468 10.7053C277.885 11.1882 277.449 11.8381 277.157 12.6548C276.873 13.4645 276.731 14.37 276.731 15.3714C276.731 16.3658 276.873 17.2678 277.157 18.0774C277.449 18.8871 277.885 19.5334 278.468 20.0163C279.057 20.4922 279.796 20.7301 280.684 20.7301Z" fill="white"/>
<defs>
<linearGradient id="paint0_linear_9_570" x1="34.0965" y1="3.72314" x2="237.459" y2="176.074" gradientUnits="userSpaceOnUse">
<stop stop-color="#FE2A2A"/>
<stop offset="1" stop-color="#F7931E"/>
</linearGradient>
</defs>
</svg>
