<svg version="1.1" id="Layer_1" xmlns="http://www.w3.org/2000/svg" xmlns:xlink="http://www.w3.org/1999/xlink" x="0px" y="0px"
	 viewBox="0 0 316.2 101.3" style="enable-background:new 0 0 316.2 101.3;" xml:space="preserve">
<style type="text/css">
	.st0{clip-path:url(#SVGID_2_);fill:#F15A22;}
	.st1{fill:#F15A22;}
	.st2{clip-path:url(#SVGID_4_);fill:#F15A22;}
</style>
<g>
	<defs>
		<rect id="SVGID_1_" x="34.4" y="28.1" width="249.3" height="45.1"/>
	</defs>
	<clipPath id="SVGID_2_">
		<use xlink:href="#SVGID_1_"  style="overflow:visible;"/>
	</clipPath>
	<path class="st0" d="M71.1,58.2l15.9,8.8l1.4,0.6c-0.7-0.1-1-0.1-1.6-0.1h-1.6h-1.4h-2.8h-1.4h-2.8h-1.4h-4.3v5.6h4.3h1.4h2.8h1.4
		h2.8h1.4h2.8h1.4h2.8h1.4h2.8h1.4h4.2V69v-1.4v-2.8v-1.4v-2.8v-1.4v-5.7h-5.6v0.1v5.6v0.7v0.7v2.8v0.7v0.7v0.8L75,53.5h-3.9V58.2z"
		/>
	<path class="st0" d="M65.5,58.2l-15.9,8.8l-1.4,0.6c0.7-0.1,1-0.1,1.6-0.1h1.6h1.4h2.8h1.4h2.8h1.4h4.3v5.6h-4.3h-1.4h-2.8h-1.4
		h-2.8h-1.4h-2.8h-1.4h-2.8h-1.4h-2.8h-1.4h-4.2V69v-1.4v-2.8v-1.4v-2.8v-1.4v-5.7h5.6v0.1v5.6v0.7v0.7v2.8v0.7v0.7v0.8l21.5-12.1
		h3.9V58.2z"/>
	<path class="st0" d="M71.1,43.1l15.9-8.8l1.4-0.6c-0.7,0.1-1,0.1-1.6,0.1h-1.6h-1.4h-2.8h-1.4h-2.8h-1.4h-4.3v-5.6h4.3h1.4h2.8h1.4
		h2.8h1.4h2.8h1.4h2.8h1.4h2.8h1.4h4.2v4.2v1.4v2.8v1.4v2.8v1.4v5.7h-5.6v-0.1v-5.6v-0.7v-0.7v-2.8v-0.7v-0.7v-0.8L75,47.8h-3.9
		V43.1z"/>
	<path class="st0" d="M65.5,43.1l-15.9-8.8l-1.4-0.6c0.7,0.1,1,0.1,1.6,0.1h1.6h1.4h2.8h1.4h2.8h1.4h4.3v-5.6h-4.3h-1.4h-2.8h-1.4
		h-2.8h-1.4h-2.8h-1.4h-2.8h-1.4h-2.8h-1.4h-4.2v4.2v1.4v2.8v1.4v2.8v1.4v5.7h5.6v-0.1v-5.6v-0.7v-0.7v-2.8v-0.7v-0.7v-0.8
		l21.5,12.1h3.9V43.1z"/>
	<path class="st0" d="M137.2,50.6c0,3.6-1,6.3-3.1,8.3c-2,1.9-5,2.9-8.9,2.9h-6.2V39.9h6.9c3.6,0,6.3,0.9,8.3,2.8
		C136.2,44.6,137.2,47.2,137.2,50.6 M132.4,50.7c0-4.7-2.1-7-6.2-7h-2.5v14.2h2C130.1,57.9,132.4,55.5,132.4,50.7"/>
	<path class="st0" d="M148,62c-2.7,0-4.8-0.7-6.3-2.2c-1.5-1.5-2.3-3.6-2.3-6.3c0-2.8,0.7-5,2.1-6.5c1.4-1.5,3.3-2.3,5.8-2.3
		c2.4,0,4.2,0.7,5.5,2c1.3,1.3,2,3.2,2,5.6v2.2h-10.8c0.1,1.3,0.4,2.3,1.2,3c0.7,0.7,1.7,1.1,3,1.1c1,0,2-0.1,2.9-0.3
		c0.9-0.2,1.8-0.5,2.8-1v3.5c-0.8,0.4-1.6,0.7-2.6,0.9C150.4,61.9,149.3,62,148,62 M147.4,48c-1,0-1.7,0.3-2.3,0.9
		c-0.5,0.6-0.9,1.5-0.9,2.6h6.4c0-1.1-0.3-2-0.9-2.6C149.1,48.3,148.4,48,147.4,48"/>
	<path class="st0" d="M161.8,61.7L155.4,45h4.8l3.2,9.5c0.4,1.2,0.6,2.3,0.7,3.4h0.1c0-1,0.3-2.1,0.7-3.4L168,45h4.8l-6.4,16.7
		H161.8z"/>
	<path class="st0" d="M182,62c-2.7,0-4.8-0.7-6.3-2.2c-1.5-1.5-2.3-3.6-2.3-6.3c0-2.8,0.7-5,2.1-6.5c1.4-1.5,3.3-2.3,5.8-2.3
		c2.4,0,4.2,0.7,5.5,2c1.3,1.3,2,3.2,2,5.6v2.2H178c0,1.3,0.4,2.3,1.2,3c0.7,0.7,1.7,1.1,3,1.1c1,0,2-0.1,2.8-0.3
		c0.9-0.2,1.8-0.5,2.8-1v3.5c-0.8,0.4-1.6,0.7-2.6,0.9C184.4,61.9,183.3,62,182,62 M181.3,48c-1,0-1.7,0.3-2.3,0.9
		c-0.5,0.6-0.9,1.5-0.9,2.6h6.4c0-1.1-0.3-2-0.9-2.6C183.1,48.3,182.3,48,181.3,48"/>
</g>
<polygon class="st1" points="195.4,53.2 190,45 195.1,45 198.4,50.4 201.7,45 206.8,45 201.4,53.2 207.1,61.7 201.9,61.7 198.4,56
	194.9,61.7 189.7,61.7 "/>
<g>
	<defs>
		<rect id="SVGID_3_" x="34.4" y="28.1" width="249.3" height="45.1"/>
	</defs>
	<clipPath id="SVGID_4_">
		<use xlink:href="#SVGID_3_"  style="overflow:visible;"/>
	</clipPath>
	<path class="st2" d="M218.6,62c-2,0-3.5-0.7-4.6-2.1h-0.2c0.2,1.4,0.2,2.2,0.2,2.4v6.8h-4.6V45h3.7l0.6,2.2h0.2
		c1.1-1.7,2.6-2.5,4.7-2.5c2,0,3.5,0.8,4.6,2.3c1.1,1.5,1.7,3.6,1.7,6.3c0,1.8-0.3,3.3-0.8,4.6c-0.5,1.3-1.3,2.3-2.2,3
		C221,61.7,219.9,62,218.6,62 M217.2,48.4c-1.1,0-1.9,0.3-2.5,1s-0.8,1.8-0.8,3.4v0.5c0,1.8,0.3,3.1,0.8,3.9
		c0.5,0.8,1.4,1.2,2.5,1.2c2,0,3.1-1.7,3.1-5c0-1.6-0.3-2.9-0.8-3.7C219.1,48.8,218.3,48.4,217.2,48.4"/>
	<path class="st2" d="M235.6,62c-2.7,0-4.8-0.7-6.3-2.2c-1.5-1.5-2.3-3.6-2.3-6.3c0-2.8,0.7-5,2.1-6.5c1.4-1.5,3.3-2.3,5.8-2.3
		c2.4,0,4.2,0.7,5.5,2c1.3,1.3,2,3.2,2,5.6v2.2h-10.8c0,1.3,0.4,2.3,1.1,3c0.7,0.7,1.7,1.1,3,1.1c1,0,2-0.1,2.8-0.3
		c0.9-0.2,1.8-0.5,2.8-1v3.5c-0.8,0.4-1.6,0.7-2.6,0.9C238,61.9,236.9,62,235.6,62 M235,48c-1,0-1.7,0.3-2.3,0.9
		c-0.5,0.6-0.9,1.5-0.9,2.6h6.4c0-1.1-0.3-2-0.9-2.6C236.7,48.3,235.9,48,235,48"/>
	<path class="st2" d="M254.2,44.7c0.6,0,1.1,0,1.5,0.1l-0.3,4.3c-0.4-0.1-0.8-0.1-1.3-0.1c-1.5,0-2.6,0.4-3.4,1.1
		c-0.8,0.7-1.2,1.8-1.2,3.1v8.5h-4.6V45h3.4l0.7,2.8h0.2c0.5-0.9,1.2-1.7,2.1-2.3C252.3,45,253.2,44.7,254.2,44.7"/>
	<path class="st2" d="M266.1,58.4c0.8,0,1.8-0.2,2.9-0.5v3.4c-1.1,0.5-2.5,0.8-4.2,0.8c-1.8,0-3.1-0.5-4-1.4
		c-0.8-0.9-1.2-2.3-1.2-4.1v-8h-2.2v-1.9l2.5-1.5l1.3-3.5h2.9V45h4.7v3.4h-4.7v8c0,0.6,0.2,1.1,0.5,1.4
		C265,58.3,265.5,58.4,266.1,58.4"/>
	<path class="st2" d="M283.7,56.8c0,1.7-0.6,3-1.8,3.9c-1.2,0.9-3,1.3-5.3,1.3c-1.2,0-2.2-0.1-3.1-0.2c-0.9-0.2-1.7-0.4-2.4-0.7
		v-3.8c0.8,0.4,1.8,0.7,2.9,1c1.1,0.3,2,0.4,2.8,0.4c1.7,0,2.5-0.5,2.5-1.4c0-0.4-0.1-0.6-0.3-0.9c-0.2-0.2-0.6-0.5-1.1-0.8
		c-0.5-0.3-1.3-0.6-2.1-1c-1.3-0.5-2.2-1-2.8-1.5c-0.6-0.5-1-1-1.3-1.6c-0.3-0.6-0.4-1.3-0.4-2.2c0-1.5,0.6-2.6,1.7-3.4
		c1.1-0.8,2.8-1.2,4.9-1.2c2,0,4,0.4,5.9,1.3l-1.4,3.3c-0.8-0.4-1.6-0.7-2.3-0.9c-0.7-0.2-1.5-0.3-2.2-0.3c-1.3,0-2,0.4-2,1.1
		c0,0.4,0.2,0.8,0.6,1.1c0.4,0.3,1.4,0.7,2.8,1.3c1.3,0.5,2.3,1,2.9,1.5c0.6,0.5,1.1,1,1.3,1.6C283.6,55.2,283.7,56,283.7,56.8"/>
</g>
</svg>
