<svg width="260" height="31" viewBox="0 0 260 31" fill="none" xmlns="http://www.w3.org/2000/svg">
<mask id="mask0_8_105" style="mask-type:luminance" maskUnits="userSpaceOnUse" x="0" y="0" width="260" height="31">
<path d="M0.417671 18.3614L0 22.1205L0.417671 25.8795C0.417671 26.0883 0.626506 26.0883 0.626506 26.0883C0.835341 26.0883 0.835341 25.8795 0.835341 25.8795L1.46185 22.1205L0.835341 18.3614C0.835341 18.1526 0.626506 18.1526 0.626506 18.1526C0.626506 18.1526 0.417671 18.1526 0.417671 18.3614ZM2.92369 16.0642L2.29719 22.1205L2.92369 28.1767C2.92369 28.3855 3.13253 28.3855 3.13253 28.3855C3.34137 28.3855 3.34137 28.1767 3.34137 28.1767L4.17671 22.1205L3.34137 16.0642C3.34137 15.8554 3.13253 15.8554 3.13253 15.8554L2.92369 16.0642ZM10.8594 15.2289L10.4418 22.1205L10.8594 29.4297C10.8594 29.6385 11.0683 29.8474 11.2771 29.8474C11.4859 29.8474 11.6948 29.6385 11.6948 29.4297L12.5301 22.1205L11.9036 15.2289C11.9036 15.0201 11.6948 14.8112 11.4859 14.8112C11.0683 14.8112 10.8594 15.0201 10.8594 15.2289ZM5.63855 14.8112L5.01205 22.1205L5.63855 29.012C5.63855 29.2209 5.84739 29.4297 6.05622 29.4297C6.05622 29.4297 6.26506 29.2209 6.26506 29.012L6.89157 22.1205L6.26506 14.8112C6.26506 14.6024 6.05622 14.3935 5.84739 14.3935C5.84739 14.6024 5.63855 14.6024 5.63855 14.8112ZM8.14458 14.6024L7.51807 22.1205L8.14458 29.2209C8.14458 29.4297 8.35341 29.6385 8.56225 29.6385C8.77108 29.6385 8.97992 29.4297 8.97992 29.2209L9.60643 22.1205L8.97992 14.6024C8.97992 14.3935 8.77108 14.1847 8.56225 14.1847C8.35341 14.1847 8.35341 14.3935 8.14458 14.6024ZM13.5743 10.8433L12.9478 22.1205L13.5743 29.4297C13.5743 29.6385 13.7831 29.8474 13.992 29.8474C14.4096 29.8474 14.6185 29.6385 14.6185 29.4297L15.245 22.1205L14.6185 10.8433C14.6185 10.6345 14.4096 10.4257 14.2008 10.4257C13.7831 10.4257 13.5743 10.6345 13.5743 10.8433ZM16.2892 8.33732L15.8715 22.1205L16.2892 29.4297C16.2892 29.8474 16.498 30.0562 16.9157 30.0562C17.1245 30.0562 17.5422 29.8474 17.5422 29.4297L18.1687 22.1205L17.5422 8.33732C17.5422 7.91965 17.3333 7.71081 16.9157 7.71081C16.498 7.71081 16.2892 7.91965 16.2892 8.33732ZM145.141 7.50198V15.4377V19.6144C144.932 19.1968 144.305 18.1526 143.888 17.5261L137.205 7.50198H133.655V26.506H137.414V18.1526V13.9759C137.622 14.3935 138.249 15.4377 138.667 16.0642L145.558 26.506H148.9V7.50198H145.141ZM157.671 11.261H159.759C163.727 11.261 165.398 13.1405 165.398 17.1084C165.398 20.6586 163.518 22.9558 159.55 22.9558H157.671V11.261ZM153.912 26.506H159.55C164.353 26.506 169.365 23.7911 169.365 17.1084C169.365 10.2168 165.398 7.71081 159.968 7.71081H153.912V7.50198V26.506ZM191.293 7.50198V26.506H202.779V22.747H195.261V7.50198H191.293ZM248.514 11.261H250.602C254.57 11.261 256.241 13.1405 256.241 17.1084C256.241 20.6586 254.361 22.9558 250.394 22.9558H248.514V11.261ZM244.755 26.506H250.394C254.57 26.506 258.956 24.4176 260 19.4056V14.6024C259.165 9.59033 255.614 7.71081 250.811 7.71081H244.755V7.50198V26.506ZM76.2249 12.9317C76.2249 16.6907 78.7309 17.7349 82.0723 18.5703C85.6225 19.4056 86.249 19.8233 86.249 21.0763C86.249 22.5381 85.2048 23.1646 82.9076 23.1646C81.0281 23.1646 79.3574 22.5381 78.1044 21.0763L75.3896 23.5823C76.8514 25.6707 79.5663 27.1325 82.6988 27.1325C87.9197 27.1325 90.2169 24.6265 90.2169 21.0763C90.2169 16.8996 86.8755 15.8554 83.9518 15.2289C81.0281 14.6024 80.1928 14.1847 80.1928 12.9317C80.1928 12.0964 80.8193 11.261 82.9076 11.261C84.5783 11.261 86.0402 11.8875 87.2932 13.1405L90.008 10.4257C88.1285 8.54615 86.0402 7.50198 83.1165 7.50198C82.9076 7.50198 82.6988 7.50198 82.49 7.50198C78.9398 7.50198 76.2249 9.59033 76.2249 12.9317ZM97.1084 17.1084C97.1084 13.767 98.3614 11.0522 101.494 11.0522C104.627 11.0522 105.88 13.767 105.88 17.1084C105.88 20.4498 104.627 23.1646 101.494 23.1646C98.3614 23.1646 97.1084 20.4498 97.1084 17.1084ZM93.1406 17.1084C93.1406 22.9558 96.2731 26.9237 101.285 26.9237C106.506 26.9237 109.639 22.9558 109.639 17.1084C109.639 11.261 106.506 7.29314 101.285 7.29314C96.2731 7.29314 93.1406 11.261 93.1406 17.1084ZM125.092 7.29314V18.1526C125.092 21.2851 123.631 23.1646 121.124 23.1646C118.618 23.1646 117.157 21.2851 117.157 18.1526V7.50198H113.398V18.1526C113.398 23.5823 116.53 26.7148 121.124 26.7148C125.928 26.7148 128.851 23.5823 128.851 17.9437V7.29314H125.092ZM172.498 17.1084C172.498 23.1646 175.839 26.9237 180.851 26.9237C184.402 26.9237 186.49 25.253 187.952 22.5381L184.819 20.6586C183.775 22.3293 182.731 23.1646 181.06 23.1646C178.137 23.1646 176.466 20.6586 176.466 17.1084C176.466 13.5582 178.137 11.0522 180.851 11.0522C182.522 11.0522 183.566 11.8875 184.402 13.1405L187.952 11.4698C186.699 8.96383 184.61 7.29314 181.06 7.29314C176.048 7.29314 172.498 11.261 172.498 17.1084ZM208.418 17.1084C208.418 13.767 209.671 11.0522 212.803 11.0522C215.936 11.0522 217.189 13.767 217.189 17.1084C217.189 20.4498 215.936 23.1646 212.803 23.1646C209.671 23.1646 208.418 20.4498 208.418 17.1084ZM204.45 17.1084C204.45 22.9558 207.582 26.9237 212.594 26.9237C217.815 26.9237 220.739 22.9558 220.739 17.1084C220.739 11.261 217.606 7.29314 212.594 7.29314C207.582 7.29314 204.45 11.261 204.45 17.1084ZM236.193 7.29314V18.1526C236.193 21.2851 234.731 23.1646 232.225 23.1646C229.719 23.1646 228.257 21.2851 228.257 18.1526V7.50198H224.498V18.1526C224.498 23.5823 227.631 26.7148 232.225 26.7148C237.028 26.7148 239.952 23.5823 239.952 17.9437V7.29314H236.193ZM27.3574 7.71081L26.9398 22.1205L27.3574 29.012C27.3574 29.4297 27.7751 29.8474 28.1928 29.8474C28.6104 29.8474 29.0281 29.4297 29.0281 29.012L29.4458 22.1205L29.0281 7.50198C29.0281 7.08431 28.6104 6.66664 28.1928 6.66664C27.5663 6.87547 27.3574 7.08431 27.3574 7.71081ZM19.004 7.08431L18.5863 22.1205L19.004 29.2209C19.004 29.6385 19.2129 29.8474 19.6305 29.8474C20.0482 29.8474 20.257 29.6385 20.257 29.2209L20.6747 22.1205L20.257 7.08431C20.257 6.66664 20.0482 6.4578 19.6305 6.4578C19.2129 6.4578 19.004 6.87547 19.004 7.08431ZM24.4337 7.08431L24.0161 22.1205L24.4337 29.2209C24.4337 29.6385 24.8514 30.0562 25.2691 30.0562C25.6867 30.0562 26.1044 29.6385 26.1044 29.2209L26.5221 22.1205L26.1044 7.08431C26.1044 6.66664 25.6867 6.24897 25.2691 6.24897C24.8514 6.24897 24.4337 6.66664 24.4337 7.08431ZM21.7189 6.66664L21.3012 22.1205L21.7189 29.2209C21.7189 29.6385 21.9277 29.8474 22.3454 29.8474C22.7631 29.8474 22.9719 29.6385 22.9719 29.2209L23.3896 22.1205L22.9719 6.66664C22.9719 6.24897 22.5542 6.04013 22.3454 6.04013C22.1365 6.04013 21.7189 6.24897 21.7189 6.66664ZM30.0723 4.78712L29.6546 22.1205L30.0723 29.012C30.0723 29.4297 30.49 29.8474 30.9076 29.8474C31.3253 29.8474 31.743 29.4297 31.743 29.012L32.1606 22.1205L31.743 4.78712C31.743 4.36945 31.3253 3.95178 30.9076 3.95178C30.49 3.95178 30.0723 4.36945 30.0723 4.78712ZM32.996 3.32527L32.5783 22.1205L32.996 29.012C32.996 29.4297 33.4137 29.8474 33.8313 29.8474C34.249 29.8474 34.6667 29.4297 34.6667 29.012L35.0843 22.1205L34.6667 3.32527C34.6667 2.9076 34.249 2.48993 33.8313 2.48993H33.6225C33.2048 2.48993 32.996 2.9076 32.996 3.32527ZM36.3373 1.44575C35.7108 1.65459 35.502 1.86342 35.502 2.48993V29.012C35.502 29.4297 35.9197 29.8474 36.3373 30.0562H59.5181C64.1124 30.0562 67.8715 26.2972 67.8715 21.7028C67.8715 17.1084 64.1124 13.3494 59.5181 13.3494C58.4739 13.3494 57.2209 13.5582 56.3855 13.9759C55.759 6.4578 49.494 0.610413 41.7671 0.610413C41.3494 0.610413 41.1406 0.610413 40.7229 0.610413C39.261 0.610413 37.7992 1.02808 36.3373 1.44575Z" fill="white"/>
</mask>
<g mask="url(#mask0_8_105)">
<path d="M260 0.610413H0V30.0562H260V0.610413Z" fill="white"/>
</g>
</svg>
