<svg width="327" height="91" viewBox="0 0 327 91" fill="none" xmlns="http://www.w3.org/2000/svg">
<path d="M16.6023 70H0.784091L24.8864 0.181816H43.9091L67.9773 70H52.1591L34.6705 16.1364H34.125L16.6023 70ZM15.6136 42.5568H52.9773V54.0795H15.6136V42.5568ZM90.6307 39.7273V70H76.108V17.6364H89.9489V26.875H90.5625C91.7216 23.8295 93.6648 21.4205 96.392 19.6477C99.1193 17.8523 102.426 16.9545 106.312 16.9545C109.949 16.9545 113.119 17.75 115.824 19.3409C118.528 20.9318 120.631 23.2045 122.131 26.1591C123.631 29.0909 124.381 32.5909 124.381 36.6591V70H109.858V39.25C109.881 36.0455 109.063 33.5455 107.403 31.75C105.744 29.9318 103.46 29.0227 100.551 29.0227C98.5966 29.0227 96.8693 29.4432 95.3693 30.2841C93.892 31.125 92.733 32.3523 91.892 33.9659C91.0739 35.5568 90.6534 37.4773 90.6307 39.7273ZM159.418 90.7273C154.713 90.7273 150.679 90.0795 147.315 88.7841C143.974 87.5114 141.315 85.7727 139.338 83.5682C137.361 81.3636 136.077 78.8864 135.486 76.1364L148.918 74.3295C149.327 75.375 149.974 76.3523 150.861 77.2614C151.747 78.1705 152.918 78.8977 154.372 79.4432C155.849 80.0114 157.645 80.2955 159.759 80.2955C162.918 80.2955 165.52 79.5227 167.565 77.9773C169.634 76.4545 170.668 73.8977 170.668 70.3068V60.7273H170.054C169.418 62.1818 168.463 63.5568 167.19 64.8523C165.918 66.1477 164.281 67.2045 162.281 68.0227C160.281 68.8409 157.895 69.25 155.122 69.25C151.19 69.25 147.611 68.3409 144.384 66.5227C141.179 64.6818 138.622 61.875 136.713 58.1023C134.827 54.3068 133.884 49.5114 133.884 43.7159C133.884 37.7841 134.849 32.8295 136.781 28.8523C138.713 24.875 141.281 21.8977 144.486 19.9205C147.713 17.9432 151.247 16.9545 155.088 16.9545C158.02 16.9545 160.474 17.4545 162.452 18.4545C164.429 19.4318 166.02 20.6591 167.224 22.1364C168.452 23.5909 169.395 25.0227 170.054 26.4318H170.599V17.6364H185.02V70.5114C185.02 74.9659 183.929 78.6932 181.747 81.6932C179.565 84.6932 176.543 86.9432 172.679 88.4432C168.838 89.9659 164.418 90.7273 159.418 90.7273ZM159.724 58.3409C162.065 58.3409 164.043 57.7614 165.656 56.6023C167.293 55.4205 168.543 53.7386 169.406 51.5568C170.293 49.3523 170.736 46.7159 170.736 43.6477C170.736 40.5795 170.304 37.9205 169.44 35.6705C168.577 33.3977 167.327 31.6364 165.69 30.3864C164.054 29.1364 162.065 28.5114 159.724 28.5114C157.338 28.5114 155.327 29.1591 153.69 30.4545C152.054 31.7273 150.815 33.5 149.974 35.7727C149.134 38.0455 148.713 40.6705 148.713 43.6477C148.713 46.6705 149.134 49.2841 149.974 51.4886C150.838 53.6705 152.077 55.3636 153.69 56.5682C155.327 57.75 157.338 58.3409 159.724 58.3409ZM220.236 71.0227C214.94 71.0227 210.361 69.8977 206.497 67.6477C202.656 65.375 199.69 62.2159 197.599 58.1705C195.509 54.1023 194.463 49.3864 194.463 44.0227C194.463 38.6136 195.509 33.8864 197.599 29.8409C199.69 25.7727 202.656 22.6136 206.497 20.3636C210.361 18.0909 214.94 16.9545 220.236 16.9545C225.531 16.9545 230.099 18.0909 233.94 20.3636C237.804 22.6136 240.781 25.7727 242.872 29.8409C244.963 33.8864 246.009 38.6136 246.009 44.0227C246.009 49.3864 244.963 54.1023 242.872 58.1705C240.781 62.2159 237.804 65.375 233.94 67.6477C230.099 69.8977 225.531 71.0227 220.236 71.0227ZM220.304 59.7727C222.713 59.7727 224.724 59.0909 226.338 57.7273C227.952 56.3409 229.168 54.4545 229.986 52.0682C230.827 49.6818 231.247 46.9659 231.247 43.9205C231.247 40.875 230.827 38.1591 229.986 35.7727C229.168 33.3864 227.952 31.5 226.338 30.1136C224.724 28.7273 222.713 28.0341 220.304 28.0341C217.872 28.0341 215.827 28.7273 214.168 30.1136C212.531 31.5 211.293 33.3864 210.452 35.7727C209.634 38.1591 209.224 40.875 209.224 43.9205C209.224 46.9659 209.634 49.6818 210.452 52.0682C211.293 54.4545 212.531 56.3409 214.168 57.7273C215.827 59.0909 217.872 59.7727 220.304 59.7727ZM269.974 0.181816V70H255.452V0.181816H269.974ZM296.54 70.9886C293.199 70.9886 290.222 70.4091 287.608 69.25C284.994 68.0682 282.926 66.3295 281.403 64.0341C279.903 61.7159 279.153 58.8295 279.153 55.375C279.153 52.4659 279.688 50.0227 280.756 48.0455C281.824 46.0682 283.278 44.4773 285.119 43.2727C286.96 42.0682 289.051 41.1591 291.392 40.5455C293.756 39.9318 296.233 39.5 298.824 39.25C301.869 38.9318 304.324 38.6364 306.188 38.3636C308.051 38.0682 309.403 37.6364 310.244 37.0682C311.085 36.5 311.506 35.6591 311.506 34.5455V34.3409C311.506 32.1818 310.824 30.5114 309.46 29.3295C308.119 28.1477 306.21 27.5568 303.733 27.5568C301.119 27.5568 299.04 28.1364 297.494 29.2955C295.949 30.4318 294.926 31.8636 294.426 33.5909L280.994 32.5C281.676 29.3182 283.017 26.5682 285.017 24.25C287.017 21.9091 289.597 20.1136 292.756 18.8636C295.938 17.5909 299.619 16.9545 303.801 16.9545C306.71 16.9545 309.494 17.2955 312.153 17.9773C314.835 18.6591 317.21 19.7159 319.278 21.1477C321.369 22.5795 323.017 24.4205 324.222 26.6705C325.426 28.8977 326.028 31.5682 326.028 34.6818V70H312.256V62.7386H311.847C311.006 64.375 309.881 65.8182 308.472 67.0682C307.062 68.2955 305.369 69.2614 303.392 69.9659C301.415 70.6477 299.131 70.9886 296.54 70.9886ZM300.699 60.9659C302.835 60.9659 304.722 60.5455 306.358 59.7045C307.994 58.8409 309.278 57.6818 310.21 56.2273C311.142 54.7727 311.608 53.125 311.608 51.2841V45.7273C311.153 46.0227 310.528 46.2955 309.733 46.5455C308.96 46.7727 308.085 46.9886 307.108 47.1932C306.131 47.375 305.153 47.5455 304.176 47.7045C303.199 47.8409 302.312 47.9659 301.517 48.0795C299.813 48.3295 298.324 48.7273 297.051 49.2727C295.778 49.8182 294.79 50.5568 294.085 51.4886C293.381 52.3977 293.028 53.5341 293.028 54.8977C293.028 56.875 293.744 58.3864 295.176 59.4318C296.631 60.4545 298.472 60.9659 300.699 60.9659Z" fill="url(#paint0_linear_2_19)"/>
<defs>
<linearGradient id="paint0_linear_2_19" x1="35.2068" y1="6.719" x2="362.885" y2="93.1644" gradientUnits="userSpaceOnUse">
<stop stop-color="#FE2A2A"/>
<stop offset="1" stop-color="#F7931E"/>
</linearGradient>
</defs>
</svg>
