<svg width="580" height="40" viewBox="0 0 580 40" fill="none" xmlns="http://www.w3.org/2000/svg">
<path d="M0.735796 21.4972V17.4062L20.1676 8.42898V13.4716L6.3608 19.3949L6.51705 19.125V19.7784L6.3608 19.5085L20.1676 25.4318V30.4744L0.735796 21.4972ZM555.97 0.545453L546.595 35.375H542.092L551.467 0.545453H555.97ZM579.777 21.4972L560.345 30.4744V25.4318L574.152 19.5085L573.996 19.7784V19.125L574.152 19.3949L560.345 13.4716V8.42898L579.777 17.4062V21.4972Z" fill="url(#paint0_linear_9_533)"/>
<path d="M40.4411 31H34.8161L45.0575 1.90909H51.5632L61.8189 31H56.1939L48.424 7.875H48.1967L40.4411 31ZM40.6257 19.5938H55.9666V23.8267H40.6257V19.5938ZM70.5653 18.2159V31H65.4233V9.18182H70.3381V12.8892H70.5938C71.0956 11.6676 71.8958 10.697 72.9943 9.97727C74.1023 9.25758 75.4706 8.89773 77.0994 8.89773C78.6051 8.89773 79.9167 9.2197 81.0341 9.86364C82.161 10.5076 83.0322 11.4403 83.6477 12.6619C84.2727 13.8835 84.5805 15.3655 84.571 17.108V31H79.429V17.9034C79.429 16.4451 79.0502 15.304 78.2926 14.4801C77.5445 13.6562 76.5076 13.2443 75.1818 13.2443C74.2822 13.2443 73.482 13.4432 72.7812 13.8409C72.09 14.2292 71.5455 14.7926 71.1477 15.5312C70.7595 16.2699 70.5653 17.1648 70.5653 18.2159ZM99.2869 39.6364C97.4403 39.6364 95.8542 39.3854 94.5284 38.8835C93.2027 38.3911 92.1373 37.7282 91.3324 36.8949C90.5275 36.0616 89.9688 35.1383 89.6562 34.125L94.2869 33.0028C94.4953 33.429 94.7983 33.8504 95.196 34.267C95.5938 34.6932 96.1288 35.0436 96.8011 35.3182C97.483 35.6023 98.34 35.7443 99.3722 35.7443C100.83 35.7443 102.038 35.3892 102.994 34.679C103.951 33.9782 104.429 32.8229 104.429 31.2131V27.0795H104.173C103.908 27.6098 103.52 28.1544 103.009 28.7131C102.507 29.2718 101.839 29.7405 101.006 30.1193C100.182 30.4981 99.1449 30.6875 97.8949 30.6875C96.2188 30.6875 94.6989 30.2945 93.3352 29.5085C91.9811 28.7131 90.9015 27.5294 90.0966 25.9574C89.3011 24.3759 88.9034 22.3968 88.9034 20.0199C88.9034 17.6241 89.3011 15.6023 90.0966 13.9545C90.9015 12.2973 91.9858 11.0426 93.3494 10.1903C94.7131 9.3286 96.233 8.89773 97.9091 8.89773C99.1875 8.89773 100.239 9.11553 101.062 9.55114C101.896 9.97727 102.559 10.4934 103.051 11.0994C103.544 11.696 103.918 12.2595 104.173 12.7898H104.457V9.18182H109.528V31.3551C109.528 33.2206 109.083 34.7642 108.193 35.9858C107.303 37.2074 106.086 38.1212 104.543 38.7273C102.999 39.3333 101.247 39.6364 99.2869 39.6364ZM99.3295 26.6534C100.419 26.6534 101.347 26.3883 102.114 25.858C102.881 25.3277 103.463 24.5653 103.861 23.571C104.259 22.5767 104.457 21.3835 104.457 19.9915C104.457 18.6184 104.259 17.4157 103.861 16.3835C103.473 15.3513 102.895 14.5511 102.128 13.983C101.37 13.4053 100.438 13.1165 99.3295 13.1165C98.1837 13.1165 97.2273 13.4148 96.4602 14.0114C95.6932 14.608 95.1155 15.4271 94.7273 16.4688C94.339 17.5009 94.1449 18.6752 94.1449 19.9915C94.1449 21.3267 94.339 22.4962 94.7273 23.5C95.125 24.4943 95.7074 25.2708 96.4744 25.8295C97.2509 26.3788 98.2027 26.6534 99.3295 26.6534ZM124.315 31.4261C122.185 31.4261 120.338 30.9574 118.776 30.0199C117.213 29.0824 116.001 27.7708 115.139 26.0852C114.287 24.3996 113.861 22.4299 113.861 20.1761C113.861 17.9223 114.287 15.9479 115.139 14.2528C116.001 12.5578 117.213 11.2415 118.776 10.304C120.338 9.36648 122.185 8.89773 124.315 8.89773C126.446 8.89773 128.293 9.36648 129.855 10.304C131.418 11.2415 132.625 12.5578 133.477 14.2528C134.339 15.9479 134.77 17.9223 134.77 20.1761C134.77 22.4299 134.339 24.3996 133.477 26.0852C132.625 27.7708 131.418 29.0824 129.855 30.0199C128.293 30.9574 126.446 31.4261 124.315 31.4261ZM124.344 27.3068C125.499 27.3068 126.465 26.9896 127.241 26.3551C128.018 25.7112 128.596 24.8494 128.974 23.7699C129.363 22.6903 129.557 21.4877 129.557 20.1619C129.557 18.8267 129.363 17.6193 128.974 16.5398C128.596 15.4508 128.018 14.5843 127.241 13.9403C126.465 13.2964 125.499 12.9744 124.344 12.9744C123.16 12.9744 122.175 13.2964 121.389 13.9403C120.613 14.5843 120.03 15.4508 119.642 16.5398C119.263 17.6193 119.074 18.8267 119.074 20.1619C119.074 21.4877 119.263 22.6903 119.642 23.7699C120.03 24.8494 120.613 25.7112 121.389 26.3551C122.175 26.9896 123.16 27.3068 124.344 27.3068ZM144.276 1.90909V31H139.134V1.90909H144.276ZM155.842 31.4403C154.46 31.4403 153.214 31.1941 152.107 30.7017C151.008 30.1998 150.137 29.4612 149.493 28.4858C148.858 27.5104 148.541 26.3078 148.541 24.8778C148.541 23.6468 148.768 22.6288 149.223 21.8239C149.678 21.0189 150.298 20.375 151.084 19.892C151.87 19.4091 152.755 19.0445 153.74 18.7983C154.734 18.5426 155.762 18.358 156.822 18.2443C158.101 18.1117 159.138 17.9934 159.933 17.8892C160.729 17.7756 161.306 17.6051 161.666 17.3778C162.036 17.1411 162.22 16.7765 162.22 16.2841V16.1989C162.22 15.1288 161.903 14.3002 161.268 13.7131C160.634 13.1259 159.72 12.8324 158.527 12.8324C157.268 12.8324 156.268 13.107 155.53 13.6562C154.801 14.2055 154.308 14.8542 154.053 15.6023L149.251 14.9205C149.63 13.5947 150.255 12.4867 151.126 11.5966C151.998 10.697 153.063 10.0246 154.322 9.57955C155.582 9.125 156.974 8.89773 158.499 8.89773C159.55 8.89773 160.596 9.02083 161.638 9.26705C162.679 9.51326 163.631 9.92045 164.493 10.4886C165.355 11.0473 166.046 11.8097 166.567 12.7756C167.097 13.7415 167.362 14.9489 167.362 16.3977V31H162.419V28.0028H162.249C161.936 28.6089 161.496 29.1771 160.928 29.7074C160.369 30.2282 159.663 30.6496 158.811 30.9716C157.968 31.2841 156.979 31.4403 155.842 31.4403ZM157.178 27.6619C158.21 27.6619 159.105 27.4583 159.862 27.0511C160.62 26.6345 161.202 26.0852 161.609 25.4034C162.026 24.7216 162.234 23.9782 162.234 23.1733V20.6023C162.073 20.7348 161.799 20.858 161.411 20.9716C161.032 21.0852 160.606 21.1847 160.132 21.2699C159.659 21.3551 159.19 21.4309 158.726 21.4972C158.262 21.5634 157.859 21.6203 157.518 21.6676C156.751 21.7718 156.065 21.9422 155.459 22.179C154.853 22.4157 154.375 22.7472 154.024 23.1733C153.674 23.59 153.499 24.1297 153.499 24.7926C153.499 25.7396 153.844 26.4545 154.536 26.9375C155.227 27.4205 156.107 27.6619 157.178 27.6619ZM208.676 16.4545C208.676 19.589 208.089 22.2737 206.915 24.5085C205.75 26.7339 204.159 28.4384 202.142 29.6222C200.134 30.8059 197.857 31.3977 195.31 31.3977C192.762 31.3977 190.48 30.8059 188.463 29.6222C186.455 28.429 184.865 26.7197 183.69 24.4943C182.526 22.2595 181.943 19.5795 181.943 16.4545C181.943 13.3201 182.526 10.6402 183.69 8.41477C184.865 6.17992 186.455 4.47064 188.463 3.28693C190.48 2.10322 192.762 1.51136 195.31 1.51136C197.857 1.51136 200.134 2.10322 202.142 3.28693C204.159 4.47064 205.75 6.17992 206.915 8.41477C208.089 10.6402 208.676 13.3201 208.676 16.4545ZM203.378 16.4545C203.378 14.2481 203.032 12.3873 202.341 10.8722C201.659 9.34754 200.712 8.19697 199.5 7.42045C198.288 6.63447 196.891 6.24148 195.31 6.24148C193.728 6.24148 192.331 6.63447 191.119 7.42045C189.907 8.19697 188.955 9.34754 188.264 10.8722C187.582 12.3873 187.241 14.2481 187.241 16.4545C187.241 18.661 187.582 20.5265 188.264 22.0511C188.955 23.5663 189.907 24.7169 191.119 25.5028C192.331 26.2794 193.728 26.6676 195.31 26.6676C196.891 26.6676 198.288 26.2794 199.5 25.5028C200.712 24.7169 201.659 23.5663 202.341 22.0511C203.032 20.5265 203.378 18.661 203.378 16.4545ZM213.431 39.1818V9.18182H218.488V12.7898H218.786C219.051 12.2595 219.425 11.696 219.908 11.0994C220.391 10.4934 221.045 9.97727 221.869 9.55114C222.692 9.11553 223.744 8.89773 225.022 8.89773C226.708 8.89773 228.228 9.3286 229.582 10.1903C230.945 11.0426 232.025 12.3068 232.82 13.983C233.625 15.6496 234.028 17.6951 234.028 20.1193C234.028 22.5152 233.635 24.5511 232.849 26.2273C232.063 27.9034 230.993 29.1818 229.638 30.0625C228.284 30.9432 226.75 31.3835 225.036 31.3835C223.786 31.3835 222.749 31.1752 221.925 30.7585C221.102 30.3419 220.439 29.84 219.937 29.2528C219.444 28.6562 219.061 28.0928 218.786 27.5625H218.573V39.1818H213.431ZM218.474 20.0909C218.474 21.5019 218.673 22.7377 219.07 23.7983C219.478 24.8589 220.06 25.6875 220.817 26.2841C221.585 26.8712 222.513 27.1648 223.602 27.1648C224.738 27.1648 225.69 26.8617 226.457 26.2557C227.224 25.6402 227.801 24.8021 228.19 23.7415C228.587 22.6714 228.786 21.4545 228.786 20.0909C228.786 18.7367 228.592 17.5341 228.204 16.483C227.816 15.4318 227.238 14.608 226.471 14.0114C225.704 13.4148 224.747 13.1165 223.602 13.1165C222.503 13.1165 221.57 13.4053 220.803 13.983C220.036 14.5606 219.454 15.3703 219.056 16.4119C218.668 17.4536 218.474 18.6799 218.474 20.0909ZM248.09 31.4261C245.903 31.4261 244.013 30.9716 242.423 30.0625C240.841 29.1439 239.624 27.8466 238.772 26.1705C237.92 24.4848 237.494 22.5009 237.494 20.2188C237.494 17.9744 237.92 16.0047 238.772 14.3097C239.634 12.6051 240.836 11.2794 242.38 10.3324C243.924 9.37595 245.737 8.89773 247.82 8.89773C249.165 8.89773 250.434 9.11553 251.627 9.55114C252.83 9.97727 253.89 10.6402 254.809 11.5398C255.737 12.4394 256.466 13.5852 256.996 14.9773C257.527 16.3598 257.792 18.0076 257.792 19.9205V21.4972H239.908V18.0312H252.863C252.853 17.0464 252.64 16.1705 252.224 15.4034C251.807 14.6269 251.225 14.0161 250.477 13.571C249.738 13.1259 248.876 12.9034 247.891 12.9034C246.84 12.9034 245.917 13.1591 245.121 13.6705C244.326 14.1723 243.706 14.8352 243.261 15.6591C242.825 16.4735 242.603 17.3684 242.593 18.3438V21.3693C242.593 22.6383 242.825 23.7273 243.289 24.6364C243.753 25.536 244.402 26.2273 245.235 26.7102C246.068 27.1837 247.044 27.4205 248.161 27.4205C248.909 27.4205 249.586 27.3163 250.192 27.108C250.799 26.8902 251.324 26.5729 251.769 26.1562C252.214 25.7396 252.55 25.2235 252.778 24.608L257.579 25.1477C257.276 26.4167 256.698 27.5246 255.846 28.4716C255.003 29.4091 253.924 30.1383 252.607 30.6591C251.291 31.1705 249.785 31.4261 248.09 31.4261ZM267.284 18.2159V31H262.142V9.18182H267.057V12.8892H267.312C267.814 11.6676 268.615 10.697 269.713 9.97727C270.821 9.25758 272.189 8.89773 273.818 8.89773C275.324 8.89773 276.635 9.2197 277.753 9.86364C278.88 10.5076 279.751 11.4403 280.366 12.6619C280.991 13.8835 281.299 15.3655 281.29 17.108V31H276.148V17.9034C276.148 16.4451 275.769 15.304 275.011 14.4801C274.263 13.6562 273.226 13.2443 271.901 13.2443C271.001 13.2443 270.201 13.4432 269.5 13.8409C268.809 14.2292 268.264 14.7926 267.866 15.5312C267.478 16.2699 267.284 17.1648 267.284 18.2159ZM299.741 16.767V21H286.645V16.767H299.741ZM321.187 9.90625C321.054 8.66572 320.496 7.69981 319.511 7.00852C318.535 6.31723 317.266 5.97159 315.704 5.97159C314.605 5.97159 313.663 6.13731 312.877 6.46875C312.091 6.80019 311.49 7.25 311.073 7.81818C310.656 8.38636 310.443 9.03504 310.434 9.7642C310.434 10.3703 310.571 10.8958 310.846 11.3409C311.13 11.786 311.513 12.1648 311.996 12.4773C312.479 12.7803 313.014 13.036 313.602 13.2443C314.189 13.4527 314.781 13.6278 315.377 13.7699L318.104 14.4517C319.203 14.7074 320.259 15.053 321.272 15.4886C322.295 15.9242 323.209 16.4735 324.013 17.1364C324.828 17.7992 325.472 18.5994 325.945 19.5369C326.419 20.4744 326.656 21.5729 326.656 22.8324C326.656 24.5369 326.22 26.0379 325.349 27.3352C324.478 28.6231 323.218 29.6316 321.57 30.3608C319.932 31.0805 317.948 31.4403 315.619 31.4403C313.355 31.4403 311.39 31.09 309.724 30.3892C308.067 29.6884 306.769 28.6657 305.832 27.321C304.904 25.9763 304.402 24.3381 304.326 22.4062H309.511C309.586 23.4195 309.899 24.2623 310.448 24.9347C310.997 25.607 311.712 26.1089 312.593 26.4403C313.483 26.7718 314.478 26.9375 315.576 26.9375C316.722 26.9375 317.726 26.767 318.587 26.4261C319.459 26.0758 320.14 25.5928 320.633 24.9773C321.125 24.3523 321.376 23.6231 321.386 22.7898C321.376 22.0322 321.154 21.4072 320.718 20.9148C320.282 20.4129 319.672 19.9962 318.886 19.6648C318.109 19.3239 317.2 19.0208 316.158 18.7557L312.849 17.9034C310.453 17.2879 308.559 16.3551 307.167 15.1051C305.784 13.8456 305.093 12.1742 305.093 10.0909C305.093 8.37689 305.557 6.87595 306.485 5.58807C307.423 4.30019 308.696 3.30114 310.306 2.59091C311.916 1.87121 313.739 1.51136 315.775 1.51136C317.839 1.51136 319.648 1.87121 321.201 2.59091C322.763 3.30114 323.99 4.29072 324.88 5.55966C325.77 6.81913 326.229 8.26799 326.258 9.90625H321.187ZM340.643 31.4261C338.513 31.4261 336.666 30.9574 335.104 30.0199C333.541 29.0824 332.329 27.7708 331.467 26.0852C330.615 24.3996 330.189 22.4299 330.189 20.1761C330.189 17.9223 330.615 15.9479 331.467 14.2528C332.329 12.5578 333.541 11.2415 335.104 10.304C336.666 9.36648 338.513 8.89773 340.643 8.89773C342.774 8.89773 344.621 9.36648 346.183 10.304C347.746 11.2415 348.953 12.5578 349.805 14.2528C350.667 15.9479 351.098 17.9223 351.098 20.1761C351.098 22.4299 350.667 24.3996 349.805 26.0852C348.953 27.7708 347.746 29.0824 346.183 30.0199C344.621 30.9574 342.774 31.4261 340.643 31.4261ZM340.672 27.3068C341.827 27.3068 342.793 26.9896 343.57 26.3551C344.346 25.7112 344.924 24.8494 345.303 23.7699C345.691 22.6903 345.885 21.4877 345.885 20.1619C345.885 18.8267 345.691 17.6193 345.303 16.5398C344.924 15.4508 344.346 14.5843 343.57 13.9403C342.793 13.2964 341.827 12.9744 340.672 12.9744C339.488 12.9744 338.503 13.2964 337.717 13.9403C336.941 14.5843 336.358 15.4508 335.97 16.5398C335.591 17.6193 335.402 18.8267 335.402 20.1619C335.402 21.4877 335.591 22.6903 335.97 23.7699C336.358 24.8494 336.941 25.7112 337.717 26.3551C338.503 26.9896 339.488 27.3068 340.672 27.3068ZM369.369 21.8239V9.18182H374.511V31H369.525V27.1222H369.298C368.805 28.3437 367.996 29.3428 366.869 30.1193C365.751 30.8958 364.373 31.2841 362.735 31.2841C361.305 31.2841 360.041 30.9669 358.942 30.3324C357.853 29.6884 357.001 28.7557 356.386 27.5341C355.77 26.303 355.462 24.8163 355.462 23.0739V9.18182H360.604V22.2784C360.604 23.661 360.983 24.7595 361.741 25.5739C362.498 26.3883 363.493 26.7955 364.724 26.7955C365.481 26.7955 366.215 26.6108 366.925 26.2415C367.636 25.8722 368.218 25.3229 368.673 24.5938C369.137 23.8551 369.369 22.9318 369.369 21.8239ZM379.798 31V9.18182H384.784V12.8182H385.011C385.409 11.5587 386.091 10.5881 387.057 9.90625C388.032 9.21496 389.145 8.86932 390.395 8.86932C390.679 8.86932 390.996 8.88352 391.347 8.91193C391.706 8.93087 392.005 8.96401 392.241 9.01136V13.7415C392.024 13.6657 391.678 13.5994 391.205 13.5426C390.741 13.4763 390.291 13.4432 389.855 13.4432C388.918 13.4432 388.075 13.6468 387.327 14.054C386.588 14.4517 386.006 15.0057 385.58 15.7159C385.153 16.4261 384.94 17.2453 384.94 18.1733V31H379.798ZM404.276 31.4261C402.098 31.4261 400.228 30.9479 398.665 29.9915C397.112 29.035 395.915 27.714 395.072 26.0284C394.238 24.3333 393.822 22.3826 393.822 20.1761C393.822 17.9602 394.248 16.0047 395.1 14.3097C395.952 12.6051 397.155 11.2794 398.708 10.3324C400.271 9.37595 402.117 8.89773 404.248 8.89773C406.019 8.89773 407.586 9.22443 408.95 9.87784C410.323 10.5218 411.416 11.4356 412.231 12.6193C413.045 13.7936 413.509 15.1667 413.623 16.7386H408.708C408.509 15.6875 408.036 14.8116 407.288 14.1108C406.549 13.4006 405.559 13.0455 404.319 13.0455C403.268 13.0455 402.344 13.3295 401.549 13.8977C400.754 14.4564 400.133 15.2614 399.688 16.3125C399.253 17.3636 399.035 18.6231 399.035 20.0909C399.035 21.5777 399.253 22.8561 399.688 23.9261C400.124 24.9867 400.735 25.8059 401.521 26.3835C402.316 26.9517 403.249 27.2358 404.319 27.2358C405.076 27.2358 405.754 27.0937 406.35 26.8097C406.956 26.5161 407.463 26.0947 407.87 25.5455C408.277 24.9962 408.557 24.3286 408.708 23.5426H413.623C413.5 25.0862 413.045 26.4545 412.259 27.6477C411.473 28.8314 410.403 29.7595 409.049 30.4318C407.695 31.0947 406.104 31.4261 404.276 31.4261ZM427.504 31.4261C425.317 31.4261 423.428 30.9716 421.837 30.0625C420.255 29.1439 419.038 27.8466 418.186 26.1705C417.334 24.4848 416.908 22.5009 416.908 20.2188C416.908 17.9744 417.334 16.0047 418.186 14.3097C419.048 12.6051 420.25 11.2794 421.794 10.3324C423.338 9.37595 425.151 8.89773 427.234 8.89773C428.579 8.89773 429.848 9.11553 431.041 9.55114C432.244 9.97727 433.304 10.6402 434.223 11.5398C435.151 12.4394 435.88 13.5852 436.411 14.9773C436.941 16.3598 437.206 18.0076 437.206 19.9205V21.4972H419.322V18.0312H432.277C432.268 17.0464 432.054 16.1705 431.638 15.4034C431.221 14.6269 430.639 14.0161 429.891 13.571C429.152 13.1259 428.29 12.9034 427.305 12.9034C426.254 12.9034 425.331 13.1591 424.536 13.6705C423.74 14.1723 423.12 14.8352 422.675 15.6591C422.239 16.4735 422.017 17.3684 422.007 18.3438V21.3693C422.007 22.6383 422.239 23.7273 422.703 24.6364C423.167 25.536 423.816 26.2273 424.649 26.7102C425.482 27.1837 426.458 27.4205 427.575 27.4205C428.323 27.4205 429 27.3163 429.607 27.108C430.213 26.8902 430.738 26.5729 431.183 26.1562C431.628 25.7396 431.964 25.2235 432.192 24.608L436.993 25.1477C436.69 26.4167 436.112 27.5246 435.26 28.4716C434.417 29.4091 433.338 30.1383 432.021 30.6591C430.705 31.1705 429.199 31.4261 427.504 31.4261ZM451.705 31V1.90909H470.342V6.3267H456.975V14.2244H469.063V18.642H456.975V31H451.705ZM482.973 31.4261C480.786 31.4261 478.896 30.9716 477.305 30.0625C475.724 29.1439 474.507 27.8466 473.655 26.1705C472.803 24.4848 472.376 22.5009 472.376 20.2188C472.376 17.9744 472.803 16.0047 473.655 14.3097C474.517 12.6051 475.719 11.2794 477.263 10.3324C478.806 9.37595 480.62 8.89773 482.703 8.89773C484.048 8.89773 485.317 9.11553 486.51 9.55114C487.713 9.97727 488.773 10.6402 489.692 11.5398C490.62 12.4394 491.349 13.5852 491.879 14.9773C492.41 16.3598 492.675 18.0076 492.675 19.9205V21.4972H474.791V18.0312H487.746C487.736 17.0464 487.523 16.1705 487.107 15.4034C486.69 14.6269 486.107 14.0161 485.359 13.571C484.621 13.1259 483.759 12.9034 482.774 12.9034C481.723 12.9034 480.8 13.1591 480.004 13.6705C479.209 14.1723 478.589 14.8352 478.143 15.6591C477.708 16.4735 477.485 17.3684 477.476 18.3438V21.3693C477.476 22.6383 477.708 23.7273 478.172 24.6364C478.636 25.536 479.285 26.2273 480.118 26.7102C480.951 27.1837 481.927 27.4205 483.044 27.4205C483.792 27.4205 484.469 27.3163 485.075 27.108C485.681 26.8902 486.207 26.5729 486.652 26.1562C487.097 25.7396 487.433 25.2235 487.661 24.608L492.462 25.1477C492.159 26.4167 491.581 27.5246 490.729 28.4716C489.886 29.4091 488.806 30.1383 487.49 30.6591C486.174 31.1705 484.668 31.4261 482.973 31.4261ZM514.269 14.9489L509.582 15.4602C509.449 14.9867 509.217 14.5417 508.886 14.125C508.564 13.7083 508.128 13.3722 507.579 13.1165C507.03 12.8608 506.357 12.733 505.562 12.733C504.492 12.733 503.592 12.965 502.863 13.429C502.143 13.893 501.788 14.4943 501.798 15.233C501.788 15.8674 502.02 16.3835 502.494 16.7812C502.977 17.179 503.772 17.5057 504.88 17.7614L508.602 18.5568C510.666 19.0019 512.2 19.7074 513.204 20.6733C514.217 21.6392 514.728 22.9034 514.738 24.4659C514.728 25.839 514.326 27.0511 513.531 28.1023C512.745 29.1439 511.651 29.9583 510.249 30.5455C508.848 31.1326 507.238 31.4261 505.42 31.4261C502.749 31.4261 500.6 30.8674 498.971 29.75C497.342 28.6231 496.371 27.0559 496.059 25.0483L501.073 24.5653C501.3 25.5502 501.783 26.2936 502.522 26.7955C503.261 27.2973 504.222 27.5483 505.406 27.5483C506.627 27.5483 507.607 27.2973 508.346 26.7955C509.094 26.2936 509.468 25.6733 509.468 24.9347C509.468 24.3097 509.227 23.7936 508.744 23.3864C508.27 22.9792 507.531 22.6667 506.528 22.4489L502.806 21.6676C500.713 21.232 499.165 20.4981 498.161 19.4659C497.157 18.4242 496.66 17.108 496.67 15.517C496.66 14.1723 497.025 13.0076 497.763 12.0227C498.512 11.0284 499.549 10.2614 500.874 9.72159C502.21 9.17235 503.748 8.89773 505.491 8.89773C508.048 8.89773 510.06 9.44223 511.528 10.5312C513.005 11.6203 513.919 13.0928 514.269 14.9489ZM529.873 9.18182V13.1591H517.33V9.18182H529.873ZM520.427 3.95455H525.569V24.4375C525.569 25.1288 525.673 25.6591 525.881 26.0284C526.099 26.3883 526.383 26.6345 526.734 26.767C527.084 26.8996 527.472 26.9659 527.898 26.9659C528.22 26.9659 528.514 26.9422 528.779 26.8949C529.054 26.8475 529.262 26.8049 529.404 26.767L530.271 30.7869C529.996 30.8816 529.603 30.9858 529.092 31.0994C528.59 31.2131 527.974 31.2794 527.245 31.2983C525.957 31.3362 524.797 31.142 523.765 30.7159C522.733 30.2803 521.914 29.608 521.308 28.6989C520.711 27.7898 520.417 26.6534 520.427 25.2898V3.95455Z" fill="white"/>
<defs>
<linearGradient id="paint0_linear_9_533" x1="61.7053" y1="4.29752" x2="334.713" y2="311.114" gradientUnits="userSpaceOnUse">
<stop stop-color="#FE2A2A"/>
<stop offset="1" stop-color="#F7931E"/>
</linearGradient>
</defs>
</svg>
