<svg width="172" height="21" viewBox="0 0 172 21" fill="none" xmlns="http://www.w3.org/2000/svg">
<path d="M0.434659 20V5.45455H9.89489V7.66335H3.0696V11.6122H9.40483V13.821H3.0696V17.7912H9.9517V20H0.434659ZM24.5362 5.45455V20H22.1925L15.3388 10.0923H15.218V20H12.5831V5.45455H14.9411L21.7876 15.3693H21.9155V5.45455H24.5362ZM26.7681 7.66335V5.45455H38.3732V7.66335H33.8775V20H31.2638V7.66335H26.7681ZM40.6104 20V5.45455H46.065C47.1824 5.45455 48.1199 5.64867 48.8775 6.03693C49.6398 6.42519 50.2151 6.9697 50.6033 7.67045C50.9963 8.36648 51.1928 9.1785 51.1928 10.1065C51.1928 11.0393 50.994 11.849 50.5962 12.5355C50.2032 13.2173 49.6232 13.7453 48.8562 14.1193C48.0891 14.4886 47.1469 14.6733 46.0295 14.6733H42.1445V12.4858H45.6744C46.3278 12.4858 46.8628 12.3958 47.2795 12.2159C47.6961 12.0312 48.0039 11.7637 48.2028 11.4134C48.4064 11.0582 48.5082 10.6226 48.5082 10.1065C48.5082 9.59044 48.4064 9.15009 48.2028 8.78551C47.9992 8.41619 47.689 8.13684 47.2724 7.94744C46.8557 7.75331 46.3183 7.65625 45.6602 7.65625H43.2454V20H40.6104ZM48.1246 13.4091L51.7255 20H48.7852L45.2482 13.4091H48.1246ZM55.4862 20H52.6737L57.7944 5.45455H61.0472L66.1751 20H63.3626L59.4776 8.4375H59.364L55.4862 20ZM55.5785 14.2969H63.2489V16.4134H55.5785V14.2969ZM73.0199 20H68.0909V5.45455H73.1193C74.5634 5.45455 75.804 5.74574 76.8409 6.32812C77.8826 6.90578 78.6828 7.73674 79.2415 8.82102C79.8002 9.9053 80.0795 11.2027 80.0795 12.7131C80.0795 14.2282 79.7978 15.5303 79.2344 16.6193C78.6757 17.7083 77.8684 18.544 76.8125 19.1264C75.7614 19.7088 74.4972 20 73.0199 20ZM70.7259 17.7202H72.892C73.9053 17.7202 74.7505 17.5355 75.4276 17.1662C76.1046 16.7921 76.6136 16.2358 76.9545 15.4972C77.2955 14.7538 77.4659 13.8258 77.4659 12.7131C77.4659 11.6004 77.2955 10.6771 76.9545 9.94318C76.6136 9.20455 76.1094 8.65294 75.4418 8.28835C74.7789 7.91903 73.955 7.73438 72.9702 7.73438H70.7259V17.7202ZM83.6697 20H80.8572L85.978 5.45455H89.2308L94.3587 20H91.5462L87.6612 8.4375H87.5476L83.6697 20ZM83.7621 14.2969H91.4325V16.4134H83.7621V14.2969ZM110.98 10.0994C110.861 9.71591 110.698 9.37263 110.49 9.0696C110.286 8.76184 110.04 8.49905 109.751 8.28125C109.467 8.06345 109.14 7.90009 108.771 7.79119C108.402 7.67756 107.999 7.62074 107.564 7.62074C106.782 7.62074 106.086 7.81723 105.475 8.21023C104.865 8.60322 104.384 9.18087 104.034 9.94318C103.688 10.7008 103.515 11.6241 103.515 12.7131C103.515 13.8116 103.688 14.742 104.034 15.5043C104.379 16.2666 104.86 16.8466 105.475 17.2443C106.091 17.6373 106.806 17.8338 107.62 17.8338C108.359 17.8338 108.998 17.6918 109.538 17.4077C110.083 17.1236 110.502 16.7211 110.795 16.2003C111.089 15.6747 111.235 15.0592 111.235 14.3537L111.832 14.446H107.883V12.3864H113.785V14.1335C113.785 15.3788 113.52 16.456 112.99 17.3651C112.459 18.2741 111.73 18.9749 110.802 19.4673C109.874 19.955 108.809 20.1989 107.606 20.1989C106.266 20.1989 105.09 19.8982 104.076 19.2969C103.068 18.6908 102.279 17.8314 101.711 16.7188C101.148 15.6013 100.866 14.2756 100.866 12.7415C100.866 11.5672 101.032 10.5185 101.363 9.59517C101.699 8.67188 102.168 7.88826 102.77 7.24432C103.371 6.59564 104.076 6.10322 104.886 5.76705C105.696 5.42614 106.576 5.25568 107.528 5.25568C108.333 5.25568 109.083 5.37405 109.779 5.6108C110.475 5.8428 111.093 6.17424 111.633 6.60511C112.178 7.03598 112.625 7.54735 112.975 8.1392C113.326 8.73106 113.556 9.38447 113.664 10.0994H110.98ZM116.333 20V5.45455H121.788C122.905 5.45455 123.843 5.64867 124.6 6.03693C125.362 6.42519 125.938 6.9697 126.326 7.67045C126.719 8.36648 126.915 9.1785 126.915 10.1065C126.915 11.0393 126.717 11.849 126.319 12.5355C125.926 13.2173 125.346 13.7453 124.579 14.1193C123.812 14.4886 122.87 14.6733 121.752 14.6733H117.867V12.4858H121.397C122.05 12.4858 122.585 12.3958 123.002 12.2159C123.419 12.0312 123.727 11.7637 123.925 11.4134C124.129 11.0582 124.231 10.6226 124.231 10.1065C124.231 9.59044 124.129 9.15009 123.925 8.78551C123.722 8.41619 123.412 8.13684 122.995 7.94744C122.578 7.75331 122.041 7.65625 121.383 7.65625H118.968V20H116.333ZM123.847 13.4091L127.448 20H124.508L120.971 13.4091H123.847ZM131.209 20H128.396L133.517 5.45455H136.77L141.898 20H139.085L135.2 8.4375H135.087L131.209 20ZM131.301 14.2969H138.972V16.4134H131.301V14.2969ZM134.156 4.01989L135.747 0.774148H138.261L136.081 4.01989H134.156ZM141.417 7.66335V5.45455H153.022V7.66335H148.526V20H145.912V7.66335H141.417ZM157.894 5.45455V20H155.259V5.45455H157.894ZM168.652 9.45312C168.586 8.83286 168.306 8.34991 167.814 8.00426C167.326 7.65862 166.692 7.4858 165.911 7.4858C165.361 7.4858 164.89 7.56866 164.497 7.73438C164.104 7.90009 163.804 8.125 163.595 8.40909C163.387 8.69318 163.28 9.01752 163.276 9.3821C163.276 9.68513 163.344 9.94792 163.482 10.1705C163.624 10.393 163.815 10.5824 164.057 10.7386C164.298 10.8902 164.566 11.018 164.859 11.1222C165.153 11.2263 165.449 11.3139 165.747 11.3849L167.111 11.7259C167.66 11.8537 168.188 12.0265 168.695 12.2443C169.206 12.4621 169.663 12.7367 170.065 13.0682C170.473 13.3996 170.795 13.7997 171.031 14.2685C171.268 14.7372 171.386 15.2865 171.386 15.9162C171.386 16.7685 171.169 17.5189 170.733 18.1676C170.297 18.8116 169.668 19.3158 168.844 19.6804C168.025 20.0402 167.033 20.2202 165.868 20.2202C164.736 20.2202 163.754 20.045 162.92 19.6946C162.092 19.3442 161.443 18.8329 160.974 18.1605C160.51 17.4882 160.259 16.669 160.222 15.7031H162.814C162.852 16.2098 163.008 16.6312 163.283 16.9673C163.557 17.3035 163.915 17.5545 164.355 17.7202C164.8 17.8859 165.297 17.9688 165.847 17.9688C166.42 17.9688 166.921 17.8835 167.352 17.7131C167.788 17.5379 168.129 17.2964 168.375 16.9886C168.621 16.6761 168.747 16.3116 168.751 15.8949C168.747 15.5161 168.635 15.2036 168.418 14.9574C168.2 14.7064 167.894 14.4981 167.501 14.3324C167.113 14.1619 166.659 14.0104 166.138 13.8778L164.483 13.4517C163.285 13.1439 162.338 12.6776 161.642 12.0526C160.951 11.4228 160.605 10.5871 160.605 9.54545C160.605 8.68845 160.837 7.93797 161.301 7.29403C161.77 6.65009 162.407 6.15057 163.212 5.79545C164.017 5.43561 164.928 5.25568 165.946 5.25568C166.978 5.25568 167.883 5.43561 168.659 5.79545C169.44 6.15057 170.054 6.64536 170.499 7.27983C170.944 7.90956 171.173 8.634 171.188 9.45312H168.652Z" fill="url(#paint0_linear_9_544)"/>
<defs>
<linearGradient id="paint0_linear_9_544" x1="18.1801" y1="7.14876" x2="145.014" y2="91.6532" gradientUnits="userSpaceOnUse">
<stop stop-color="#FE2A2A"/>
<stop offset="1" stop-color="#F7931E"/>
</linearGradient>
</defs>
</svg>
