<svg width="30" height="30" viewBox="0 0 30 30" fill="none" xmlns="http://www.w3.org/2000/svg">
<g id="vuesax/bulk/location">
<g id="location">
<path id="Vector" opacity="0.4" d="M25.775 10.5625C24.4625 4.7875 19.425 2.1875 15 2.1875C15 2.1875 15 2.1875 14.9875 2.1875C10.575 2.1875 5.525 4.775 4.2125 10.55C2.75 17 6.7 22.4625 10.275 25.9C11.6 27.175 13.3 27.8125 15 27.8125C16.7 27.8125 18.4 27.175 19.7125 25.9C23.2875 22.4625 27.2375 17.0125 25.775 10.5625Z" fill="white"/>
<path id="Vector_2" d="M15 16.825C17.1746 16.825 18.9375 15.0621 18.9375 12.8875C18.9375 10.7129 17.1746 8.95001 15 8.95001C12.8254 8.95001 11.0625 10.7129 11.0625 12.8875C11.0625 15.0621 12.8254 16.825 15 16.825Z" fill="white"/>
</g>
</g>
</svg>
