<svg width="860" height="91" viewBox="0 0 860 91" fill="none" xmlns="http://www.w3.org/2000/svg">
<path d="M64.2727 36.0909C64.2727 43.6136 62.8636 50.0568 60.0455 55.4205C57.25 60.7614 53.4318 64.8523 48.5909 67.6932C43.7727 70.5341 38.3068 71.9545 32.1932 71.9545C26.0795 71.9545 20.6023 70.5341 15.7614 67.6932C10.9432 64.8295 7.125 60.7273 4.30682 55.3864C1.51136 50.0227 0.113636 43.5909 0.113636 36.0909C0.113636 28.5682 1.51136 22.1364 4.30682 16.7955C7.125 11.4318 10.9432 7.32954 15.7614 4.48863C20.6023 1.64772 26.0795 0.22727 32.1932 0.22727C38.3068 0.22727 43.7727 1.64772 48.5909 4.48863C53.4318 7.32954 57.25 11.4318 60.0455 16.7955C62.8636 22.1364 64.2727 28.5682 64.2727 36.0909ZM51.5568 36.0909C51.5568 30.7955 50.7273 26.3295 49.0682 22.6932C47.4318 19.0341 45.1591 16.2727 42.25 14.4091C39.3409 12.5227 35.9886 11.5795 32.1932 11.5795C28.3977 11.5795 25.0455 12.5227 22.1364 14.4091C19.2273 16.2727 16.9432 19.0341 15.2841 22.6932C13.6477 26.3295 12.8295 30.7955 12.8295 36.0909C12.8295 41.3864 13.6477 45.8636 15.2841 49.5227C16.9432 53.1591 19.2273 55.9205 22.1364 57.8068C25.0455 59.6705 28.3977 60.6023 32.1932 60.6023C35.9886 60.6023 39.3409 59.6705 42.25 57.8068C45.1591 55.9205 47.4318 53.1591 49.0682 49.5227C50.7273 45.8636 51.5568 41.3864 51.5568 36.0909ZM75.6847 90.6364V18.6364H87.821V27.2955H88.5369C89.1733 26.0227 90.071 24.6705 91.2301 23.2386C92.3892 21.7841 93.9574 20.5455 95.9347 19.5227C97.9119 18.4773 100.435 17.9545 103.503 17.9545C107.548 17.9545 111.196 18.9886 114.446 21.0568C117.719 23.1023 120.31 26.1364 122.219 30.1591C124.151 34.1591 125.116 39.0682 125.116 44.8864C125.116 50.6364 124.173 55.5227 122.287 59.5455C120.401 63.5682 117.832 66.6364 114.582 68.75C111.332 70.8636 107.651 71.9205 103.537 71.9205C100.537 71.9205 98.0483 71.4205 96.071 70.4205C94.0938 69.4205 92.5028 68.2159 91.2983 66.8068C90.1165 65.375 89.196 64.0227 88.5369 62.75H88.0256V90.6364H75.6847ZM87.7869 44.8182C87.7869 48.2045 88.2642 51.1705 89.2188 53.7159C90.196 56.2614 91.5938 58.25 93.4119 59.6818C95.2528 61.0909 97.4801 61.7955 100.094 61.7955C102.821 61.7955 105.105 61.0682 106.946 59.6136C108.787 58.1364 110.173 56.125 111.105 53.5795C112.06 51.0114 112.537 48.0909 112.537 44.8182C112.537 41.5682 112.071 38.6818 111.139 36.1591C110.207 33.6364 108.821 31.6591 106.98 30.2273C105.139 28.7955 102.844 28.0795 100.094 28.0795C97.4574 28.0795 95.2188 28.7727 93.3778 30.1591C91.5369 31.5455 90.1392 33.4886 89.1847 35.9886C88.2528 38.4886 87.7869 41.4318 87.7869 44.8182ZM158.866 72.0227C153.616 72.0227 149.082 70.9318 145.264 68.75C141.469 66.5455 138.548 63.4318 136.503 59.4091C134.457 55.3636 133.435 50.6023 133.435 45.125C133.435 39.7386 134.457 35.0114 136.503 30.9432C138.571 26.8523 141.457 23.6705 145.162 21.3977C148.866 19.1023 153.219 17.9545 158.219 17.9545C161.446 17.9545 164.491 18.4773 167.355 19.5227C170.241 20.5455 172.787 22.1364 174.991 24.2955C177.219 26.4545 178.969 29.2045 180.241 32.5455C181.514 35.8636 182.151 39.8182 182.151 44.4091V48.1932H139.23V39.875H170.321C170.298 37.5114 169.787 35.4091 168.787 33.5682C167.787 31.7045 166.389 30.2386 164.594 29.1705C162.821 28.1023 160.753 27.5682 158.389 27.5682C155.866 27.5682 153.651 28.1818 151.741 29.4091C149.832 30.6136 148.344 32.2045 147.276 34.1818C146.23 36.1364 145.696 38.2841 145.673 40.625V47.8864C145.673 50.9318 146.23 53.5455 147.344 55.7273C148.457 57.8864 150.014 59.5455 152.014 60.7045C154.014 61.8409 156.355 62.4091 159.037 62.4091C160.832 62.4091 162.457 62.1591 163.912 61.6591C165.366 61.1364 166.628 60.375 167.696 59.375C168.764 58.375 169.571 57.1364 170.116 55.6591L181.639 56.9545C180.912 60 179.526 62.6591 177.48 64.9318C175.457 67.1818 172.866 68.9318 169.707 70.1818C166.548 71.4091 162.935 72.0227 158.866 72.0227ZM204.932 40.3182V71H192.591V18.6364H204.386V27.5341H205C206.205 24.6023 208.125 22.2727 210.761 20.5455C213.42 18.8182 216.705 17.9545 220.614 17.9545C224.227 17.9545 227.375 18.7273 230.057 20.2727C232.761 21.8182 234.852 24.0568 236.33 26.9886C237.83 29.9205 238.568 33.4773 238.545 37.6591V71H226.205V39.5682C226.205 36.0682 225.295 33.3295 223.477 31.3523C221.682 29.375 219.193 28.3864 216.011 28.3864C213.852 28.3864 211.932 28.8636 210.25 29.8182C208.591 30.75 207.284 32.1023 206.33 33.875C205.398 35.6477 204.932 37.7955 204.932 40.3182ZM282.83 36.8409V47H251.398V36.8409H282.83ZM334.298 20.375C333.98 17.3977 332.639 15.0795 330.276 13.4205C327.935 11.7614 324.889 10.9318 321.139 10.9318C318.503 10.9318 316.241 11.3295 314.355 12.125C312.469 12.9205 311.026 14 310.026 15.3636C309.026 16.7273 308.514 18.2841 308.491 20.0341C308.491 21.4886 308.821 22.75 309.48 23.8182C310.162 24.8864 311.082 25.7955 312.241 26.5455C313.401 27.2727 314.685 27.8864 316.094 28.3864C317.503 28.8864 318.923 29.3068 320.355 29.6477L326.901 31.2841C329.537 31.8977 332.071 32.7273 334.503 33.7727C336.957 34.8182 339.151 36.1364 341.082 37.7273C343.037 39.3182 344.582 41.2386 345.719 43.4886C346.855 45.7386 347.423 48.375 347.423 51.3977C347.423 55.4886 346.378 59.0909 344.287 62.2045C342.196 65.2955 339.173 67.7159 335.219 69.4659C331.287 71.1932 326.526 72.0568 320.935 72.0568C315.503 72.0568 310.787 71.2159 306.787 69.5341C302.81 67.8523 299.696 65.3977 297.446 62.1705C295.219 58.9432 294.014 55.0114 293.832 50.375H306.276C306.457 52.8068 307.207 54.8295 308.526 56.4432C309.844 58.0568 311.56 59.2614 313.673 60.0568C315.81 60.8523 318.196 61.25 320.832 61.25C323.582 61.25 325.991 60.8409 328.06 60.0227C330.151 59.1818 331.787 58.0227 332.969 56.5455C334.151 55.0455 334.753 53.2955 334.776 51.2955C334.753 49.4773 334.219 47.9773 333.173 46.7955C332.128 45.5909 330.662 44.5909 328.776 43.7955C326.912 42.9773 324.73 42.25 322.23 41.6136L314.287 39.5682C308.537 38.0909 303.991 35.8523 300.651 32.8523C297.332 29.8295 295.673 25.8182 295.673 20.8182C295.673 16.7045 296.787 13.1023 299.014 10.0114C301.264 6.92045 304.321 4.52273 308.185 2.81818C312.048 1.09091 316.423 0.22727 321.31 0.22727C326.264 0.22727 330.605 1.09091 334.332 2.81818C338.082 4.52273 341.026 6.89773 343.162 9.94318C345.298 12.9659 346.401 16.4432 346.469 20.375H334.298ZM380.994 72.0227C375.881 72.0227 371.449 70.8977 367.699 68.6477C363.949 66.3977 361.04 63.25 358.972 59.2045C356.926 55.1591 355.903 50.4318 355.903 45.0227C355.903 39.6136 356.926 34.875 358.972 30.8068C361.04 26.7386 363.949 23.5795 367.699 21.3295C371.449 19.0795 375.881 17.9545 380.994 17.9545C386.108 17.9545 390.54 19.0795 394.29 21.3295C398.04 23.5795 400.938 26.7386 402.983 30.8068C405.051 34.875 406.085 39.6136 406.085 45.0227C406.085 50.4318 405.051 55.1591 402.983 59.2045C400.938 63.25 398.04 66.3977 394.29 68.6477C390.54 70.8977 386.108 72.0227 380.994 72.0227ZM381.062 62.1364C383.835 62.1364 386.153 61.375 388.017 59.8523C389.881 58.3068 391.267 56.2386 392.176 53.6477C393.108 51.0568 393.574 48.1705 393.574 44.9886C393.574 41.7841 393.108 38.8864 392.176 36.2955C391.267 33.6818 389.881 31.6023 388.017 30.0568C386.153 28.5114 383.835 27.7386 381.062 27.7386C378.222 27.7386 375.858 28.5114 373.972 30.0568C372.108 31.6023 370.71 33.6818 369.778 36.2955C368.869 38.8864 368.415 41.7841 368.415 44.9886C368.415 48.1705 368.869 51.0568 369.778 53.6477C370.71 56.2386 372.108 58.3068 373.972 59.8523C375.858 61.375 378.222 62.1364 381.062 62.1364ZM449.935 48.9773V18.6364H462.276V71H450.31V61.6932H449.764C448.582 64.625 446.639 67.0227 443.935 68.8864C441.253 70.75 437.946 71.6818 434.014 71.6818C430.582 71.6818 427.548 70.9205 424.912 69.3977C422.298 67.8523 420.253 65.6136 418.776 62.6818C417.298 59.7273 416.56 56.1591 416.56 51.9773V18.6364H428.901V50.0682C428.901 53.3864 429.81 56.0227 431.628 57.9773C433.446 59.9318 435.832 60.9091 438.787 60.9091C440.605 60.9091 442.366 60.4659 444.071 59.5795C445.776 58.6932 447.173 57.375 448.264 55.625C449.378 53.8523 449.935 51.6364 449.935 48.9773ZM474.966 71V18.6364H486.932V27.3636H487.477C488.432 24.3409 490.068 22.0114 492.386 20.375C494.727 18.7159 497.398 17.8864 500.398 17.8864C501.08 17.8864 501.841 17.9205 502.682 17.9886C503.545 18.0341 504.261 18.1136 504.83 18.2273V29.5795C504.307 29.3977 503.477 29.2386 502.341 29.1023C501.227 28.9432 500.148 28.8636 499.102 28.8636C496.852 28.8636 494.83 29.3523 493.034 30.3295C491.261 31.2841 489.864 32.6136 488.841 34.3182C487.818 36.0227 487.307 37.9886 487.307 40.2159V71H474.966ZM533.713 72.0227C528.486 72.0227 523.997 70.875 520.247 68.5795C516.52 66.2841 513.645 63.1136 511.622 59.0682C509.622 55 508.622 50.3182 508.622 45.0227C508.622 39.7045 509.645 35.0114 511.69 30.9432C513.736 26.8523 516.622 23.6705 520.349 21.3977C524.099 19.1023 528.531 17.9545 533.645 17.9545C537.895 17.9545 541.656 18.7386 544.929 20.3068C548.224 21.8523 550.849 24.0455 552.804 26.8864C554.759 29.7045 555.872 33 556.145 36.7727H544.349C543.872 34.25 542.736 32.1477 540.94 30.4659C539.168 28.7614 536.793 27.9091 533.815 27.9091C531.293 27.9091 529.077 28.5909 527.168 29.9545C525.259 31.2955 523.77 33.2273 522.702 35.75C521.656 38.2727 521.134 41.2955 521.134 44.8182C521.134 48.3864 521.656 51.4545 522.702 54.0227C523.747 56.5682 525.213 58.5341 527.099 59.9205C529.009 61.2841 531.247 61.9659 533.815 61.9659C535.634 61.9659 537.259 61.625 538.69 60.9432C540.145 60.2386 541.361 59.2273 542.338 57.9091C543.315 56.5909 543.986 54.9886 544.349 53.1023H556.145C555.849 56.8068 554.759 60.0909 552.872 62.9545C550.986 65.7955 548.418 68.0227 545.168 69.6364C541.918 71.2273 538.099 72.0227 533.713 72.0227ZM589.46 72.0227C584.21 72.0227 579.676 70.9318 575.858 68.75C572.063 66.5455 569.142 63.4318 567.097 59.4091C565.051 55.3636 564.028 50.6023 564.028 45.125C564.028 39.7386 565.051 35.0114 567.097 30.9432C569.165 26.8523 572.051 23.6705 575.756 21.3977C579.46 19.1023 583.812 17.9545 588.812 17.9545C592.04 17.9545 595.085 18.4773 597.949 19.5227C600.835 20.5455 603.381 22.1364 605.585 24.2955C607.813 26.4545 609.563 29.2045 610.835 32.5455C612.108 35.8636 612.744 39.8182 612.744 44.4091V48.1932H569.824V39.875H600.915C600.892 37.5114 600.381 35.4091 599.381 33.5682C598.381 31.7045 596.983 30.2386 595.188 29.1705C593.415 28.1023 591.347 27.5682 588.983 27.5682C586.46 27.5682 584.244 28.1818 582.335 29.4091C580.426 30.6136 578.938 32.2045 577.869 34.1818C576.824 36.1364 576.29 38.2841 576.267 40.625V47.8864C576.267 50.9318 576.824 53.5455 577.938 55.7273C579.051 57.8864 580.608 59.5455 582.608 60.7045C584.608 61.8409 586.949 62.4091 589.631 62.4091C591.426 62.4091 593.051 62.1591 594.506 61.6591C595.96 61.1364 597.222 60.375 598.29 59.375C599.358 58.375 600.165 57.1364 600.71 55.6591L612.233 56.9545C611.506 60 610.119 62.6591 608.074 64.9318C606.051 67.1818 603.46 68.9318 600.301 70.1818C597.142 71.4091 593.528 72.0227 589.46 72.0227ZM671.355 71V1.18182H716.082V11.7841H684.003V30.7386H713.014V41.3409H684.003V71H671.355ZM746.398 72.0227C741.148 72.0227 736.614 70.9318 732.795 68.75C729 66.5455 726.08 63.4318 724.034 59.4091C721.989 55.3636 720.966 50.6023 720.966 45.125C720.966 39.7386 721.989 35.0114 724.034 30.9432C726.102 26.8523 728.989 23.6705 732.693 21.3977C736.398 19.1023 740.75 17.9545 745.75 17.9545C748.977 17.9545 752.023 18.4773 754.886 19.5227C757.773 20.5455 760.318 22.1364 762.523 24.2955C764.75 26.4545 766.5 29.2045 767.773 32.5455C769.045 35.8636 769.682 39.8182 769.682 44.4091V48.1932H726.761V39.875H757.852C757.83 37.5114 757.318 35.4091 756.318 33.5682C755.318 31.7045 753.92 30.2386 752.125 29.1705C750.352 28.1023 748.284 27.5682 745.92 27.5682C743.398 27.5682 741.182 28.1818 739.273 29.4091C737.364 30.6136 735.875 32.2045 734.807 34.1818C733.761 36.1364 733.227 38.2841 733.205 40.625V47.8864C733.205 50.9318 733.761 53.5455 734.875 55.7273C735.989 57.8864 737.545 59.5455 739.545 60.7045C741.545 61.8409 743.886 62.4091 746.568 62.4091C748.364 62.4091 749.989 62.1591 751.443 61.6591C752.898 61.1364 754.159 60.375 755.227 59.375C756.295 58.375 757.102 57.1364 757.648 55.6591L769.17 56.9545C768.443 60 767.057 62.6591 765.011 64.9318C762.989 67.1818 760.398 68.9318 757.239 70.1818C754.08 71.4091 750.466 72.0227 746.398 72.0227ZM821.509 32.4773L810.259 33.7045C809.94 32.5682 809.384 31.5 808.588 30.5C807.815 29.5 806.77 28.6932 805.452 28.0795C804.134 27.4659 802.52 27.1591 800.611 27.1591C798.043 27.1591 795.884 27.7159 794.134 28.8295C792.406 29.9432 791.554 31.3864 791.577 33.1591C791.554 34.6818 792.111 35.9205 793.247 36.875C794.406 37.8295 796.315 38.6136 798.974 39.2273L807.906 41.1364C812.861 42.2045 816.543 43.8977 818.952 46.2159C821.384 48.5341 822.611 51.5682 822.634 55.3182C822.611 58.6136 821.645 61.5227 819.736 64.0455C817.849 66.5455 815.224 68.5 811.861 69.9091C808.497 71.3182 804.634 72.0227 800.27 72.0227C793.861 72.0227 788.702 70.6818 784.793 68C780.884 65.2955 778.554 61.5341 777.804 56.7159L789.838 55.5568C790.384 57.9205 791.543 59.7045 793.315 60.9091C795.088 62.1136 797.395 62.7159 800.236 62.7159C803.168 62.7159 805.52 62.1136 807.293 60.9091C809.088 59.7045 809.986 58.2159 809.986 56.4432C809.986 54.9432 809.406 53.7045 808.247 52.7273C807.111 51.75 805.338 51 802.929 50.4773L793.997 48.6023C788.974 47.5568 785.259 45.7955 782.849 43.3182C780.44 40.8182 779.247 37.6591 779.27 33.8409C779.247 30.6136 780.122 27.8182 781.895 25.4545C783.69 23.0682 786.179 21.2273 789.361 19.9318C792.565 18.6136 796.259 17.9545 800.44 17.9545C806.577 17.9545 811.406 19.2614 814.929 21.875C818.474 24.4886 820.668 28.0227 821.509 32.4773ZM858.957 18.6364V28.1818H828.855V18.6364H858.957ZM836.287 6.09091H848.628V55.25C848.628 56.9091 848.878 58.1818 849.378 59.0682C849.901 59.9318 850.582 60.5227 851.423 60.8409C852.264 61.1591 853.196 61.3182 854.219 61.3182C854.991 61.3182 855.696 61.2614 856.332 61.1477C856.991 61.0341 857.491 60.9318 857.832 60.8409L859.912 70.4886C859.253 70.7159 858.31 70.9659 857.082 71.2386C855.878 71.5114 854.401 71.6705 852.651 71.7159C849.56 71.8068 846.776 71.3409 844.298 70.3182C841.821 69.2727 839.855 67.6591 838.401 65.4773C836.969 63.2955 836.264 60.5682 836.287 57.2955V6.09091Z" fill="url(#paint0_linear_2_20)"/>
<defs>
<linearGradient id="paint0_linear_2_20" x1="90.6801" y1="7.719" x2="710.949" y2="434.249" gradientUnits="userSpaceOnUse">
<stop stop-color="#FE2A2A"/>
<stop offset="1" stop-color="#F7931E"/>
</linearGradient>
</defs>
</svg>
