<svg width="7" height="179" viewBox="0 0 7 179" fill="none" xmlns="http://www.w3.org/2000/svg">
<path id="Line 3" d="M3.50001 0.833333C2.02725 0.833333 0.833341 2.02724 0.833341 3.5C0.833341 4.97276 2.02725 6.16667 3.50001 6.16667C4.97277 6.16667 6.16667 4.97276 6.16667 3.5C6.16667 2.02724 4.97277 0.833333 3.50001 0.833333ZM3.5 172.833C2.02724 172.833 0.833333 174.027 0.833333 175.5C0.833333 176.973 2.02724 178.167 3.5 178.167C4.97276 178.167 6.16667 176.973 6.16667 175.5C6.16667 174.027 4.97276 172.833 3.5 172.833ZM3.00001 3.5L3 175.5L4 175.5L4.00001 3.5L3.00001 3.5Z" fill="url(#paint0_linear_136_64)"/>
<defs>
<linearGradient id="paint0_linear_136_64" x1="3.24381" y1="22.4597" x2="-8.16345" y2="23.1813" gradientUnits="userSpaceOnUse">
<stop stop-color="#FE2A2A"/>
<stop offset="1" stop-color="#F7931E"/>
</linearGradient>
</defs>
</svg>
