<svg width="150" height="47" viewBox="0 0 150 47" fill="none" xmlns="http://www.w3.org/2000/svg">
<g id="Airbnb Logo" clip-path="url(#clip0_8_102)">
<path id="Vector" d="M42.9993 33.0739C42.764 32.5052 42.5434 31.9072 42.3081 31.3968L41.2199 28.9614L41.1757 28.9177C37.9404 21.9177 34.4846 14.801 30.8228 7.80099L30.6757 7.50932C30.3081 6.8239 29.9404 6.06557 29.5581 5.36557C29.0875 4.53432 28.6316 3.64474 27.8816 2.7989C27.1506 1.91388 26.2305 1.20084 25.1878 0.711232C24.1451 0.221621 23.0059 -0.0323486 21.8522 -0.0323486C20.6985 -0.0323486 19.5593 0.221621 18.5166 0.711232C17.4739 1.20084 16.5539 1.91388 15.8228 2.7989C15.1316 3.64474 14.6169 4.53432 14.1463 5.36557C13.7787 6.1239 13.411 6.86765 13.0287 7.55307L12.8816 7.84474C9.27868 14.8447 5.76397 21.9614 2.52868 28.9614L2.44044 29.0489C2.11692 29.8072 1.73456 30.5947 1.36692 31.4406C1.13162 31.951 0.896327 32.5051 0.661033 33.1177C0.0257869 34.7215 -0.177067 36.4618 0.0724628 38.1671C0.321993 39.8724 1.01529 41.4838 2.08404 42.8424C3.15278 44.2011 4.56009 45.2601 6.16725 45.9152C7.77441 46.5702 9.52595 46.7987 11.2493 46.5781C12.9014 46.3624 14.4923 45.8167 15.9257 44.9739C17.8375 43.9093 19.6757 42.3635 21.7346 40.1322C23.7934 42.3635 25.6757 43.9093 27.5434 44.9885C29.3394 46.0339 31.3733 46.6109 33.4552 46.6656C35.866 46.6755 38.199 45.8201 40.0235 44.2574C41.848 42.6947 43.0408 40.5302 43.3816 38.1635C43.7755 36.4627 43.6422 34.6837 42.9993 33.0593V33.0739ZM21.8816 35.4947C19.3522 32.2864 17.7052 29.3406 17.1463 26.8177C16.9148 25.8828 16.8649 24.9127 16.9993 23.9593C17.1022 23.2156 17.3816 22.5593 17.764 22.0052C18.6463 20.7364 20.1904 19.9489 21.8816 19.9489C22.6848 19.9246 23.4814 20.0984 24.2001 20.4547C24.9188 20.8111 25.537 21.3388 25.9993 21.9906C26.3816 22.5739 26.661 23.2156 26.7493 23.9593C26.8963 24.8052 26.8375 25.7822 26.6022 26.8177C26.0434 29.2968 24.3963 32.2718 21.8816 35.4947ZM40.6169 37.6531C40.4498 38.8547 39.9682 39.9919 39.2199 40.9514C38.4716 41.9109 37.4829 42.6592 36.3522 43.1218C35.2346 43.5885 33.9993 43.7197 32.7934 43.5885C31.6169 43.4427 30.4404 43.0635 29.2346 42.3635C27.2324 41.1363 25.432 39.6116 23.8963 37.8427C26.9846 34.051 28.8522 30.5947 29.5581 27.5177C29.8963 26.0593 29.9404 24.7468 29.7934 23.5364C29.6098 22.3891 29.1783 21.2947 28.5287 20.3281C27.7869 19.2799 26.7968 18.4285 25.6455 17.8487C24.4941 17.269 23.2168 16.9786 21.9257 17.0031C19.2052 17.0031 16.7787 18.2572 15.3081 20.3135C14.6461 21.2777 14.2182 22.3808 14.0581 23.5364C13.8669 24.7614 13.911 26.1177 14.2934 27.5177C14.9993 30.5947 16.911 34.0947 19.9552 37.8718C18.4456 39.6745 16.641 41.2127 14.6169 42.4218C13.3963 43.1218 12.2346 43.4864 11.0581 43.6322C9.22851 43.8646 7.38037 43.3715 5.91539 42.2601C4.4504 41.1487 3.48699 39.5088 3.23456 37.6968C3.0875 36.5302 3.19044 35.3635 3.66103 34.051C3.80809 33.5843 4.02868 33.1177 4.26397 32.5635C4.5875 31.8052 4.96986 31.0177 5.3375 30.2302L5.39633 30.1281C8.5728 23.1718 12.0434 16.0697 15.6463 9.11349L15.7934 8.82182C16.161 8.12182 16.5287 7.37807 16.911 6.67807C17.2934 5.93432 17.7052 5.21974 18.2346 4.6364C18.6928 4.09393 19.2654 3.65767 19.912 3.35834C20.5587 3.05901 21.2636 2.90389 21.9772 2.90389C22.6908 2.90389 23.3958 3.05901 24.0424 3.35834C24.689 3.65767 25.2616 4.09393 25.7199 4.6364C26.2346 5.21974 26.661 5.93432 27.0434 6.67807C27.411 7.37807 27.7787 8.1364 28.161 8.82182L28.3081 9.11349C31.8963 16.0697 35.3669 23.1718 38.6022 30.1281L38.6463 30.1718C39.0287 30.9302 39.3522 31.776 39.7199 32.5052C39.9552 33.0739 40.1904 33.526 40.3375 34.0072C40.6169 35.3197 40.764 36.4864 40.6169 37.6531ZM61.0875 35.1739C59.9794 35.19 58.8818 34.9584 57.8762 34.4964C56.8706 34.0344 55.9828 33.3539 55.2787 32.5052C53.6964 30.6968 52.8567 28.3651 52.9257 25.9718C52.9015 23.5265 53.7684 21.1547 55.3669 19.2927C56.1063 18.4331 57.0268 17.7448 58.0634 17.2762C59.1 16.8075 60.2277 16.5699 61.3669 16.5802C62.4389 16.5511 63.5007 16.7928 64.4525 17.2826C65.4044 17.7724 66.215 18.4942 66.8081 19.3802L66.9551 17.0906H71.2493V34.7072H66.9404L66.7934 32.1406C66.1819 33.0865 65.3367 33.8618 64.338 34.3927C63.3394 34.9236 62.2204 35.1925 61.0875 35.1739ZM62.2051 30.9739C63.0581 30.9739 63.8081 30.7406 64.514 30.3177C65.161 29.851 65.6904 29.2385 66.1022 28.4947C66.4699 27.751 66.661 26.8614 66.661 25.8697C66.7184 25.0084 66.5493 24.1471 66.1704 23.37C65.7915 22.593 65.2157 21.9267 64.4993 21.4364C63.8109 21.0111 63.0162 20.7857 62.2051 20.7857C61.3941 20.7857 60.5994 21.0111 59.911 21.4364C59.264 21.9031 58.7346 22.5156 58.3228 23.2593C57.9339 24.0795 57.7426 24.9782 57.764 25.8843C57.7066 26.7456 57.8757 27.6069 58.2546 28.384C58.6335 29.1611 59.2094 29.8274 59.9257 30.3177C60.6169 30.7406 61.3669 30.9739 62.2051 30.9739ZM78.6022 12.3364C78.6022 12.8468 78.514 13.3135 78.2787 13.6927C78.0434 14.0572 77.7199 14.3927 77.2934 14.626C76.8669 14.8593 76.411 14.9468 75.9404 14.9468C75.4699 14.9468 74.9993 14.8593 74.5728 14.626C74.1695 14.4033 73.8303 14.082 73.5875 13.6927C73.3598 13.2772 73.2481 12.809 73.264 12.3364C73.264 11.8114 73.3669 11.3447 73.5875 10.9802C73.8228 10.5427 74.161 10.2802 74.5728 10.0468C74.9993 9.81349 75.4551 9.7114 75.9404 9.7114C76.4085 9.70071 76.8714 9.81065 77.2839 10.0305C77.6963 10.2503 78.0441 10.5725 78.2934 10.9656C78.5074 11.3907 78.6134 11.8613 78.6022 12.3364ZM73.6022 34.6489V17.0614H78.2787V34.6781H73.5875L73.6022 34.6489ZM90.7787 21.6697V21.7281C90.5581 21.626 90.264 21.5822 90.0434 21.5385C89.7493 21.4802 89.514 21.4802 89.2346 21.4802C87.9257 21.4802 86.9404 21.8593 86.2934 22.6468C85.5875 23.4489 85.264 24.5718 85.264 26.0156V34.6635H80.5728V17.0468H84.8816L85.0287 19.7156C85.4993 18.7822 86.0581 18.0822 86.8522 17.5572C87.6421 17.0471 88.572 16.7924 89.514 16.8281C89.8522 16.8281 90.1757 16.8572 90.4551 16.9156C90.6022 16.9593 90.6904 16.9593 90.7787 17.0031V21.6697ZM92.661 34.6489V9.82807H97.3375V19.3072C97.9993 18.4614 98.7493 17.8052 99.6904 17.2947C101.18 16.5703 102.873 16.3648 104.495 16.7114C106.118 17.058 107.575 17.9365 108.632 19.2052C110.217 21.0173 111.057 23.3548 110.985 25.7531C111.009 28.1984 110.142 30.5702 108.543 32.4322C107.804 33.2917 106.884 33.9801 105.847 34.4487C104.81 34.9174 103.683 35.1549 102.543 35.1447C101.471 35.1738 100.41 34.9321 99.4578 34.4423C98.5059 33.9525 97.6954 33.2307 97.1022 32.3447L96.9552 34.6343L92.661 34.6781V34.6489ZM101.705 30.9739C102.543 30.9739 103.293 30.7406 103.999 30.3177C104.646 29.851 105.176 29.2385 105.588 28.4947C105.97 27.751 106.146 26.8614 106.146 25.8697C106.146 24.8927 105.97 24.0031 105.588 23.2593C105.201 22.5422 104.659 21.9194 103.999 21.4364C103.311 21.0111 102.516 20.7857 101.705 20.7857C100.894 20.7857 100.099 21.0111 99.411 21.4364C98.7493 21.9031 98.2346 22.5156 97.8081 23.2593C97.4192 24.0795 97.2279 24.9782 97.2493 25.8843C97.1919 26.7456 97.361 27.6069 97.7399 28.384C98.1189 29.1611 98.6946 29.8274 99.411 30.3177C100.102 30.7406 100.852 30.9739 101.705 30.9739ZM112.749 34.6635V17.0468H117.058L117.205 19.3364C117.747 18.4588 118.515 17.7405 119.43 17.2559C120.345 16.7713 121.374 16.538 122.411 16.5802C123.596 16.5598 124.762 16.8866 125.761 17.5195C126.76 18.1524 127.549 19.0634 128.029 20.1385C128.543 21.2468 128.823 22.6177 128.823 24.1489V34.7072H124.132V24.7614C124.132 23.5364 123.852 22.5739 123.293 21.8593C122.735 21.1593 121.97 20.7802 120.999 20.7802C120.293 20.7802 119.676 20.926 119.132 21.2468C118.617 21.5822 118.19 22.0052 117.867 22.6031C117.54 23.2075 117.378 23.8861 117.396 24.5718V34.6635H112.749ZM131.161 34.6635V9.81349H135.852V19.2927C136.488 18.4421 137.314 17.7501 138.266 17.2717C139.219 16.7932 140.27 16.5415 141.338 16.5364C142.446 16.5203 143.543 16.7519 144.549 17.2139C145.554 17.6759 146.442 18.3565 147.146 19.2052C148.721 21.0172 149.555 23.3476 149.485 25.7385C149.51 28.184 148.643 30.5563 147.043 32.4177C146.304 33.2772 145.384 33.9655 144.347 34.4341C143.31 34.9028 142.183 35.1404 141.043 35.1302C139.971 35.1592 138.91 34.9175 137.958 34.4277C137.006 33.9379 136.195 33.2161 135.602 32.3302L135.47 34.6197L131.161 34.6635ZM140.249 30.9739C141.102 30.9739 141.852 30.7406 142.543 30.3177C143.205 29.851 143.72 29.2385 144.146 28.4947C144.514 27.751 144.705 26.8614 144.705 25.8697C144.762 25.0084 144.593 24.1471 144.214 23.37C143.836 22.593 143.26 21.9267 142.543 21.4364C141.855 21.0111 141.06 20.7857 140.249 20.7857C139.438 20.7857 138.643 21.0111 137.955 21.4364C137.308 21.9031 136.779 22.5156 136.367 23.2593C135.956 24.0722 135.764 24.9762 135.808 25.8843C135.751 26.7456 135.92 27.6069 136.299 28.384C136.678 29.1611 137.253 29.8274 137.97 30.3177C138.661 30.7406 139.367 30.9739 140.249 30.9739Z" fill="white"/>
</g>
<defs>
<clipPath id="clip0_8_102">
<rect width="150" height="46.6667" fill="white"/>
</clipPath>
</defs>
</svg>
