<svg width="240" height="47" viewBox="0 0 240 47" fill="none" xmlns="http://www.w3.org/2000/svg">
<path d="M56.184 30.8453C56.184 40.4693 62.112 46.2293 70.92 46.2293C75.312 46.2293 79.008 45.0053 81.072 41.7893V46.2293H89.112V0.389343H80.76V19.8773C78.864 16.6613 75.36 15.2213 70.968 15.2213C62.376 15.1973 56.184 21.0773 56.184 30.8453ZM81.024 30.8453C81.024 36.3413 77.28 39.7733 72.792 39.7733C68.136 39.7733 64.56 36.3413 64.56 30.8453C64.56 25.2533 68.16 21.7493 72.792 21.7493C77.28 21.7493 81.024 25.3013 81.024 30.8453Z" fill="white"/>
<path d="M115.104 34.3973C114.144 37.9493 111.72 39.7253 107.904 39.7253C103.464 39.7253 99.816 37.0373 99.72 32.2853H120.768C121.032 31.1093 121.152 29.8613 121.152 28.4933C121.152 19.9733 115.344 15.1733 106.776 15.1733C97.632 15.1733 91.344 21.6773 91.344 30.5093C91.344 40.3493 98.28 46.2533 107.88 46.2533C115.128 46.2533 120.048 43.2293 122.208 37.2053L115.104 34.3973ZM99.72 26.7173C100.512 23.2853 103.368 21.2693 106.8 21.2693C110.544 21.2693 113.088 23.2853 113.088 26.4533L113.04 26.7173H99.72Z" fill="white"/>
<path d="M146.088 34.3973C145.128 37.9493 142.704 39.7253 138.888 39.7253C134.448 39.7253 130.8 37.0373 130.704 32.2853H151.752C152.016 31.1093 152.136 29.8613 152.136 28.4933C152.136 19.9733 146.328 15.1733 137.76 15.1733C128.616 15.1733 122.328 21.6773 122.328 30.5093C122.328 40.3493 129.264 46.2533 138.864 46.2533C146.112 46.2533 151.032 43.2293 153.192 37.2053L146.088 34.3973ZM130.704 26.7173C131.496 23.2853 134.352 21.2693 137.784 21.2693C141.528 21.2693 144.072 23.2853 144.072 26.4533L144.024 26.7173H130.704Z" fill="white"/>
<path d="M181.608 46.2773V38.7173H164.064L181.128 22.1093V15.1973H154.128V22.3973H170.616L153.6 39.0773V46.2773H181.608Z" fill="white"/>
<path d="M206.016 34.3973C205.056 37.9493 202.632 39.7253 198.816 39.7253C194.376 39.7253 190.728 37.0373 190.632 32.2853H211.68C211.944 31.1093 212.064 29.8613 212.064 28.4933C212.064 19.9733 206.256 15.1733 197.688 15.1733C188.544 15.1733 182.256 21.6773 182.256 30.5093C182.256 40.3493 189.192 46.2533 198.792 46.2533C206.04 46.2533 210.96 43.2293 213.12 37.2053L206.016 34.3973ZM190.632 26.7173C191.424 23.2853 194.28 21.2693 197.712 21.2693C201.456 21.2693 204 23.2853 204 26.4533L203.952 26.7173H190.632Z" fill="white"/>
<path d="M47.616 15.1973H37.32V21.2213H47.616V15.1973Z" fill="white"/>
<path d="M47.616 23.5493H37.32V29.5733H47.616V23.5493Z" fill="white"/>
<path d="M47.616 31.9014H37.32V37.9254H47.616V31.9014Z" fill="white"/>
<path d="M10.296 40.2534H0V46.2774H10.296V40.2534Z" fill="white"/>
<path d="M22.728 40.2534H12.432V46.2774H22.728V40.2534Z" fill="white"/>
<path d="M35.184 40.2534H24.888V46.2774H35.184V40.2534Z" fill="white"/>
<path d="M47.616 40.2534H37.32V46.2774H47.616V40.2534Z" fill="white"/>
<path d="M35.184 31.9014H24.888V37.9254H35.184V31.9014Z" fill="white"/>
<path d="M22.728 31.9014H12.432V37.9254H22.728V31.9014Z" fill="white"/>
<path d="M22.728 23.5493H12.432V29.5733H22.728V23.5493Z" fill="white"/>
<path d="M231.864 25.9253C231.864 26.2373 231.864 26.8133 231.864 26.8133H240C240 26.8133 240 25.2773 240 24.4373C240 19.1093 236.664 15.2453 231.072 15.2453C227.472 15.2453 224.928 16.9973 223.608 19.9013V15.2453H215.208V46.2773H223.608V26.2853C223.608 23.1173 225.312 21.3653 227.928 21.3653C230.328 21.3893 231.864 23.6453 231.864 25.9253Z" fill="white"/>
</svg>
