<svg width="140" height="43" viewBox="0 0 140 43" fill="none" xmlns="http://www.w3.org/2000/svg">
<g clip-path="url(#clip0_8_104)">
<path d="M104.109 41.0764L115.785 28.1452L104.109 15.2122H116.428L122.211 21.4942L127.779 15.2122H139.668L128.048 28.0918L139.828 41.0764H127.458L121.728 34.7428L116.052 41.0764H104.109Z" fill="white"/>
<path d="M104.109 9.41431H90.8859V15.2121H104.109V23.9499H90.8859V31.9701H104.109V41.0763H81.1668V0.333313H104.109V9.41431Z" fill="white"/>
<path d="M71.4889 0.333313V17.0073H71.3824C69.2397 14.5797 66.5627 13.7361 63.4565 13.7361C57.0938 13.7361 52.301 17.9997 50.6185 23.6367C48.6999 17.4255 43.7518 13.6197 36.4146 13.6197C30.4561 13.6197 25.7509 16.2561 23.2954 20.5521V15.2127H10.979V9.41551H24.4197V0.333313H0V41.0769H10.979V23.9499H21.9222C21.5959 25.2081 21.4218 26.5551 21.4218 27.9765C21.4218 36.4755 28.0085 42.4389 36.4146 42.4389C43.4834 42.4389 48.1417 39.1677 50.6057 33.2037H41.1971C39.9244 34.9953 38.959 35.5275 36.4146 35.5275C33.4643 35.5275 30.9205 32.9901 30.9205 29.9823H50.0786C50.9095 36.7329 56.2441 42.5547 63.5649 42.5547C66.7228 42.5547 69.6141 41.0235 71.3824 38.4381H71.4889V41.0757H81.1671V0.333313H71.4889ZM31.2261 24.0717C31.8366 21.4839 33.8727 19.7925 36.4146 19.7925C39.2128 19.7925 41.1454 21.4317 41.6537 24.0717C41.8679 24.0717 31.2261 24.0717 31.2261 24.0717ZM65.6156 34.8729C62.048 34.8729 59.8311 31.5963 59.8311 28.1751C59.8311 24.5181 61.7595 21.0015 65.6156 21.0015C69.6141 21.0015 71.207 24.5181 71.207 28.1751C71.2064 31.6431 69.5185 34.8729 65.6156 34.8729Z" fill="white"/>
</g>
<defs>
<clipPath id="clip0_8_104">
<rect width="140" height="42" fill="white" transform="translate(0 0.333313)"/>
</clipPath>
</defs>
</svg>
