<svg width="190" height="41" viewBox="0 0 190 41" fill="none" xmlns="http://www.w3.org/2000/svg">
<g clip-path="url(#clip0_8_103)">
<path d="M67.0662 23.4094L65.9338 26.6111H65.8394C65.6506 25.8892 65.3046 24.7906 64.7384 23.4722L58.6672 8.24856H52.7218V32.5123H56.654V17.5397C56.654 16.598 56.654 15.5308 56.6225 14.2125C56.591 13.5533 56.5281 13.0511 56.4967 12.6744H56.591C56.7798 13.6161 57 14.3066 57.1573 14.7461L64.4553 32.4495H67.2235L74.4586 14.5891C74.6159 14.1811 74.7732 13.365 74.9304 12.6744H75.0248C74.9304 14.4636 74.8675 16.0644 74.8361 17.0375V32.4181H79.0198V8.18578H73.2947L67.0662 23.4094ZM82.9834 15.0286H87.0728V32.4181H82.9834V15.0286ZM85.0596 7.68356C84.3675 7.68356 83.8013 7.93467 83.3294 8.37411C82.8576 8.81356 82.6059 9.37856 82.6059 10.0691C82.6059 10.7283 82.8576 11.2933 83.3294 11.7327C83.8013 12.1722 84.3675 12.3919 85.0596 12.3919C85.7516 12.3919 86.3493 12.1408 86.7897 11.7327C87.2616 11.2933 87.5132 10.7283 87.5132 10.0691C87.5132 9.40995 87.2616 8.84495 86.7897 8.37411C86.3808 7.93467 85.7831 7.68356 85.0596 7.68356ZM101.574 14.8716C100.82 14.7147 100.033 14.6205 99.2781 14.6205C97.4222 14.6205 95.7235 15.0286 94.3079 15.8447C92.8924 16.6608 91.7599 17.7908 91.0364 19.2033C90.2814 20.6472 89.9039 22.3108 89.9039 24.2256C89.9039 25.8892 90.2814 27.3645 91.0049 28.7142C91.7285 30.0325 92.7351 31.0997 94.0877 31.8217C95.3775 32.5436 96.8874 32.9203 98.5861 32.9203C100.536 32.9203 102.204 32.5123 103.525 31.7589L103.556 31.7275V27.9608L103.399 28.0864C102.801 28.5258 102.109 28.9025 101.417 29.1222C100.694 29.3734 100.033 29.4989 99.4669 29.4989C97.8311 29.4989 96.5414 29.0281 95.6291 27.9922C94.6854 26.9878 94.2136 25.6067 94.2136 23.8803C94.2136 22.0911 94.6854 20.6786 95.6606 19.6428C96.6357 18.6069 97.9255 18.0733 99.4983 18.0733C100.82 18.0733 102.172 18.5128 103.399 19.3917L103.556 19.5172V15.5308L103.525 15.4994C102.99 15.2797 102.392 15.0286 101.574 14.8716ZM115.07 14.7461C114.063 14.7461 113.119 15.06 112.301 15.7191C111.609 16.2841 111.137 17.1003 110.728 18.0733H110.697V15.0286H106.608V32.4181H110.697V23.535C110.697 22.0283 111.012 20.7728 111.704 19.8625C112.396 18.9208 113.276 18.45 114.346 18.45C114.723 18.45 115.101 18.5441 115.573 18.6069C116.013 18.7325 116.328 18.858 116.548 19.015L116.705 19.1405V15.06L116.611 15.0286C116.328 14.8402 115.762 14.7461 115.07 14.7461ZM126.205 14.6519C123.343 14.6519 121.046 15.4994 119.442 17.163C117.806 18.8266 117.02 21.118 117.02 24.0058C117.02 26.7053 117.838 28.9025 119.411 30.5034C120.983 32.0728 123.122 32.8889 125.796 32.8889C128.596 32.8889 130.829 32.0414 132.434 30.3464C134.07 28.6514 134.856 26.3914 134.856 23.5978C134.856 20.8355 134.101 18.6383 132.56 17.0375C131.081 15.4366 128.911 14.6519 126.205 14.6519ZM129.477 28.0236C128.722 28.9967 127.526 29.4675 126.048 29.4675C124.57 29.4675 123.374 28.9967 122.525 27.9608C121.675 26.9878 121.267 25.5753 121.267 23.7861C121.267 21.9342 121.707 20.5217 122.525 19.5172C123.374 18.5128 124.538 18.0105 126.017 18.0105C127.464 18.0105 128.596 18.4814 129.414 19.4544C130.232 20.4275 130.672 21.84 130.672 23.6919C130.609 25.5753 130.263 27.0506 129.477 28.0236ZM143.978 22.248C142.689 21.7144 141.871 21.3064 141.493 20.9611C141.179 20.6472 141.021 20.2078 141.021 19.6428C141.021 19.1719 141.21 18.7011 141.682 18.3872C142.154 18.0733 142.689 17.9164 143.475 17.9164C144.167 17.9164 144.891 18.0419 145.583 18.2303C146.275 18.4186 146.904 18.7011 147.407 19.0778L147.565 19.2033V15.3739L147.47 15.3425C146.998 15.1541 146.369 14.9658 145.614 14.8089C144.859 14.6833 144.167 14.6205 143.601 14.6205C141.651 14.6205 140.046 15.0914 138.788 16.1272C137.53 17.1003 136.932 18.4186 136.932 19.9567C136.932 20.7728 137.058 21.4947 137.341 22.0911C137.624 22.6875 138.033 23.2525 138.599 23.7233C139.166 24.1628 139.983 24.665 141.116 25.1358C142.06 25.5439 142.783 25.8578 143.223 26.1089C143.664 26.36 143.947 26.6425 144.167 26.8622C144.324 27.1133 144.419 27.4272 144.419 27.8353C144.419 28.9967 143.538 29.5617 141.745 29.5617C141.053 29.5617 140.329 29.4361 139.48 29.1536C138.631 28.8711 137.844 28.4631 137.184 27.9922L137.026 27.8667V31.8531L137.121 31.8845C137.719 32.167 138.442 32.3553 139.323 32.575C140.204 32.732 140.99 32.8575 141.682 32.8575C143.79 32.8575 145.52 32.3867 146.747 31.3509C148.005 30.3464 148.666 29.0595 148.666 27.3958C148.666 26.2345 148.351 25.1986 147.659 24.4139C146.747 23.6606 145.614 22.8758 143.978 22.248ZM159.455 14.6519C156.593 14.6519 154.296 15.4994 152.692 17.163C151.088 18.8266 150.27 21.118 150.27 24.0058C150.27 26.7053 151.088 28.9025 152.661 30.5034C154.233 32.0728 156.372 32.8889 159.046 32.8889C161.846 32.8889 164.079 32.0414 165.684 30.3464C167.32 28.6514 168.106 26.3914 168.106 23.5978C168.106 20.8355 167.351 18.6383 165.81 17.0375C164.331 15.4366 162.161 14.6519 159.455 14.6519ZM162.695 28.0236C161.94 28.9967 160.745 29.4675 159.267 29.4675C157.757 29.4675 156.593 28.9967 155.743 27.9608C154.894 26.9878 154.485 25.5753 154.485 23.7861C154.485 21.9342 154.925 20.5217 155.743 19.5172C156.593 18.5128 157.757 18.0105 159.235 18.0105C160.651 18.0105 161.815 18.4814 162.632 19.4544C163.45 20.4275 163.891 21.84 163.891 23.6919C163.891 25.5753 163.482 27.0506 162.695 28.0236ZM189.969 18.3872V15.0286H185.848V9.88078L185.722 9.91217L181.821 11.0736L181.727 11.105V15.0286H175.561V12.8313C175.561 11.8269 175.813 11.0422 176.253 10.54C176.694 10.0377 177.354 9.78662 178.172 9.78662C178.738 9.78662 179.336 9.91217 179.997 10.1947L180.154 10.2888V6.74189L180.06 6.7105C179.493 6.52216 178.738 6.39661 177.763 6.39661C176.536 6.39661 175.467 6.67911 174.492 7.14994C173.517 7.68356 172.793 8.4055 172.258 9.37856C171.723 10.3202 171.44 11.3875 171.44 12.6116V15.0286H168.578V18.3558H171.44V32.4181H175.561V18.3872H181.727V27.3331C181.727 31.0056 183.457 32.8575 186.917 32.8575C187.483 32.8575 188.081 32.7634 188.647 32.6692C189.245 32.5436 189.685 32.3867 189.937 32.2611L189.969 32.2297V28.8711L189.811 28.9967C189.56 29.1536 189.339 29.2792 188.962 29.3734C188.647 29.4675 188.364 29.4989 188.144 29.4989C187.326 29.4989 186.76 29.3106 186.351 28.8397C185.973 28.4003 185.785 27.6783 185.785 26.6111V18.3872H189.969Z" fill="white"/>
<path d="M0 0.0874023H19.2831V19.3289H0V0.0874023Z" fill="white"/>
<path d="M21.2962 0.0874023H40.5793V19.3289H21.2962V0.0874023Z" fill="white"/>
<path d="M0 21.3378H19.2831V40.5792H0V21.3378Z" fill="white"/>
<path d="M21.2962 21.3378H40.5793V40.5792H21.2962V21.3378Z" fill="white"/>
</g>
<defs>
<clipPath id="clip0_8_103">
<rect width="190" height="40.4918" fill="white" transform="translate(0 0.0874023)"/>
</clipPath>
</defs>
</svg>
