<svg width="958" height="395" viewBox="0 0 958 395" fill="none" xmlns="http://www.w3.org/2000/svg">
<path d="M85.541 193.473C74.1111 193.541 62.7923 191.048 52.3002 186.15C42.1624 181.471 32.9574 174.72 25.1918 166.268C17.3483 157.935 11.0943 148.021 6.78407 137.088C2.30772 125.767 0 113.584 0 101.274C0 88.9638 2.30772 76.7809 6.78407 65.4598C11.1182 54.518 17.3687 44.5836 25.1918 36.2026C33.0212 27.8339 42.2106 21.0941 52.3002 16.3206C62.7923 11.4228 74.1111 8.92934 85.541 8.99796C100.438 8.94082 115.088 13.107 128.027 21.0803C129.231 21.7302 130.294 22.6472 131.147 23.7714C132 24.8956 132.624 26.2016 132.978 27.6041C133.331 28.9929 133.423 30.4442 133.246 31.8718C133.07 33.2995 132.629 34.6742 131.951 35.9141C131.323 37.2326 130.442 38.3915 129.367 39.3136C128.292 40.2357 127.047 40.8999 125.716 41.2619C124.417 41.6503 123.059 41.7522 121.723 41.5616C120.387 41.371 119.1 40.8917 117.94 40.1524C113.119 37.0723 107.912 34.7593 102.48 33.2847C96.9446 31.7542 91.2548 30.9715 85.541 30.9547C76.8088 30.8881 68.1623 32.8164 60.1687 36.6131C52.4921 40.1875 45.503 45.2828 39.5627 51.6356C33.6337 58.0027 28.9187 65.5643 25.6849 73.8919C22.2291 82.5032 20.4796 91.8002 20.5488 101.185C20.4979 110.604 22.2464 119.934 25.6849 128.59C28.9933 136.887 33.6989 144.448 39.5627 150.89C45.4814 157.3 52.4742 162.435 60.1687 166.024C68.1722 169.775 76.8169 171.665 85.541 171.571C91.7423 171.57 97.9109 170.602 103.856 168.698C109.73 166.837 115.337 164.108 120.518 160.587C121.634 159.731 122.901 159.131 124.24 158.826C125.58 158.52 126.963 158.516 128.304 158.812C129.629 159.116 130.882 159.71 131.985 160.56C133.088 161.409 134.017 162.495 134.714 163.749C135.465 164.955 135.976 166.317 136.213 167.748C136.45 169.179 136.408 170.647 136.09 172.059C135.452 174.974 133.815 177.519 131.509 179.182C117.777 188.621 101.817 193.583 85.541 193.473Z" fill="white"/>
<path d="M157.702 10.0851C160.381 10.0432 162.966 11.1481 164.893 13.1584C165.901 14.1309 166.699 15.3303 167.232 16.6722C167.764 18.014 168.018 19.4657 167.974 20.9248V181.956C168 183.412 167.738 184.858 167.207 186.197C166.676 187.536 165.887 188.738 164.893 189.722C163.953 190.752 162.834 191.571 161.6 192.131C160.366 192.691 159.041 192.981 157.702 192.984C156.358 193.019 155.023 192.746 153.784 192.184C152.545 191.622 151.43 190.783 150.512 189.722C149.58 188.699 148.848 187.485 148.36 186.151C147.871 184.817 147.635 183.39 147.666 181.956V20.9692C147.619 19.5261 147.847 18.0879 148.337 16.7442C148.826 15.4006 149.567 14.1802 150.512 13.1591C151.458 12.1381 152.588 11.3382 153.832 10.8093C155.076 10.2805 156.407 10.0339 157.743 10.0851H157.702ZM267.132 10.0851C268.469 10.0306 269.802 10.2749 271.047 10.8026C272.293 11.3303 273.424 12.13 274.37 13.1518C275.316 14.1735 276.056 15.3952 276.545 16.7404C277.033 18.0856 277.259 19.5252 277.209 20.9692V181.956C277.24 183.389 277.005 184.815 276.518 186.148C276.031 187.482 275.302 188.697 274.374 189.722C273.449 190.789 272.326 191.631 271.077 192.193C269.829 192.756 268.484 193.025 267.132 192.984C265.793 192.981 264.469 192.691 263.234 192.131C262 191.571 260.881 190.752 259.941 189.722C258.947 188.738 258.158 187.536 257.627 186.197C257.096 184.858 256.834 183.412 256.86 181.956V112.369H191.95C190.622 112.4 189.302 112.144 188.067 111.616C186.832 111.089 185.708 110.299 184.759 109.296C183.774 108.307 182.995 107.103 182.475 105.764C181.954 104.425 181.703 102.981 181.739 101.529C181.739 98.6179 182.809 95.8258 184.714 93.7662C186.619 91.7066 189.203 90.5481 191.898 90.5452H256.808V20.9692C256.765 19.51 257.019 18.0584 257.551 16.7166C258.084 15.3747 258.882 14.1753 259.89 13.2028C260.847 12.1927 261.98 11.3972 263.222 10.8621C264.465 10.327 265.794 10.0629 267.132 10.0851Z" fill="white"/>
<path d="M449.649 185.662C449.21 187.017 448.509 188.255 447.594 189.296C446.678 190.336 445.569 191.155 444.338 191.698C443.136 192.334 441.828 192.704 440.491 192.788C439.154 192.872 437.815 192.667 436.552 192.186C435.282 191.702 434.116 190.944 433.125 189.957C432.134 188.971 431.34 187.778 430.789 186.45L412.659 144.289H366.434C365.099 144.344 363.767 144.1 362.523 143.572C361.279 143.045 360.149 142.246 359.204 141.226C358.258 140.205 357.519 138.984 357.031 137.641C356.543 136.297 356.317 134.859 356.367 133.416C356.337 131.983 356.572 130.558 357.059 129.224C357.546 127.89 358.275 126.675 359.202 125.65C360.12 124.589 361.235 123.75 362.475 123.188C363.714 122.626 365.049 122.353 366.393 122.388H402.941L370.831 47.9744L314.025 186.25C313.23 188.281 311.851 189.981 310.091 191.098C308.434 192.175 306.529 192.725 304.595 192.685C303.191 192.711 301.795 192.44 300.487 191.886C299.237 191.308 298.112 190.456 297.182 189.385C296.252 188.313 295.538 187.046 295.083 185.662C294.573 184.316 294.34 182.867 294.402 181.414C294.465 179.961 294.82 178.541 295.443 177.252L361.37 17.1085C362.111 15.156 363.392 13.4979 365.037 12.3599C366.66 11.1805 368.577 10.5615 370.533 10.5847C372.469 10.5542 374.374 11.1158 376.028 12.2045C377.68 13.2411 378.967 14.8412 379.685 16.7534L449.105 177.185C449.723 178.485 450.09 179.906 450.183 181.363C450.277 182.82 450.095 184.283 449.649 185.662Z" fill="white"/>
<path d="M728.303 194.759H724.368C717.108 194.74 709.889 193.573 702.941 191.298C696.006 189.082 689.513 185.493 683.793 180.713C678.032 175.863 673.315 169.719 669.967 162.706C666.392 155.395 664.656 146.785 664.656 136.9C664.639 135.451 664.898 134.013 665.418 132.677C665.937 131.341 666.706 130.134 667.676 129.133C668.628 128.081 669.768 127.249 671.027 126.688C672.287 126.127 673.638 125.849 675 125.871C677.689 125.9 680.26 127.067 682.162 129.12C684.063 131.174 685.143 133.951 685.17 136.855C685.046 141.918 685.954 146.948 687.83 151.589C689.395 155.408 691.667 158.84 694.507 161.675C697.065 164.263 700.006 166.371 703.208 167.91C706.137 169.299 709.172 170.413 712.278 171.238C714.804 171.923 717.377 172.387 719.972 172.625C722.17 172.825 723.629 172.825 724.184 172.825H728.118C732.37 172.812 736.593 172.07 740.629 170.628C744.673 169.196 748.485 167.093 751.929 164.393C755.181 161.874 757.968 158.721 760.147 155.095C762.233 151.656 763.347 147.635 763.351 143.523C763.351 136.866 760.414 131.153 754.466 126.315C748.518 121.478 738.534 116.618 724.43 111.77L720.321 110.283C713.911 107.809 707.327 105.146 700.64 102.372C694.274 99.7391 688.242 96.25 682.684 91.9876C677.54 87.9912 673.129 82.9946 669.679 77.2536C666.3 71.5176 664.646 64.5944 664.646 56.2843C664.615 49.5717 666.092 42.9512 668.95 36.9903C671.843 31.0356 675.906 25.8364 680.855 21.757C686.261 17.315 692.331 13.9041 698.801 11.6718C706.023 9.2479 713.55 8.04651 721.112 8.11032C725.221 8.11032 729.72 8.40989 734.569 8.89806C739.493 9.4249 744.347 10.5412 749.042 12.2265C753.992 13.9381 758.705 16.3639 763.054 19.4382C767.772 22.8165 771.871 27.1085 775.144 32.0975C776.058 33.5842 777.065 35.4259 778.164 37.545C779.265 39.6917 780.183 41.9421 780.907 44.2685C781.652 46.4732 782.293 48.7172 782.828 50.992C783.34 52.8555 783.62 54.7846 783.66 56.7281C783.643 59.5929 782.575 62.3337 780.691 64.3503C779.757 65.4297 778.623 66.2842 777.363 66.8577C776.103 67.4313 774.744 67.7111 773.377 67.6787C772.037 67.6846 770.71 67.3988 769.474 66.8383C768.239 66.2779 767.121 65.4544 766.187 64.4168C765.216 63.4157 764.448 62.2095 763.928 60.8733C763.408 59.5371 763.149 58.0996 763.167 56.6504C762.668 54.8409 762.085 53.0597 761.42 51.3138C760.643 48.97 759.608 46.7351 758.339 44.6569C751.929 34.9156 739.499 30.0671 720.814 30.0671C716.426 30.0572 712.056 30.6575 707.81 31.8534C703.771 32.9612 699.891 34.6557 696.274 36.8904C693.004 38.934 690.197 41.7387 688.056 45.1007C685.962 48.4211 684.884 52.3674 684.975 56.3842C684.874 60.2059 685.868 63.9682 687.82 67.1573C690.044 70.538 692.878 73.3985 696.151 75.5672C700.327 78.4528 704.78 80.841 709.433 82.6901C714.651 84.9091 720.506 87.1281 726.895 89.6133L730.84 91.1C735.411 92.7754 740.814 94.7614 746.865 97.1357C752.986 99.571 758.801 102.825 764.173 106.821C769.61 110.857 774.3 115.956 778 121.855C781.749 127.791 783.68 135.169 783.68 143.723C783.736 150.931 782.028 158.027 778.729 164.293C775.454 170.564 771.067 176.077 765.817 180.514C755.131 189.644 741.928 194.658 728.303 194.759Z" fill="white"/>
<path d="M860.29 194.76H856.346C849.085 194.738 841.867 193.572 834.918 191.298C827.987 189.08 821.498 185.491 815.781 180.714C810.014 175.869 805.296 169.724 801.955 162.707C798.38 155.395 796.644 146.786 796.644 136.9C796.626 135.451 796.886 134.013 797.405 132.677C797.925 131.341 798.694 130.135 799.664 129.134C800.615 128.081 801.756 127.249 803.015 126.688C804.274 126.127 805.626 125.85 806.988 125.872C809.672 125.917 812.234 127.089 814.132 129.139C816.03 131.189 817.115 133.957 817.157 136.856C817.035 141.917 817.94 146.946 819.808 151.59C821.38 155.407 823.655 158.838 826.495 161.675C829.052 164.264 831.993 166.371 835.195 167.91C838.124 169.301 841.159 170.415 844.266 171.239C846.788 171.924 849.358 172.388 851.949 172.626C854.148 172.825 855.617 172.825 856.171 172.825H860.105C864.341 172.781 868.542 172.014 872.555 170.551C876.599 169.118 880.411 167.015 883.855 164.315C887.11 161.8 889.897 158.646 892.073 155.018C894.159 151.579 895.273 147.558 895.277 143.446C895.277 136.789 892.35 131.075 886.392 126.238C880.434 121.4 870.46 116.541 856.356 111.692L852.247 110.206C845.837 107.732 839.243 105.069 832.555 102.295C826.191 99.6851 820.155 96.2223 814.589 91.9879C809.445 87.9915 805.035 82.9949 801.585 77.2539C798.195 71.5179 796.551 64.5947 796.551 56.2846C796.516 49.5714 797.993 42.9497 800.855 36.9906C803.745 31.0335 807.809 25.8335 812.761 21.7573C818.166 17.314 824.236 13.9029 830.706 11.6721C837.939 9.24443 845.475 8.043 853.048 8.11061C857.157 8.11061 861.657 8.41017 866.515 8.89835C871.439 9.42645 876.293 10.5428 880.989 12.2268C885.939 13.9384 890.652 16.3642 895 19.4385C899.696 22.8051 903.777 27.0777 907.039 32.0423C907.953 33.529 908.97 35.3707 910.121 37.4899C911.222 39.6365 912.14 41.8869 912.863 44.2134C913.593 46.5877 914.332 48.7623 914.784 50.9369C915.294 52.8006 915.571 54.7298 915.606 56.6729C915.619 58.1124 915.367 59.5403 914.864 60.8736C914.362 62.2068 913.619 63.4189 912.679 64.4393C911.735 65.5044 910.594 66.3432 909.33 66.9014C908.067 67.4595 906.709 67.7244 905.344 67.679C904.004 67.6862 902.676 67.4009 901.441 66.8404C900.205 66.2799 899.087 65.4557 898.154 64.4171C897.18 63.4182 896.408 62.2126 895.887 60.8761C895.365 59.5396 895.105 58.101 895.123 56.6507C894.635 54.8389 894.056 53.0574 893.387 51.3141C892.61 48.9703 891.575 46.7354 890.306 44.6572C883.988 34.8604 871.528 30.0119 852.853 30.0119C848.465 30.002 844.095 30.6023 839.849 31.7982C835.808 32.9081 831.924 34.6024 828.303 36.8353C825.034 38.881 822.228 41.6852 820.085 45.0455C817.99 48.3659 816.912 52.3122 817.003 56.329C816.86 60.1547 817.81 63.9354 819.725 67.1576C821.953 70.5386 824.79 73.3991 828.066 75.5675C832.226 78.4503 836.662 80.8385 841.297 82.6904C846.515 84.9094 852.381 87.1284 858.76 89.6136L862.694 91.1003C867.276 92.7757 872.679 94.7616 878.729 97.136C884.848 99.5691 890.66 102.823 896.027 106.822C901.467 110.857 906.16 115.956 909.864 121.855C913.613 127.791 915.534 135.169 915.534 143.723C915.593 150.93 913.889 158.026 910.593 164.293C907.352 170.554 903.003 176.065 897.794 180.514C887.125 189.631 873.946 194.644 860.342 194.76H860.29Z" fill="white"/>
<path d="M593.799 46.5981L593.337 47.4857C594.898 48.8726 596.419 50.3593 597.918 51.846C604.036 58.4221 608.919 66.213 612.299 74.7902C612.751 75.9774 613.214 77.2644 613.666 78.4515L613.943 79.3391C614.303 80.3397 614.608 81.3622 614.857 82.4013C614.95 82.601 614.95 82.9006 615.042 83.1003C615.319 84.2098 615.586 85.3193 615.864 86.4287C615.864 86.5286 615.956 86.7283 615.956 86.8171C616.234 88.1041 616.511 89.3911 616.686 90.6781H645.17L644.626 86.0293C644.534 85.6299 644.534 85.3414 644.441 84.9198C644.164 83.4331 643.979 81.8577 643.619 80.3709C643.59 80.1329 643.528 79.901 643.434 79.6831C642.432 74.949 641.145 70.2904 639.582 65.7368C639.49 65.4372 639.397 65.2375 639.305 64.938C638.853 63.5511 638.278 62.1753 637.754 60.7885C637.661 60.4889 637.477 60.0895 637.384 59.801C634.952 53.9449 631.979 48.3691 628.509 43.1587L627.954 42.2711L625.479 38.8317C625.294 38.632 625.212 38.4323 625.027 38.2326C622.16 34.4925 619.072 30.9569 615.782 27.6481C615.597 27.5482 615.515 27.3596 615.33 27.1599C614.231 26.1724 613.275 25.1739 612.125 24.1865C611.847 23.9867 611.57 23.6983 611.293 23.4986C610.194 22.5111 609.012 21.5237 607.821 20.625L593.799 46.5981Z" fill="#6AC7B9"/>
<path d="M527.399 35.315C529.146 34.616 530.882 34.028 532.71 33.4289C532.895 33.4289 532.987 33.329 533.172 33.329C534.908 32.8409 536.655 32.4414 538.391 32.0531C538.668 32.0531 538.853 31.9533 539.12 31.9533C540.866 31.6537 542.602 31.3541 544.431 31.1544C544.65 31.1705 544.871 31.1365 545.078 31.0546C546.906 30.866 548.827 30.7661 550.666 30.7661C552.505 30.7661 554.415 30.866 556.244 31.0546C556.464 31.0385 556.684 31.0725 556.891 31.1544C558.642 31.3226 560.384 31.5893 562.109 31.9533C562.387 31.9533 562.664 32.0531 562.838 32.0531C564.572 32.3723 566.286 32.7983 567.975 33.329C568.149 33.4289 568.334 33.4289 568.519 33.5287C570.298 34.0219 572.042 34.6522 573.737 35.4149L574.199 34.616L587.933 8.60963C586.649 8.01051 585.283 7.42248 583.907 6.82335C583.537 6.62364 583.177 6.52379 582.808 6.33518L578.956 4.84846C578.504 4.74861 578.134 4.5489 577.682 4.44905C575.299 3.66131 572.823 2.96233 570.491 2.3743L569.3 2.07474C568.385 1.87504 567.471 1.68642 566.649 1.58657C565.622 1.38686 564.729 1.18715 563.722 1.0873L561.287 0.787737C560.096 0.588029 558.997 0.49927 557.785 0.399416C557.148 0.299562 556.501 0.299562 555.864 0.199708C554.056 0.0998539 552.217 0 550.389 0C548.56 0 546.721 0.0998539 544.893 0.199708C544.249 0.216728 543.607 0.283468 542.972 0.399416C541.78 0.49927 540.681 0.588029 539.49 0.787737L537.107 1.10949C536.079 1.3092 535.186 1.40905 534.179 1.60876C533.172 1.80847 532.351 1.89722 531.519 2.09693L530.327 2.39649C527.954 2.98452 525.478 3.6835 523.136 4.47124C522.684 4.57109 522.315 4.7708 521.852 4.87065C520.579 5.35883 519.295 5.75824 518.011 6.35737C517.627 6.47204 517.258 6.63594 516.911 6.84554C515.535 7.44467 514.251 8.0327 512.885 8.63182L526.968 34.5162L527.399 35.315Z" fill="#1D99D6"/>
<path d="M492.238 139.962L492.967 139.263C492.238 137.987 491.591 136.7 490.913 135.313C490.235 133.926 489.629 132.44 488.992 131.064C488.108 128.895 487.343 126.673 486.701 124.407C486.054 122.133 485.51 119.858 485.047 117.484C484.173 112.706 483.763 107.842 483.825 102.972C483.83 98.1314 484.256 93.3024 485.099 88.5484C485.561 86.1741 486.126 83.8997 486.753 81.6252C487.379 79.3508 488.222 77.0763 489.043 74.9017C492.426 66.3223 497.309 58.5281 503.424 51.9464C504.801 50.4708 506.27 49.0839 507.821 47.6971L507.369 46.8095L493.522 20.8696C492.949 21.3004 492.397 21.7634 491.868 22.2565C491.046 22.9444 490.225 23.6433 489.393 24.4755L489.31 24.5753C488.119 25.6848 486.927 26.7943 485.828 27.9038L484.729 29.0909L482.531 31.4652C482.068 31.9645 481.709 32.4527 481.247 32.952C480.61 33.6398 479.963 34.4276 479.418 35.1709C478.956 35.6591 478.586 36.2804 478.134 36.8463C477.682 37.4121 477.035 38.2331 476.48 39.0652C476.028 39.6533 475.659 40.2524 475.207 40.8404C474.664 41.5373 474.173 42.2792 473.738 43.0594C473.309 43.6644 472.912 44.294 472.546 44.9455C472.084 45.6334 471.632 46.3213 471.17 47.1645C470.707 48.0077 470.348 48.4515 469.978 49.1394C469.528 49.8427 469.133 50.5849 468.797 51.3584L467.698 53.2556C467.328 53.9546 466.958 54.6424 466.599 55.4746C466.2 56.1821 465.856 56.9243 465.571 57.6935C465.231 58.3663 464.926 59.059 464.657 59.7683C464.298 60.556 464.02 61.255 463.63 62.0427L462.808 64.1175C462.531 64.9052 462.171 65.704 461.894 66.4918C461.709 67.0909 461.432 67.7788 461.247 68.3668C460.98 69.2655 460.61 70.1531 460.333 71.0407C460.175 71.4905 460.054 71.9546 459.973 72.4275C458.453 77.6354 457.289 82.9568 456.491 88.3487C456.491 88.5484 456.398 88.848 456.398 89.0477C456.213 90.2348 456.121 91.5218 455.936 92.709C455.936 92.9975 455.844 93.297 455.844 93.6964C455.761 94.8836 455.669 96.0707 455.576 97.3577C455.592 97.69 455.56 98.0229 455.484 98.3452C455.392 99.5323 455.392 100.719 455.392 102.007V107.554C455.392 108.841 455.484 110.028 455.576 111.315C455.563 111.582 455.595 111.848 455.669 112.103C455.761 113.39 455.844 114.677 456.028 115.964C456.028 116.152 456.121 116.352 456.121 116.552C456.306 117.939 456.491 119.326 456.676 120.613C456.669 120.665 456.675 120.718 456.691 120.769C456.707 120.819 456.733 120.864 456.768 120.901C458.954 134.753 463.755 147.971 470.872 159.733L492.238 139.962Z" fill="#D51C5A"/>
<path d="M628.231 162.318C628.96 161.209 629.597 160.099 630.285 159.056C630.378 158.856 630.47 158.757 630.563 158.557C631.292 157.37 631.929 156.183 632.617 154.995C632.627 154.92 632.659 154.849 632.71 154.796C639.234 142.703 643.381 129.288 644.892 115.387H616.418C616.233 116.674 615.956 117.961 615.678 119.248C615.685 119.3 615.681 119.354 615.665 119.404C615.648 119.454 615.622 119.5 615.586 119.536C615.319 120.723 615.041 121.822 614.764 122.865C614.672 123.053 614.672 123.253 614.579 123.453C614.312 124.44 614.035 125.527 613.665 126.515C613.573 126.814 613.48 127.014 613.398 127.314C612.936 128.501 612.566 129.788 612.021 130.975C611.107 133.194 610.183 135.224 609.176 137.299C604.021 147.452 596.669 156.108 587.748 162.529C584.115 165.129 580.276 167.376 576.274 169.241C573.247 170.647 570.125 171.805 566.937 172.703C561.519 174.196 555.948 174.941 550.357 174.922C541.482 174.987 532.689 173.068 524.533 169.286C522.705 168.398 520.958 167.499 519.315 166.512C518.668 166.113 517.938 165.724 517.26 165.325C516.278 164.761 515.328 164.135 514.415 163.45C513.593 162.851 512.771 162.263 512.032 161.663C511.292 161.064 510.666 160.554 509.977 159.988C509.289 159.422 508.241 158.601 507.42 157.769L506.588 158.457L485.365 178.04C487.29 180.062 489.309 181.977 491.416 183.776C491.71 184.016 491.985 184.284 492.237 184.574C493.059 185.262 493.881 185.861 494.713 186.549C495.16 186.975 495.65 187.347 496.172 187.659C496.901 188.247 497.733 188.846 498.555 189.434C499.081 189.84 499.63 190.21 500.198 190.543C500.938 191.032 501.76 191.653 502.581 192.119C503.136 192.518 503.773 192.818 504.328 193.228C505.057 193.728 505.879 194.116 506.608 194.615C507.233 194.985 507.878 195.315 508.539 195.603C509.269 196.002 510.09 196.402 510.83 196.79C511.543 197.168 512.277 197.498 513.028 197.777C513.758 198.077 514.487 198.476 515.216 198.765C516.593 199.364 518.062 199.952 519.438 200.451C520.09 200.642 520.731 200.872 521.359 201.139L524.009 202.038C524.656 202.237 525.386 202.426 526.064 202.626C526.988 202.825 527.81 203.125 528.724 203.325C529.454 203.513 530.101 203.613 530.83 203.813L533.583 204.412C534.291 204.502 534.993 204.632 535.689 204.8C536.716 205 537.61 205.1 538.616 205.2C539.251 205.316 539.893 205.382 540.537 205.399L543.835 205.699C544.379 205.699 544.934 205.788 545.478 205.788C547.132 205.888 548.868 205.888 550.614 205.888C552.165 205.888 553.696 205.888 555.37 205.788C555.925 205.788 556.397 205.699 556.932 205.699C557.959 205.599 558.986 205.599 560.013 205.399C560.618 205.289 561.229 205.222 561.842 205.2C562.756 205.1 563.68 205 564.595 204.8C565.242 204.714 565.883 204.584 566.516 204.412C567.337 204.212 568.252 204.112 569.084 203.913C569.777 203.793 570.463 203.63 571.138 203.425L573.603 202.825C574.251 202.626 574.98 202.426 575.658 202.237C576.336 202.049 577.209 201.738 577.938 201.538C578.668 201.339 579.315 201.05 579.993 200.851C580.671 200.651 581.451 200.351 582.191 200.052C582.931 199.752 583.557 199.564 584.245 199.264C584.934 198.964 585.612 198.676 586.3 198.376C586.988 198.077 587.666 197.777 588.354 197.489C589.056 197.199 589.742 196.866 590.409 196.49C591.138 196.102 591.785 195.802 592.463 195.381C593.141 194.959 593.655 194.693 594.292 194.393C594.928 194.094 595.761 193.606 596.397 193.206C597.034 192.807 597.497 192.518 597.959 192.219C598.688 191.731 599.51 191.331 600.25 190.832C600.609 190.543 600.979 190.344 601.349 190.044C605.604 187.116 609.646 183.841 613.439 180.247C613.614 180.059 613.799 179.959 613.983 179.759C614.805 178.96 615.637 178.073 616.459 177.185L617.096 176.497C617.918 175.599 618.657 174.811 619.479 173.923C619.664 173.624 619.941 173.424 620.116 173.124L622.314 170.462C622.499 170.162 622.776 169.962 622.961 169.663C623.693 168.749 624.379 167.793 625.016 166.8C625.201 166.501 625.375 166.301 625.56 166.013C626.3 165.014 626.937 164.027 627.666 163.039C627.92 162.869 628.118 162.617 628.231 162.318Z" fill="#BC9BC8"/>
<path d="M378.354 334.431H363.3L406.842 215.849H421.664L465.206 334.431H450.152L414.716 234.609H413.79L378.354 334.431ZM383.913 288.11H444.593V300.848H383.913V288.11ZM483.677 334.431V215.849H554.779V228.587H498.036V268.655H549.452V281.393H498.036V334.431H483.677ZM579.373 334.431V215.849H619.441C628.705 215.849 636.309 217.431 642.254 220.597C648.198 223.723 652.599 228.027 655.455 233.509C658.312 238.99 659.74 245.224 659.74 252.211C659.74 259.198 658.312 265.393 655.455 270.797C652.599 276.201 648.217 280.447 642.312 283.535C636.406 286.585 628.859 288.11 619.672 288.11H587.247V275.14H619.209C625.539 275.14 630.635 274.213 634.495 272.36C638.394 270.508 641.211 267.883 642.948 264.486C644.724 261.05 645.612 256.959 645.612 252.211C645.612 247.463 644.724 243.313 642.948 239.762C641.173 236.211 638.336 233.47 634.437 231.54C630.538 229.571 625.385 228.587 618.977 228.587H593.732V334.431H579.373ZM635.19 281.161L664.372 334.431H647.696L618.977 281.161H635.19ZM698.027 215.849V334.431H683.668V215.849H698.027ZM822.24 252.906H807.88C807.031 248.775 805.545 245.147 803.422 242.02C801.337 238.894 798.79 236.269 795.779 234.146C792.807 231.984 789.506 230.363 785.878 229.282C782.249 228.201 778.466 227.661 774.529 227.661C767.349 227.661 760.845 229.475 755.016 233.103C749.226 236.732 744.613 242.078 741.178 249.142C737.781 256.206 736.083 264.872 736.083 275.14C736.083 285.408 737.781 294.073 741.178 301.137C744.613 308.201 749.226 313.548 755.016 317.176C760.845 320.805 767.349 322.619 774.529 322.619C778.466 322.619 782.249 322.078 785.878 320.998C789.506 319.917 792.807 318.315 795.779 316.192C798.79 314.03 801.337 311.386 803.422 308.259C805.545 305.094 807.031 301.466 807.88 297.374H822.24C821.159 303.434 819.19 308.858 816.334 313.644C813.477 318.431 809.926 322.503 805.68 325.861C801.434 329.181 796.667 331.709 791.378 333.446C786.129 335.183 780.512 336.052 774.529 336.052C764.416 336.052 755.422 333.581 747.547 328.641C739.673 323.7 733.477 316.674 728.961 307.564C724.445 298.455 722.186 287.646 722.186 275.14C722.186 262.633 724.445 251.825 728.961 242.715C733.477 233.605 739.673 226.58 747.547 221.639C755.422 216.698 764.416 214.228 774.529 214.228C780.512 214.228 786.129 215.096 791.378 216.833C796.667 218.57 801.434 221.118 805.68 224.476C809.926 227.796 813.477 231.849 816.334 236.635C819.19 241.383 821.159 246.807 822.24 252.906ZM850.307 334.431H835.253L878.795 215.849H893.618L937.159 334.431H922.105L886.669 234.609H885.743L850.307 334.431ZM855.866 288.11H916.546V300.848H855.866V288.11Z" fill="white"/>
</svg>
