<svg xmlns="http://www.w3.org/2000/svg" xml:space="preserve" id="Layer_1" x="0" y="0" version="1.1" viewBox="0 0 959.42 255.96"><style>.st0{fill:#fff}</style><path d="M316.63 135.07V38.59h10.74v96.48h-10.74zM359.57 135.07h-10.46V65.36h10.32v4.88c7.53-4.18 14.73-6.28 21.61-6.28 9.29 0 15.55 2.51 18.75 7.53 3.21 5.02 4.81 13.94 4.81 26.77v36.81h-10.32V98.54c0-9.67-.95-16.29-2.86-19.87-1.91-3.58-5.97-5.37-12.2-5.37-2.98 0-6.11.44-9.41 1.32-3.3.88-5.83 1.74-7.6 2.58l-2.65 1.25v56.62zM459.67 74.42H437.5v33.32c0 7.99.58 13.24 1.74 15.76 1.16 2.51 3.92 3.76 8.29 3.76l12.41-.84.7 8.64c-6.23 1.02-10.97 1.53-14.22 1.53-7.25 0-12.27-1.77-15.06-5.3-2.79-3.53-4.18-10.27-4.18-20.22V74.42h-9.9v-9.06h9.9V44.03h10.32v21.33h22.17v9.06zM519.9 126.43l4.04-.42.28 8.23c-10.6 1.49-19.66 2.23-27.19 2.23-10.04 0-17.15-2.9-21.33-8.71-4.18-5.81-6.27-14.85-6.27-27.12 0-24.44 9.71-36.67 29.14-36.67 9.39 0 16.4 2.63 21.05 7.88 4.65 5.25 6.97 13.5 6.97 24.75l-.56 7.95h-46.01c0 7.72 1.39 13.43 4.18 17.15 2.79 3.72 7.64 5.58 14.57 5.58 6.93-.02 13.97-.3 21.13-.85zm-3.76-30.26c0-8.55-1.37-14.59-4.11-18.12-2.74-3.53-7.21-5.3-13.38-5.3-6.18 0-10.83 1.86-13.94 5.58-3.12 3.72-4.72 9.67-4.81 17.85h36.24zM542.9 135.07V65.36h10.32v9.48c8.09-5.58 16.59-9.25 25.52-11.01v10.6c-3.9.75-7.97 1.9-12.2 3.48-4.23 1.58-7.46 2.98-9.69 4.18l-3.49 1.81v51.17H542.9zM591.98 135.07V34.97h10.46v100.11h-10.46zM670.75 126.43l4.04-.42.28 8.23c-10.6 1.49-19.66 2.23-27.19 2.23-10.04 0-17.15-2.9-21.33-8.71-4.18-5.81-6.27-14.85-6.27-27.12 0-24.44 9.71-36.67 29.14-36.67 9.39 0 16.4 2.63 21.05 7.88 4.65 5.25 6.97 13.5 6.97 24.75l-.56 7.95h-46.01c0 7.72 1.39 13.43 4.18 17.15 2.79 3.72 7.64 5.58 14.57 5.58 6.93-.02 13.97-.3 21.13-.85zm-3.76-30.26c0-8.55-1.37-14.59-4.11-18.12-2.74-3.53-7.21-5.3-13.38-5.3-6.18 0-10.83 1.86-13.94 5.58-3.12 3.72-4.72 9.67-4.81 17.85h36.24zM747.29 34.97v100.11h-10.32v-4.74c-7.16 4.09-14.22 6.13-21.19 6.13-3.72 0-6.97-.47-9.76-1.39-2.79-.93-5.39-2.6-7.81-5.02-5.02-5.02-7.53-14.29-7.53-27.82 0-13.52 2.25-23.28 6.76-29.28s11.97-8.99 22.38-8.99c5.39 0 11.1.6 17.15 1.81V34.97h10.32zm-36.25 91.18c1.67.65 3.83.97 6.48.97s5.62-.44 8.92-1.32c3.3-.88 5.88-1.74 7.74-2.58l2.79-1.25V74.7c-5.95-1.12-11.48-1.68-16.59-1.68-7.06 0-11.99 2.26-14.78 6.76-2.79 4.51-4.18 11.5-4.18 20.98 0 10.78 1.62 18.03 4.88 21.75 1.49 1.78 3.07 2.99 4.74 3.64zM794.42 167.84c-11.15 0-18.94-1.51-23.35-4.53-4.42-3.02-6.62-8.53-6.62-16.52 0-3.81.84-6.9 2.51-9.27 1.67-2.37 4.51-5.04 8.5-8.02-2.6-1.76-3.9-4.97-3.9-9.62 0-1.58 1.16-4.51 3.49-8.78l1.26-2.23c-7.34-3.35-11.02-10.36-11.02-21.05 0-15.89 8.69-23.84 26.07-23.84 4.46 0 8.6.47 12.41 1.4l2.09.42 20.63-.56v8.92l-13.24-.28c3.07 3.07 4.6 7.72 4.6 13.94 0 8.74-2.16 14.85-6.48 18.33-4.32 3.48-11.13 5.23-20.42 5.23-2.51 0-4.79-.19-6.83-.56-1.67 4.09-2.51 6.74-2.51 7.95 0 2.88.88 4.67 2.65 5.37 1.76.7 7.11 1.05 16.03 1.05 8.92 0 15.34 1.39 19.24 4.18 3.9 2.79 5.86 8.23 5.86 16.31-.02 14.77-10.34 22.16-30.97 22.16zm-19.66-21.89c0 4.93 1.37 8.34 4.11 10.25 2.74 1.9 7.81 2.86 15.2 2.86s12.69-1.02 15.89-3.07c3.21-2.05 4.81-5.46 4.81-10.25s-1.16-7.88-3.49-9.27c-2.33-1.39-6.88-2.09-13.66-2.09l-15.06-.7c-3.07 2.23-5.14 4.18-6.2 5.85-1.07 1.68-1.6 3.81-1.6 6.42zm.97-58.14c0 5.48 1.23 9.39 3.69 11.71 2.46 2.32 6.53 3.48 12.2 3.48 5.67 0 9.71-1.16 12.13-3.48 2.42-2.32 3.63-6.25 3.63-11.78 0-5.53-1.21-9.46-3.63-11.78-2.42-2.32-6.46-3.49-12.13-3.49-5.67 0-9.74 1.19-12.2 3.56-2.45 2.37-3.69 6.29-3.69 11.78zM886.58 126.43l4.04-.42.28 8.23c-10.6 1.49-19.66 2.23-27.19 2.23-10.04 0-17.15-2.9-21.33-8.71-4.18-5.81-6.27-14.85-6.27-27.12 0-24.44 9.71-36.67 29.14-36.67 9.39 0 16.4 2.63 21.05 7.88 4.65 5.25 6.97 13.5 6.97 24.75l-.56 7.95H846.7c0 7.72 1.39 13.43 4.18 17.15 2.79 3.72 7.64 5.58 14.57 5.58 6.93-.02 13.97-.3 21.13-.85zm-3.77-30.26c0-8.55-1.37-14.59-4.11-18.12-2.74-3.53-7.21-5.3-13.38-5.3-6.18 0-10.83 1.86-13.94 5.58-3.12 3.72-4.72 9.67-4.81 17.85h36.24zM909.58 135.07V65.36h10.32v9.48c8.09-5.58 16.59-9.25 25.52-11.01v10.6c-3.9.75-7.97 1.9-12.2 3.48-4.23 1.58-7.46 2.98-9.69 4.18l-3.49 1.81v51.17h-10.46zM343.8 179.78h-22.76v11.89h20.76v6.92h-20.76v13.67h-8.06V172.8h30.82v6.98zM370.85 212.95c-14.07 0-22.7-7.89-22.7-20.42 0-12.52 8.69-20.41 22.76-20.41s22.76 7.89 22.76 20.41c-.01 12.53-8.76 20.42-22.82 20.42zm.05-33.74c-8.81 0-14.52 5.09-14.52 13.27 0 8.12 5.72 13.21 14.58 13.21 8.75 0 14.41-5.09 14.41-13.21 0-8.18-5.66-13.27-14.47-13.27zM441.41 192.65c0 12.52-6.23 20.3-20.19 20.3-13.95 0-19.73-7.03-19.73-20.3V172.8h8.06v19.84c0 8.75 3.89 13.04 12.18 13.04 7.89 0 11.78-4.4 11.78-13.04V172.8h7.89v19.85zM490.58 212.26h-8.12l-23.05-27.22h-.11v27.22h-8.06V172.8h8.12l23.05 27.22h.11V172.8h8.06v39.46zM517.97 212.26h-17.33V172.8h17.33c17.27 0 25.16 6.46 25.16 19.44 0 12.42-7.77 20.02-25.16 20.02zm-.46-32.48h-8.81v25.39h8.81c12.35 0 17.33-4.69 17.33-12.87 0-8.12-4.74-12.52-17.33-12.52zM589.56 212.26h-8.81l-4.57-10.69h-17.84l-4.46 10.69h-8.63l17.78-39.46h8.81l17.72 39.46zm-22.24-31.91h-.11l-6.46 15.44h13.15l-6.58-15.44zM628.1 179.78h-16.7v32.48h-8.06v-32.48H586.7v-6.98h41.4v6.98zM642.8 212.26h-8.06V172.8h8.06v39.46zM674.08 212.95c-14.07 0-22.7-7.89-22.7-20.42 0-12.52 8.69-20.41 22.76-20.41 14.07 0 22.76 7.89 22.76 20.41-.01 12.53-8.76 20.42-22.82 20.42zm.05-33.74c-8.81 0-14.52 5.09-14.52 13.27 0 8.12 5.72 13.21 14.58 13.21 8.75 0 14.41-5.09 14.41-13.21 0-8.18-5.66-13.27-14.47-13.27zM744.3 212.26h-8.12l-23.05-27.22h-.11v27.22h-8.06V172.8h8.12l23.05 27.22h.11V172.8h8.06v39.46z" class="st0"/><path fill="#825282" d="M87.01 218.71a.7.7 0 0 1-.08-.1c-18.63-8.99-34.07-23.58-44.15-41.6l-.01-.01c-16.6-11.75-29.35-28.62-35.96-48.34-3.09 9.57-4.74 19.79-4.69 30.41.13 24.16 9.07 46.2 23.74 63.09a97.564 97.564 0 0 0 17.13 15.53c15.88 11.27 35.3 17.85 56.24 17.74a96.08 96.08 0 0 0 31.83-5.58c-17.48-6.04-32.71-16.95-44.05-31.14z"/><path fill="#8075b3" d="M174.79 218.2c.02-.03.04-.05.06-.08-.04.02-.09.04-.13.06-13.21 6.53-28.06 10.24-43.78 10.32-15.7.09-30.58-3.45-43.85-9.83-.06-.03-.11-.05-.17-.08a.7.7 0 0 1 .08.1c11.33 14.19 26.56 25.11 44.05 31.13 17.44-6.2 32.56-17.29 43.74-31.62z"/><path fill="#a3bedc" d="M87.1 218.69c13.27 6.38 28.15 9.91 43.85 9.83 15.72-.09 30.57-3.79 43.78-10.32-15.51-3.51-30.23-9.1-43.87-16.46a173.434 173.434 0 0 1-43.76 16.95z"/><path fill="#56b7b5" d="M253.99 127.3c3.2 9.54 4.96 19.74 5.02 30.35.13 24.16-8.57 46.3-23.06 63.35-5 5.88-10.69 11.16-16.95 15.7-15.76 11.44-35.1 18.24-56.04 18.35-11.17.06-21.9-1.79-31.89-5.23 17.43-6.22 32.55-17.31 43.73-31.63.02-.03.04-.05.06-.08 18.53-9.19 33.81-23.95 43.69-42.08l.01-.01c16.48-11.92 29.04-28.93 35.43-48.72z"/><path fill="#2e9c86" d="M218.36 79.2c-.01 0-.01-.01 0 0-.01 0-.01 0 0 0 7.84 14.26 12.35 30.63 12.44 48.06.1 17.66-4.35 34.29-12.24 48.76 0 .01-.01.01-.01.02l.01-.01c16.48-11.93 29.04-28.94 35.43-48.73-6.56-19.59-19.19-36.36-35.63-48.1z"/><path fill="#80d4be" d="M218.56 176.02c7.88-14.48 12.33-31.1 12.24-48.76-.09-17.43-4.6-33.8-12.44-48.05a173.88 173.88 0 0 1-16.18 48.53 174.01 174.01 0 0 1 16.38 48.28z"/><path fill="#98e1d0" d="M202.17 127.73c-2.53 4.98-5.28 9.82-8.26 14.52a175.548 175.548 0 0 1-48.69 50.58c-4.63 3.19-9.43 6.16-14.37 8.9a172.523 172.523 0 0 0 43.87 16.46c.04-.02.09-.04.13-.06 18.53-9.19 33.81-23.95 43.69-42.08 0-.01.01-.01.01-.02-3.1-17.11-8.7-33.33-16.38-48.3z"/><path fill="#ff7a7f" d="M41.93 80.16c.02-.04.05-.09.07-.13 9.95-18.48 25.49-33.5 44.36-42.75.01-.01.03-.01.04-.02 11.14-14.08 26.1-24.99 43.33-31.13C119.73 2.69 109 .84 97.84.9c-21.18.11-40.73 7.06-56.58 18.75a97.869 97.869 0 0 0-15.72 14.51C10.64 51.31 1.66 73.76 1.79 98.3c.06 10.61 1.82 20.82 5.02 30.35 6.35-19.66 18.8-36.57 35.12-48.49z"/><path fill="#e8666d" d="m42.77 176.99.01.01c0-.01-.01-.01-.01-.02-8.04-14.39-12.67-30.96-12.77-48.63-.09-17.43 4.23-33.85 11.93-48.2-16.32 11.92-28.77 28.84-35.12 48.5 6.61 19.72 19.36 36.6 35.96 48.34z"/><path fill="#ffa6b2" d="M42.02 80.09c0-.02-.01-.05-.01-.07-.02.04-.05.09-.07.13-7.7 14.35-12.03 30.77-11.94 48.2.1 17.66 4.73 34.24 12.77 48.63 2.93-17.17 8.37-33.49 15.91-48.57a173.918 173.918 0 0 1-16.66-48.32z"/><path fill="#ffd1d1" d="M116.37 192.97a175.408 175.408 0 0 1-49.3-50.16c-3.01-4.65-5.81-9.45-8.38-14.4a173.985 173.985 0 0 0-15.91 48.57c0 .01.01.01.01.02 10.08 18.02 25.52 32.61 44.15 41.6.06.03.11.05.17.08 15.49-3.68 30.18-9.44 43.76-16.96-4.99-2.68-9.83-5.61-14.5-8.75z"/><path fill="#68c180" d="M129.74 6.12A96.171 96.171 0 0 1 161.57.54c21.24-.12 40.91 6.66 56.92 18.23a96.858 96.858 0 0 1 15.75 14.25c15.08 16.99 24.3 39.34 24.44 63.88a96.813 96.813 0 0 1-4.69 30.41c-6.56-19.59-19.19-36.37-35.63-48.1 0 0-.01 0-.01-.01-10.15-18.43-25.88-33.33-44.9-42.4-.01-.01-.03-.01-.04-.02-11.3-13.97-26.38-24.71-43.67-30.66z"/><path fill="#ff9852" d="M86.41 37.25c13.13-6.43 27.86-10.07 43.44-10.16s30.36 3.4 43.55 9.68c-11.29-13.96-26.37-24.7-43.67-30.65-17.22 6.14-32.18 17.05-43.32 31.13z"/><path fill="#ffb985" d="M130 53.82a172.927 172.927 0 0 1 43.43-17.01c.01 0 .02 0 .02-.01-.01-.01-.03-.01-.04-.02-13.19-6.28-27.97-9.77-43.55-9.68s-30.32 3.73-43.44 10.16c-.01.01-.03.01-.04.02.01 0 .02 0 .02.01 15.4 3.55 30.04 9.16 43.6 16.53z"/><path fill="#c5e3a1" d="M130 53.82a175.439 175.439 0 0 1 63.75 59.29c3.04 4.73 5.85 9.61 8.43 14.64a173.88 173.88 0 0 0 16.18-48.53l-.01-.01c-10.15-18.43-25.88-33.33-44.9-42.4-.01 0-.02 0-.02.01a171.628 171.628 0 0 0-43.43 17z"/><path fill="#efcaa8" d="M58.68 128.41a175.55 175.55 0 0 1 71.31-74.6 172.681 172.681 0 0 0-43.61-16.54c-.01 0-.01 0-.02-.01C67.49 46.53 51.95 61.54 42 80.02c0 .02.01.05.01.07a174.26 174.26 0 0 0 16.67 48.32z"/><path d="M144.89 62.9A176.1 176.1 0 0 0 130 53.81c-5.09 2.84-10.02 5.93-14.78 9.25a175.445 175.445 0 0 0-56.54 65.35c2.57 4.94 5.37 9.75 8.38 14.4a175.538 175.538 0 0 0 49.3 50.16c4.68 3.14 9.51 6.07 14.49 8.76 4.94-2.74 9.74-5.71 14.37-8.9a175.548 175.548 0 0 0 48.69-50.58c2.97-4.69 5.73-9.54 8.26-14.52-2.58-5.03-5.39-9.91-8.43-14.64a175.627 175.627 0 0 0-48.85-50.19z" class="st0"/></svg>
